{
.appVersion = "3182";
DisplayStrings = (
"/A_E/Eacute_E/I_E/a_e/a_o/a_u_l_a/c_h/c_q/d_e/d_u_d_e_l_a/e_a/e_s/e_t/e_u/eacute_e/f_f_e/f_v/h_o_f/i_e/l_e/l_l/l_u/n_e/n_n/n_n_e/o_idieresis/o_t/p_m/r_e/r_i/r_s/u_l \012\012LA..E\012CONCERNÉ..E\012AMI..E\012la..e/space ma..on\012à/space la..au\012blanc..hes\012turc..ques\012grand..es\012du..de/space la\012belle..au\012maître..sses\012ce..tte\012celle..ux\012aimé..es\012chef..fes\012vif..ves\012long..ues\012ho..femme\012ami..es\012principal..es\012gentil..les\012ell..ui\012un..es\012pharmacien..nes\012héro..ïnes\012rigolo..tes\012p..mère\012docteur..es\012auteur..ices\012coiffeur..ses\012tiers..ces\012mis..es\012fils..les\012gros..ses\012tous..tes\012vieillot..tes\012perdu..es\012mou..lles\012doux..ces\012heureux..ses"
);
classes = (
{
code = "colon exclam period question semicolon quotedblleft quotedblright quoteleft quoteright questiondown exclamdown periodcentered ellipsis comma divide";
name = circular_punctuation;
},
{
code = "colon.ss01 exclam.ss01 period.ss01 question.ss01 semicolon.ss01 quotedblleft.ss06 quotedblright.ss06 quoteleft.ss06 quoteright.ss06 questiondown.ss01 exclamdown.ss01 periodcentered.ss01 ellipsis.ss01 comma.ss01 divide.ss01\012";
name = square_punctuation;
},
{
code = "a aacute abreve acircumflex adieresis agrave amacron aogonek aring atilde ";
disabled = 1;
name = double_storey_a;
},
{
code = "a.ss02 aacute.ss02 abreve.ss02 acircumflex.ss02 adieresis.ss02 agrave.ss02 amacron.ss02 aogonek.ss02 aring.ss02 atilde.ss02 ";
disabled = 1;
name = single_storey_a;
},
{

glyphs = (
{
glyphname = A;
lastChange = "2022-04-10 16:49:39 +0000";
layers = (
{
anchors = (
{
name = ogonek;
position = "{773, 0}";
},
{
name = top;
position = "{387, 711}";
}
);
layerId = "A69CC389-2ECF-459C-A4E4-3168912CA6B4";
paths = (
{
closed = 1;
nodes = (
"259 708 LINE",
"0 0 LINE",
"233 0 LINE",
"426 593 LINE",
"347 593 LINE",
"539 0 LINE",
"773 0 LINE",
"515 708 LINE"
);
},
{
closed = 1;
nodes = (
"114 107 LINE",
"634 107 LINE",
"579 274 LINE",
"170 274 LINE"
);
}
);
width = 773;
},
{
anchors = (
{
name = ogonek;
position = "{664, 0}";
},
{
name = top;
position = "{349, 696}";
}
);
layerId = "4D0F633C-81E1-4D6C-A640-637CE706A5C5";
paths = (
{
closed = 1;
nodes = (
"283 696 LINE",
"34 0 LINE",
"153 0 LINE",
"375 634 LINE",
"322 634 LINE",
"544 0 LINE",
"664 0 LINE",
"415 696 LINE"
);
},
{
closed = 1;
nodes = (
"138 142 LINE",
"554 142 LINE",
"524 235 LINE",
"167 235 LINE"
);
}
);
width = 698;
}
);
leftKerningGroup = A;
rightKerningGroup = A;
unicode = 0041;
userData = {
com.schriftgestaltung.Glyphs.ColorIndex = 4;
com.typesupply.AccentFactory.yCoordinates = {
bottom = {
name = origin;
type = glyphMetric;
};
top = {
name = capHeight;
type = fontInfo;
};
};
};
},
{
glyphname = Aogonek;
lastChange = "2022-02-17 13:53:55 +0000";
layers = (
{
anchors = (
{
name = _ogonek;
position = "{773, 0}";
}
);
background = {
paths = (
{
closed = 1;
nodes = (
"114 107 LINE",
"634 107 LINE",
"579 274 LINE",
"170 274 LINE"
);
},
{
closed = 1;
nodes = (
"0 0 LINE",
"233 0 LINE",
"426 593 LINE",
"347 593 LINE",
"549 -30 LINE",
"565 15 LINE",
"515 -13 OFFCURVE",
"494 -49 OFFCURVE",
"494 -97 CURVE",
"494 -192 OFFCURVE",
"577 -219 OFFCURVE",
"644 -219 CURVE",
"812 -219 LINE",
"812 -106 LINE",
"667 -106 LINE SMOOTH",
"651 -106 OFFCURVE",
"641 -100 OFFCURVE",
"641 -90 CURVE SMOOTH",
"641 -80 OFFCURVE",
"651 -75 OFFCURVE",
"667 -75 CURVE SMOOTH",
"767 -75 LINE",
"767 15 LINE",
"515 708 LINE",
"259 708 LINE"
);
}
);
};
components = (
{
name = A;
}
);
layerId = "A69CC389-2ECF-459C-A4E4-3168912CA6B4";
paths = (
{
closed = 1;
nodes = (
"694 90 LINE SMOOTH",
"538 27 OFFCURVE",
"499 -26 OFFCURVE",
"499 -97 CURVE SMOOTH",
"499 -177 OFFCURVE",
"559 -223 OFFCURVE",
"659 -223 CURVE SMOOTH",
"702 -223 OFFCURVE",
"740 -217 OFFCURVE",
"773 -207 CURVE",
"773 -91 LINE",
"740 -102 OFFCURVE",
"713 -107 OFFCURVE",
"691 -107 CURVE SMOOTH",
"667 -107 OFFCURVE",
"654 -98 OFFCURVE",
"654 -82 CURVE SMOOTH",
"654 -66 OFFCURVE",
"666 -46 OFFCURVE",
"729 -19 CURVE SMOOTH",
"773 0 LINE",
"731 105 LINE"
);
}
);
width = 773;
},
{
anchors = (
{
name = _ogonek;
position = "{664, 0}";
}
);
background = {
paths = (
{
closed = 1;
nodes = (
"138 142 LINE",
"554 142 LINE",
"524 231 LINE",
"167 231 LINE"
);
},
{
closed = 1;
nodes = (
"34 0 LINE",
"153 0 LINE",
"359 586 LINE",
"339 586 LINE",
"553 -24 LINE",
"558 1 LINE",
"501 -7 OFFCURVE",
"464 -42 OFFCURVE",
"464 -96 CURVE SMOOTH",
"464 -165 OFFCURVE",
"521 -205 OFFCURVE",
"592 -205 CURVE SMOOTH",
"698 -205 LINE",
"698 -133 LINE",
"614 -133 LINE SMOOTH",
"579 -133 OFFCURVE",
"558 -126 OFFCURVE",
"558 -96 CURVE SMOOTH",
"558 -66 OFFCURVE",
"579 -60 OFFCURVE",
"614 -60 CURVE SMOOTH",
"664 -60 LINE",
"664 1 LINE",
"415 696 LINE",
"283 696 LINE"
);
}
);
};
components = (
{
name = A;
}
);
layerId = "4D0F633C-81E1-4D6C-A640-637CE706A5C5";
paths = (
{
closed = 1;
nodes = (
"592 39 LINE SMOOTH",
"498 -4 OFFCURVE",
"465 -52 OFFCURVE",
"465 -103 CURVE SMOOTH",
"465 -183 OFFCURVE",
"535 -211 OFFCURVE",
"598 -211 CURVE SMOOTH",
"627 -211 OFFCURVE",
"656 -205 OFFCURVE",
"679 -196 CURVE",
"679 -123 LINE",
"656 -132 OFFCURVE",
"632 -137 OFFCURVE",
"613 -137 CURVE SMOOTH",
"579 -137 OFFCURVE",
"558 -119 OFFCURVE",
"558 -91 CURVE SMOOTH",
"558 -67 OFFCURVE",
"572 -47 OFFCURVE",
"615 -25 CURVE SMOOTH",
"664 0 LINE",
"634 58 LINE"
);
}
);
width = 697;
}
);
leftKerningGroup = A;
rightKerningGroup = A;
unicode = 0104;
userData = {
com.schriftgestaltung.Glyphs.ColorIndex = 8;
com.typesupply.AccentFactory.compileType = manual;
};
},
{
glyphname = AE;
lastChange = "2022-03-09 13:13:32 +0000";
layers = (
{
layerId = "A69CC389-2ECF-459C-A4E4-3168912CA6B4";
paths = (
{
closed = 1;
nodes = (
"155 97 LINE",
"598 97 LINE",
"598 264 LINE",
"248 264 LINE"
);
},
{
closed = 1;
nodes = (
"952 532 LINE",
"952 708 LINE",
"339 708 LINE",
"0 0 LINE",
"241 0 LINE",
"490 537 LINE",
"490 0 LINE",
"952 0 LINE",
"952 177 LINE",
"712 177 LINE",
"712 280 LINE",
"922 280 LINE",
"922 447 LINE",
"712 447 LINE",
"712 532 LINE"
);
}
);
width = 986;
},
{
layerId = "4D0F633C-81E1-4D6C-A640-637CE706A5C5";
paths = (
{
closed = 1;
nodes = (
"152 142 LINE",
"525 142 LINE",
"525 231 LINE",
"202 231 LINE"
);
},
{
closed = 1;
nodes = (
"855 607 LINE",
"855 696 LINE",
"395 696 LINE",
"12 0 LINE",
"136 0 LINE",
"472 617 LINE",
"472 0 LINE",
"855 0 LINE",
"855 89 LINE",
"586 89 LINE",
"586 308 LINE",
"825 308 LINE",
"825 396 LINE",
"586 396 LINE",
"586 607 LINE"
);
}
);
width = 921;
}
);
leftKerningGroup = A;
rightKerningGroup = E;
unicode = 00C6;
userData = {
com.schriftgestaltung.Glyphs.ColorIndex = 4;
com.typemytype.robofont.layerData = {
b = {
anchors = (
);
components = (
);
contours = (
{
points = (
{
segmentType = line;
smooth = 0;
x = 138;
y = 183;
},
{
segmentType = line;
smooth = 0;
x = 449;
y = 183;
},
{
segmentType = line;
smooth = 0;
x = 449;
y = 202;
},
{
segmentType = line;
smooth = 0;
x = 149;
y = 202;
}
);
},
{
points = (
{
segmentType = line;
smooth = 0;
x = 757;
y = 663;
},
{
segmentType = line;
smooth = 0;
x = 757;
y = 683;
},
{
segmentType = line;
smooth = 0;
x = 442;
y = 683;
},
{
segmentType = line;
smooth = 0;
x = 11;
y = 0;
},
{
segmentType = line;
smooth = 0;
x = 32;
y = 0;
},
{
segmentType = line;
smooth = 0;
x = 443;
y = 658;
},
{
segmentType = line;
smooth = 0;
x = 443;
y = 0;
},
{
segmentType = line;
smooth = 0;
x = 757;
y = 0;
},
{
segmentType = line;
smooth = 0;
x = 757;
y = 19;
},
{
segmentType = line;
smooth = 0;
x = 463;
y = 19;
},
{
segmentType = line;
smooth = 0;
x = 463;
y = 332;
},
{
segmentType = line;
smooth = 0;
x = 727;
y = 332;
},
{
segmentType = line;
smooth = 0;
x = 727;
y = 351;
},
{
segmentType = line;
smooth = 0;
x = 463;
y = 351;
},
{
segmentType = line;
smooth = 0;
x = 463;
y = 663;
}
);
}
);
lib = {
};
name = AE;
unicodes = (
);
width = 837;
};
};
com.typesupply.AccentFactory.yCoordinates = {
bottom = {
name = origin;
type = glyphMetric;
};
top = {
name = capHeight;
type = fontInfo;
};
};
};
},
{
glyphname = B;
lastChange = "2022-04-28 08:36:31 +0000";
layers = (
{
layerId = "A69CC389-2ECF-459C-A4E4-3168912CA6B4";
paths = (
{
closed = 1;
nodes = (
"417 481 CURVE SMOOTH",
"417 446.596 OFFCURVE",
"398 432 OFFCURVE",
"358 432 CURVE SMOOTH",
"272 432 LINE",
"272 532 LINE",
"358 532 LINE SMOOTH",
"398 532 OFFCURVE",
"417 515.641 OFFCURVE"
);
},
{
closed = 1;
nodes = (
"659 194 CURVE SMOOTH",
"659 285 OFFCURVE",
"595 364 OFFCURVE",
"481 369 CURVE",
"464 357 LINE",
"563 352 OFFCURVE",
"643 416 OFFCURVE",
"643 524 CURVE SMOOTH",
"643 647 OFFCURVE",
"552 708 OFFCURVE",
"411 708 CURVE SMOOTH",
"50 708 LINE",
"50 0 LINE",
"421 0 LINE SMOOTH",
"575 0 OFFCURVE",
"659 70 OFFCURVE"
);
},
{
closed = 1;
nodes = (
"432 227 CURVE SMOOTH",
"432 192.412 OFFCURVE",
"413 178 OFFCURVE",
"373 178 CURVE SMOOTH",
"272 178 LINE",
"272 278 LINE",
"373 278 LINE SMOOTH",
"413 278 OFFCURVE",
"432 261.347 OFFCURVE"
);
}
);
width = 684;
},
{
background = {
paths = (
{
closed = 1;
nodes = (
"449 502 CURVE SMOOTH",
"449 438 OFFCURVE",
"404 400 OFFCURVE",
"330 400 CURVE SMOOTH",
"189 400 LINE",
"189 606 LINE",
"330 606 LINE SMOOTH",
"404 606 OFFCURVE",
"449 567 OFFCURVE"
);
},
{
closed = 1;
nodes = (
"581 183 CURVE SMOOTH",
"581 275 OFFCURVE",
"511 356 OFFCURVE",
"403 359 CURVE",
"386 347 LINE",
"495 364 OFFCURVE",
"565 417 OFFCURVE",
"565 511 CURVE SMOOTH",
"565 614 OFFCURVE",
"487 695 OFFCURVE",
"340 695 CURVE SMOOTH",
"75 695 LINE",
"75 0 LINE",
"353 0 LINE SMOOTH",
"495 0 OFFCURVE",
"581 79 OFFCURVE"
);
},
{
closed = 1;
nodes = (
"467 199 CURVE SMOOTH",
"467 130 OFFCURVE",
"420 89 OFFCURVE",
"343 89 CURVE SMOOTH",
"189 89 LINE",
"189 311 LINE",
"339 311 LINE SMOOTH",
"415 311 OFFCURVE",
"467 268 OFFCURVE"
);
}
);
};
layerId = "4D0F633C-81E1-4D6C-A640-637CE706A5C5";
paths = (
{
closed = 1;
nodes = (
"449 502 CURVE SMOOTH",
"449 438 OFFCURVE",
"404 403 OFFCURVE",
"330 403 CURVE SMOOTH",
"189 403 LINE",
"189 602 LINE",
"330 602 LINE SMOOTH",
"404 602 OFFCURVE",
"449 565 OFFCURVE"
);
},
{
closed = 1;
nodes = (
"581 187 CURVE SMOOTH",
"581 277 OFFCURVE",
"511 356 OFFCURVE",
"428 359 CURVE",
"411 347 LINE",
"495 364 OFFCURVE",
"565 417 OFFCURVE",
"565 516 CURVE SMOOTH",
"565 614 OFFCURVE",
"487 695 OFFCURVE",
"340 695 CURVE SMOOTH",
"75 695 LINE",
"75 0 LINE",
"353 0 LINE SMOOTH",
"495 0 OFFCURVE",
"581 81 OFFCURVE"
);
},
{
closed = 1;
nodes = (
"467 199 CURVE SMOOTH",
"467 132 OFFCURVE",
"420 93 OFFCURVE",
"343 93 CURVE SMOOTH",
"189 93 LINE",
"189 310 LINE",
"339 310 LINE SMOOTH",
"415 310 OFFCURVE",
"467 268 OFFCURVE"
);
}
);
width = 625;
},
{
associatedMasterId = "4D0F633C-81E1-4D6C-A640-637CE706A5C5";
layerId = "C4420EFC-D5EF-4B28-ADC0-87A5182B2F17";
name = "Sep 19 17, 17:06";
paths = (
{
closed = 1;
nodes = (
"449 502 CURVE SMOOTH",
"449 438 OFFCURVE",
"404 400 OFFCURVE",
"330 400 CURVE SMOOTH",
"189 400 LINE",
"189 606 LINE",
"330 606 LINE SMOOTH",
"404 606 OFFCURVE",
"449 567 OFFCURVE"
);
},
{
closed = 1;
nodes = (
"581 183 CURVE SMOOTH",
"581 275 OFFCURVE",
"511 356 OFFCURVE",
"403 359 CURVE",
"386 347 LINE",
"495 364 OFFCURVE",
"565 417 OFFCURVE",
"565 511 CURVE SMOOTH",
"565 614 OFFCURVE",
"487 695 OFFCURVE",
"340 695 CURVE SMOOTH",
"75 695 LINE",
"75 0 LINE",
"353 0 LINE SMOOTH",
"495 0 OFFCURVE",
"581 79 OFFCURVE"
);
},
{
closed = 1;
nodes = (
"467 199 CURVE SMOOTH",
"467 130 OFFCURVE",
"420 89 OFFCURVE",
"343 89 CURVE SMOOTH",
"189 89 LINE",
"189 311 LINE",
"339 311 LINE SMOOTH",
"415 311 OFFCURVE",
"467 268 OFFCURVE"
);
}
);
width = 630;
}
);
leftKerningGroup = H;
leftMetricsKey = H;
rightKerningGroup = B;
unicode = 0042;
userData = {
com.schriftgestaltung.Glyphs.ColorIndex = 4;
com.typesupply.AccentFactory.yCoordinates = {
bottom = {
name = origin;
type = glyphMetric;
};
top = {
name = capHeight;
type = fontInfo;
};
};
};
},
{
glyphname = C;
lastChange = "2022-04-10 15:42:18 +0000";
layers = (
{
anchors = (
{
name = bottom;
position = "{377, 0}";
},
{
name = top;
position = "{377, 711}";
}
);
layerId = "A69CC389-2ECF-459C-A4E4-3168912CA6B4";
paths = (
{
closed = 1;
nodes = (
"30 355 CURVE",
"30 144 OFFCURVE",
"163 -5 OFFCURVE",
"380 -5 CURVE",
"567 -5 OFFCURVE",
"694 107 OFFCURVE",
"723 274 CURVE",
"489 274 LINE",
"468 227 OFFCURVE",
"426 200 OFFCURVE",
"376 200 CURVE",
"301 200 OFFCURVE",
"255 261 OFFCURVE",
"255 355 CURVE",
"255 449 OFFCURVE",
"301 510 OFFCURVE",
"376 510 CURVE",
"426 510 OFFCURVE",
"468 483 OFFCURVE",
"489 436 CURVE",
"723 436 LINE",
"694 603 OFFCURVE",
"567 715 OFFCURVE",
"380 715 CURVE",
"163 715 OFFCURVE",
"30 566 OFFCURVE"
);
}
);
width = 743;
},
{
anchors = (
{
name = bottom;
position = "{386, 0}";
},
{
name = top;
position = "{392, 704}";
}
);
layerId = "4D0F633C-81E1-4D6C-A640-637CE706A5C5";
paths = (
{
closed = 1;
nodes = (
"37 349 CURVE SMOOTH",
"37 140 OFFCURVE",
"196 -6 OFFCURVE",
"392 -6 CURVE SMOOTH",
"537 -6 OFFCURVE",
"662 66 OFFCURVE",
"715 202 CURVE",
"578 202 LINE",
"541 128 OFFCURVE",
"475 93 OFFCURVE",
"392 93 CURVE SMOOTH",
"254 93 OFFCURVE",
"154 192 OFFCURVE",
"154 349 CURVE SMOOTH",
"154 506 OFFCURVE",
"254 604 OFFCURVE",
"392 604 CURVE SMOOTH",
"475 604 OFFCURVE",
"541 569 OFFCURVE",
"578 495 CURVE",
"715 495 LINE",
"662 631 OFFCURVE",
"537 704 OFFCURVE",
"392 704 CURVE SMOOTH",
"196 704 OFFCURVE",
"37 557 OFFCURVE"
);
}
);
width = 740;
}
);
leftKerningGroup = O;
leftMetricsKey = O;
rightKerningGroup = C;
unicode = 0043;
userData = {
com.schriftgestaltung.Glyphs.ColorIndex = 4;
com.typesupply.AccentFactory.yCoordinates = {
bottom = {
name = origin;
type = glyphMetric;
};
top = {
name = capHeight;
type = fontInfo;
};
};
};
},
{
glyphname = D;
lastChange = "2022-04-10 15:16:23 +0000";
layers = (
{
anchors = (
{
name = top;
position = "{359, 711}";
}
);
layerId = "A69CC389-2ECF-459C-A4E4-3168912CA6B4";
paths = (
{
closed = 1;
nodes = (
"345 708 CURVE SMOOTH",
"50 708 LINE",
"50 0 LINE",
"345 0 LINE SMOOTH",
"571 0 OFFCURVE",
"713 154 OFFCURVE",
"713 356 CURVE SMOOTH",
"713 560 OFFCURVE",
"571 708 OFFCURVE"
);
},
{
closed = 1;
nodes = (
"272 198 LINE",
"272 514 LINE",
"325 514 LINE SMOOTH",
"423 514 OFFCURVE",
"488 459 OFFCURVE",
"488 356 CURVE SMOOTH",
"488 253 OFFCURVE",
"423 198 OFFCURVE",
"325 198 CURVE SMOOTH"
);
}
);
width = 746;
},
{
anchors = (
{
name = top;
position = "{355, 696}";
}
);
layerId = "4D0F633C-81E1-4D6C-A640-637CE706A5C5";
paths = (
{
closed = 1;
nodes = (
"302 695 CURVE SMOOTH",
"75 695 LINE",
"75 0 LINE",
"302 0 LINE SMOOTH",
"525 0 OFFCURVE",
"671 131 OFFCURVE",
"671 345 CURVE SMOOTH",
"671 560 OFFCURVE",
"525 695 OFFCURVE"
);
},
{
closed = 1;
nodes = (
"189 93 LINE",
"189 602 LINE",
"302 602 LINE SMOOTH",
"466 602 OFFCURVE",
"554 504 OFFCURVE",
"554 345 CURVE SMOOTH",
"554 187 OFFCURVE",
"466 93 OFFCURVE",
"302 93 CURVE SMOOTH"
);
}
);
width = 713;
}
);
leftKerningGroup = H;
leftMetricsKey = H;
rightKerningGroup = O;
unicode = 0044;
userData = {
com.schriftgestaltung.Glyphs.ColorIndex = 4;
com.typemytype.robofont.guides = (
{
angle = 0;
isGlobal = 0;
magnetic = 5;
x = 122;
y = 684;
}
);
com.typesupply.AccentFactory.yCoordinates = {
bottom = {
name = origin;
type = glyphMetric;
};
top = {
name = capHeight;
type = fontInfo;
};
};
};
},
{
glyphname = Eth;
lastChange = "2022-02-17 13:53:55 +0000";
layers = (
{
layerId = "A69CC389-2ECF-459C-A4E4-3168912CA6B4";
paths = (
{
closed = 1;
nodes = (
"0 268 LINE",
"402 268 LINE",
"402 444 LINE",
"0 444 LINE"
);
},
{
closed = 1;
nodes = (
"345 708 CURVE SMOOTH",
"50 708 LINE",
"50 0 LINE",
"345 0 LINE SMOOTH",
"571 0 OFFCURVE",
"713 154 OFFCURVE",
"713 356 CURVE SMOOTH",
"713 560 OFFCURVE",
"571 708 OFFCURVE"
);
},
{
closed = 1;
nodes = (
"272 198 LINE",
"272 514 LINE",
"325 514 LINE SMOOTH",
"423 514 OFFCURVE",
"488 459 OFFCURVE",
"488 356 CURVE SMOOTH",
"488 253 OFFCURVE",
"423 198 OFFCURVE",
"325 198 CURVE SMOOTH"
);
}
);
width = 743;
},
{
layerId = "4D0F633C-81E1-4D6C-A640-637CE706A5C5";
paths = (
{
closed = 1;
nodes = (
"9 293 LINE",
"379 293 LINE",
"379 398 LINE",
"9 398 LINE"
);
},
{
closed = 1;
nodes = (
"314 695 CURVE SMOOTH",
"86 695 LINE",
"86 0 LINE",
"314 0 LINE SMOOTH",
"537 0 OFFCURVE",
"682 131 OFFCURVE",
"682 345 CURVE SMOOTH",
"682 560 OFFCURVE",
"537 695 OFFCURVE"
);
},
{
closed = 1;
nodes = (
"201 87 LINE",
"201 603 LINE",
"314 603 LINE SMOOTH",
"477 603 OFFCURVE",
"565 504 OFFCURVE",
"565 345 CURVE SMOOTH",
"565 187 OFFCURVE",
"477 87 OFFCURVE",
"314 87 CURVE SMOOTH"
);
}
);
width = 720;
}
);
leftKerningGroup = H;
rightKerningGroup = O;
unicode = 00D0;
userData = {
com.schriftgestaltung.Glyphs.ColorIndex = 4;
};
},
{
glyphname = E;
lastChange = "2022-04-10 15:17:06 +0000";
layers = (
{
anchors = (
{
name = bottom;
position = "{282, 0}";
},
{
name = ogonek;
position = "{522, 0}";
},
{
name = top;
position = "{282, 711}";
}
);
layerId = "A69CC389-2ECF-459C-A4E4-3168912CA6B4";
paths = (
{
closed = 1;
nodes = (
"522 708 LINE",
"50 708 LINE",
"50 0 LINE",
"522 0 LINE",
"522 177 LINE",
"272 177 LINE",
"272 277 LINE",
"492 277 LINE",
"492 444 LINE",
"272 444 LINE",
"272 531 LINE",
"522 531 LINE"
);
}
);
width = 555;
},
{
anchors = (
{
name = bottom;
position = "{262, 0}";
},
{
name = ogonek;
position = "{459, 0}";
},
{
name = top;
position = "{262, 696}";
}
);
layerId = "4D0F633C-81E1-4D6C-A640-637CE706A5C5";
paths = (
{
closed = 1;
nodes = (
"459 696 LINE",
"75 696 LINE",
"75 0 LINE",
"459 0 LINE",
"459 93 LINE",
"189 93 LINE",
"189 306 LINE",
"429 306 LINE",
"429 399 LINE",
"189 399 LINE",
"189 603 LINE",
"459 603 LINE"
);
}
);
width = 522;
}
);
leftKerningGroup = H;
leftMetricsKey = H;
rightKerningGroup = E;
unicode = 0045;
userData = {
com.schriftgestaltung.Glyphs.ColorIndex = 4;
com.typesupply.AccentFactory.yCoordinates = {
bottom = {
name = origin;
type = glyphMetric;
};
top = {
name = capHeight;
type = fontInfo;
};
};
};
},
{
glyphname = Schwa;
lastChange = "2022-02-17 13:53:55 +0000";
layers = (
{
anchors = (
{
name = top;
position = "{392, 704}";
}
);
layerId = "4D0F633C-81E1-4D6C-A640-637CE706A5C5";
paths = (
{
closed = 1;
nodes = (
"603 305 LINE SMOOTH",
"603 175 OFFCURVE",
"512 96 OFFCURVE",
"393 96 CURVE SMOOTH",
"270 96 OFFCURVE",
"185 171 OFFCURVE",
"181 284 CURVE",
"624 284 LINE",
"624 391 LINE",
"66 391 LINE",
"63 367 OFFCURVE",
"62 344 OFFCURVE",
"62 323 CURVE SMOOTH",
"62 112 OFFCURVE",
"198 -7 OFFCURVE",
"393 -7 CURVE SMOOTH",
"594 -7 OFFCURVE",
"727 139 OFFCURVE",
"727 349 CURVE SMOOTH",
"727 559 OFFCURVE",
"590 704 OFFCURVE",
"392 704 CURVE SMOOTH",
"234 704 OFFCURVE",
"118 619 OFFCURVE",
"70 485 CURVE",
"202 485 LINE",
"233 557 OFFCURVE",
"300 600 OFFCURVE",
"392 600 CURVE SMOOTH",
"517 600 OFFCURVE",
"603 507 OFFCURVE",
"603 370 CURVE SMOOTH"
);
}
);
width = 784;
},
{
anchors = (
{
name = top;
position = "{385, 727}";
}
);
layerId = "A69CC389-2ECF-459C-A4E4-3168912CA6B4";
paths = (
{
closed = 1;
nodes = (
"517 314 LINE SMOOTH",
"517 236 OFFCURVE",
"449 196 OFFCURVE",
"380 196 CURVE SMOOTH",
"314 196 OFFCURVE",
"260 233 OFFCURVE",
"256 287 CURVE",
"542 287 LINE",
"542 409 LINE",
"34 409 LINE",
"32 391 OFFCURVE",
"30 370 OFFCURVE",
"30 353 CURVE SMOOTH",
"30 131 OFFCURVE",
"170 -9 OFFCURVE",
"385 -9 CURVE SMOOTH",
"600 -9 OFFCURVE",
"743 134 OFFCURVE",
"743 359 CURVE SMOOTH",
"743 586 OFFCURVE",
"600 727 OFFCURVE",
"385 727 CURVE SMOOTH",
"204 727 OFFCURVE",
"73 611 OFFCURVE",
"44 460 CURVE",
"277 460 LINE",
"290 503 OFFCURVE",
"337 529 OFFCURVE",
"389 529 CURVE SMOOTH",
"454 529 OFFCURVE",
"517 489 OFFCURVE",
"517 399 CURVE SMOOTH"
);
}
);
width = 773;
}
);
leftKerningGroup = O;
rightKerningGroup = O;
unicode = 018F;
},
{
color = 6;
glyphname = F;
lastChange = "2022-04-10 15:17:49 +0000";
layers = (
{
layerId = "A69CC389-2ECF-459C-A4E4-3168912CA6B4";
paths = (
{
closed = 1;
nodes = (
"50 0 LINE",
"272 0 LINE",
"272 267 LINE",
"405 267 LINE",
"522 434 LINE",
"272 434 LINE",
"272 532 LINE",
"550 532 LINE",
"550 708 LINE",
"50 708 LINE"
);
}
);
width = 573;
},
{
layerId = "4D0F633C-81E1-4D6C-A640-637CE706A5C5";
paths = (
{
closed = 1;
nodes = (
"75 0 LINE",
"189 0 LINE",
"189 304 LINE",
"366 304 LINE",
"427 397 LINE",
"189 397 LINE",
"189 602 LINE",
"484 602 LINE",
"484 695 LINE",
"75 695 LINE"
);
}
);
width = 507;
}
);
leftKerningGroup = H;
leftMetricsKey = H;
rightKerningGroup = F;
unicode = 0046;
userData = {
com.schriftgestaltung.Glyphs.ColorIndex = 4;
com.typesupply.AccentFactory.yCoordinates = {
bottom = {
name = origin;
type = glyphMetric;
};
top = {
name = capHeight;
type = fontInfo;
};
};
};
},
{
color = 6;
glyphname = G;
lastChange = "2022-04-10 15:43:22 +0000";
layers = (
{
anchors = (
{
name = bottom;
position = "{377, 0}";
},
{
name = top;
position = "{377, 711}";
}
);
layerId = "A69CC389-2ECF-459C-A4E4-3168912CA6B4";
paths = (
{
closed = 1;
nodes = (
"697 617 OFFCURVE",
"576 715 OFFCURVE",
"388 715 CURVE",
"166 715 OFFCURVE",
"30 566 OFFCURVE",
"30 355 CURVE",
"30 144 OFFCURVE",
"167 -5 OFFCURVE",
"390 -5 CURVE",
"573 -5 OFFCURVE",
"673 102 OFFCURVE",
"722 187 CURVE",
"722 409 LINE",
"431 409 LINE",
"321 252 LINE",
"538 252 LINE",
"505 208 OFFCURVE",
"464 190 OFFCURVE",
"414 190 CURVE",
"305 190 OFFCURVE",
"255 245 OFFCURVE",
"255 355 CURVE",
"255 449 OFFCURVE",
"303 510 OFFCURVE",
"389 510 CURVE",
"435 510 OFFCURVE",
"467 493 OFFCURVE",
"484 466 CURVE",
"718 466 LINE"
);
}
);
width = 756;
},
{
anchors = (
{
name = bottom;
position = "{386, 0}";
},
{
name = top;
position = "{386, 696}";
}
);
layerId = "4D0F633C-81E1-4D6C-A640-637CE706A5C5";
paths = (
{
closed = 1;
nodes = (
"662 631 OFFCURVE",
"537 704 OFFCURVE",
"392 704 CURVE SMOOTH",
"196 704 OFFCURVE",
"37 557 OFFCURVE",
"37 349 CURVE SMOOTH",
"37 140 OFFCURVE",
"196 -6 OFFCURVE",
"392 -6 CURVE SMOOTH",
"579 -6 OFFCURVE",
"715 131 OFFCURVE",
"736 292 CURVE",
"736 381 LINE",
"413 381 LINE",
"353 290 LINE",
"614 290 LINE",
"597 173 OFFCURVE",
"518 97 OFFCURVE",
"392 97 CURVE SMOOTH",
"254 97 OFFCURVE",
"154 196 OFFCURVE",
"154 349 CURVE SMOOTH",
"154 502 OFFCURVE",
"254 600 OFFCURVE",
"392 600 CURVE SMOOTH",
"475 600 OFFCURVE",
"541 565 OFFCURVE",
"578 495 CURVE",
"715 495 LINE"
);
}
);
width = 775;
}
);
leftKerningGroup = O;
leftMetricsKey = O;
rightKerningGroup = G;
unicode = 0047;
userData = {
com.schriftgestaltung.Glyphs.ColorIndex = 4;
com.typemytype.robofont.layerData = {
b = {
anchors = (
{
name = top;
x = 411;
y = 683;
},
{
name = bottom;
x = 411;
y = 0;
}
);
components = (
);
contours = (
{
points = (
{
segmentType = curve;
smooth = 1;
x = 60;
y = 341;
},
{
smooth = 0;
x = 60;
y = 138;
},
{
smooth = 0;
x = 214;
y = -6;
},
{
segmentType = curve;
smooth = 1;
x = 407;
y = -6;
},
{
smooth = 0;
x = 590;
y = -6;
},
{
smooth = 0;
x = 747;
y = 110;
},
{
segmentType = curve;
smooth = 0;
x = 764;
y = 341;
},
{
segmentType = line;
smooth = 0;
x = 764;
y = 360;
},
{
segmentType = line;
smooth = 0;
x = 381;
y = 360;
},
{
segmentType = line;
smooth = 0;
x = 381;
y = 341;
},
{
segmentType = line;
smooth = 0;
x = 747;
y = 341;
},
{
smooth = 0;
x = 733;
y = 132;
},
{
smooth = 0;
x = 600;
y = 6;
},
{
segmentType = curve;
smooth = 1;
x = 407;
y = 6;
},
{
smooth = 0;
x = 226;
y = 6;
},
{
smooth = 0;
x = 80;
y = 137;
},
{
segmentType = curve;
smooth = 1;
x = 80;
y = 341;
},
{
smooth = 0;
x = 80;
y = 547;
},
{
smooth = 0;
x = 226;
y = 677;
},
{
segmentType = curve;
smooth = 1;
x = 407;
y = 677;
},
{
smooth = 0;
x = 528;
y = 677;
},
{
smooth = 0;
x = 633;
y = 618;
},
{
segmentType = curve;
smooth = 0;
x = 683;
y = 525;
},
{
segmentType = line;
smooth = 0;
x = 709;
y = 525;
},
{
smooth = 0;
x = 648;
y = 637;
},
{
smooth = 0;
x = 537;
y = 690;
},
{
segmentType = curve;
smooth = 1;
x = 407;
y = 690;
},
{
smooth = 0;
x = 214;
y = 690;
},
{
smooth = 0;
x = 60;
y = 546;
}
);
}
);
lib = {
};
name = G;
unicodes = (
);
width = 792;
};
};
com.typesupply.AccentFactory.yCoordinates = {
bottom = {
name = origin;
type = glyphMetric;
};
top = {
name = capHeight;
type = fontInfo;
};
};
};
},
{
glyphname = H;
lastChange = "2022-02-17 14:10:05 +0000";
layers = (
{
layerId = "A69CC389-2ECF-459C-A4E4-3168912CA6B4";
paths = (
{
closed = 1;
nodes = (
"50 0 LINE",
"272 0 LINE",
"272 708 LINE",
"50 708 LINE"
);
},
{
closed = 1;
nodes = (
"483 0 LINE",
"705 0 LINE",
"705 708 LINE",
"483 708 LINE"
);
},
{
closed = 1;
nodes = (
"252 276 LINE",
"505 276 LINE",
"505 453 LINE",
"252 453 LINE"
);
}
);
width = 755;
},
{
guideLines = (
{
position = "{132, 695}";
}
);
layerId = "4D0F633C-81E1-4D6C-A640-637CE706A5C5";
paths = (
{
closed = 1;
nodes = (
"75 0 LINE",
"189 0 LINE",
"189 695 LINE",
"75 695 LINE"
);
},
{
closed = 1;
nodes = (
"516 0 LINE",
"630 0 LINE",
"630 695 LINE",
"516 695 LINE"
);
},
{
closed = 1;
nodes = (
"169 304 LINE",
"543 304 LINE",
"543 397 LINE",
"169 397 LINE"
);
}
);
width = 705;
}
);
leftKerningGroup = H;
rightKerningGroup = H;
unicode = 0048;
userData = {
com.schriftgestaltung.Glyphs.ColorIndex = 4;
com.typesupply.AccentFactory.yCoordinates = {
bottom = {
name = origin;
type = glyphMetric;
};
top = {
name = capHeight;
type = fontInfo;
};
};
};
},
{
glyphname = I;
lastChange = "2022-02-17 13:53:55 +0000";
layers = (
{
anchors = (
{
name = ogonek;
position = "{272, 0}";
},
{
name = top;
position = "{162, 711}";
}
);
layerId = "A69CC389-2ECF-459C-A4E4-3168912CA6B4";
paths = (
{
closed = 1;
nodes = (
"50 0 LINE",
"272 0 LINE",
"272 708 LINE",
"50 708 LINE"
);
}
);
width = 322;
},
{
anchors = (
{
name = ogonek;
position = "{189, 1}";
},
{
name = top;
position = "{132, 696}";
}
);
layerId = "4D0F633C-81E1-4D6C-A640-637CE706A5C5";
paths = (
{
closed = 1;
nodes = (
"75 0 LINE",
"189 0 LINE",
"189 695 LINE",
"75 695 LINE"
);
}
);
width = 264;
}
);
leftKerningGroup = H;
leftMetricsKey = H;
rightKerningGroup = H;
rightMetricsKey = H;
unicode = 0049;
userData = {
com.schriftgestaltung.Glyphs.ColorIndex = 4;
com.typemytype.robofont.guides = (
{
angle = 0;
isGlobal = 0;
magnetic = 5;
x = 83;
y = 684;
}
);
com.typesupply.AccentFactory.yCoordinates = {
bottom = {
name = origin;
type = glyphMetric;
};
top = {
name = capHeight;
type = fontInfo;
};
};
};
},
{
glyphname = J;
lastChange = "2022-04-10 16:51:22 +0000";
layers = (
{
layerId = "A69CC389-2ECF-459C-A4E4-3168912CA6B4";
paths = (
{
closed = 1;
nodes = (
"318 251 LINE SMOOTH",
"318 205 OFFCURVE",
"300 193 OFFCURVE",
"276 193 CURVE SMOOTH",
"247 193 OFFCURVE",
"224 209 OFFCURVE",
"224 271 CURVE",
"5 271 LINE",
"5 85 OFFCURVE",
"120 -7 OFFCURVE",
"286 -7 CURVE SMOOTH",
"442 -7 OFFCURVE",
"539 78 OFFCURVE",
"539 251 CURVE SMOOTH",
"539 708 LINE",
"318 708 LINE"
);
}
);
width = 589;
},
{
layerId = "4D0F633C-81E1-4D6C-A640-637CE706A5C5";
paths = (
{
closed = 1;
nodes = (
"305 194 LINE SMOOTH",
"305 136 OFFCURVE",
"276 94 OFFCURVE",
"215 94 CURVE SMOOTH",
"154 94 OFFCURVE",
"126 136 OFFCURVE",
"125 194 CURVE",
"10 194 LINE",
"10 68 OFFCURVE",
"95 -7 OFFCURVE",
"215 -7 CURVE SMOOTH",
"335 -7 OFFCURVE",
"420 68 OFFCURVE",
"420 194 CURVE SMOOTH",
"420 695 LINE",
"305 695 LINE"
);
}
);
width = 495;
}
);
leftKerningGroup = J;
rightKerningGroup = J;
rightMetricsKey = H;
unicode = 004A;
userData = {
com.schriftgestaltung.Glyphs.ColorIndex = 4;
com.typesupply.AccentFactory.yCoordinates = {
bottom = {
name = origin;
type = glyphMetric;
};
top = {
name = capHeight;
type = fontInfo;
};
};
};
},
{
color = 6;
glyphname = K;
lastChange = "2022-04-10 15:20:17 +0000";
layers = (
{
anchors = (
{
name = bottom;
position = "{374, 0}";
},
{
name = top;
position = "{374, 711}";
}
);
layerId = "A69CC389-2ECF-459C-A4E4-3168912CA6B4";
paths = (
{
closed = 1;
nodes = (
"50 0 LINE",
"272 0 LINE",
"272 708 LINE",
"50 708 LINE"
);
},
{
closed = 1;
nodes = (
"272 359 LINE",
"485 0 LINE",
"742 0 LINE",
"512 375 LINE",
"488 329 LINE",
"726 708 LINE",
"479 708 LINE"
);
}
);
width = 737;
},
{
anchors = (
{
name = bottom;
position = "{317, 0}";
},
{
name = top;
position = "{317, 696}";
}
);
layerId = "4D0F633C-81E1-4D6C-A640-637CE706A5C5";
paths = (
{
closed = 1;
nodes = (
"75 0 LINE",
"189 0 LINE",
"189 695 LINE",
"75 695 LINE"
);
},
{
closed = 1;
nodes = (
"204 344 LINE",
"472 0 LINE",
"617 0 LINE",
"325 360 LINE",
"314 321 LINE",
"612 695 LINE",
"479 695 LINE"
);
}
);
width = 617;
}
);
leftKerningGroup = H;
leftMetricsKey = H;
rightKerningGroup = K;
unicode = 004B;
userData = {
com.schriftgestaltung.Glyphs.ColorIndex = 4;
com.typesupply.AccentFactory.yCoordinates = {
bottom = {
name = origin;
type = glyphMetric;
};
top = {
name = capHeight;
type = fontInfo;
};
};
};
},
{
glyphname = L;
lastChange = "2022-04-10 15:20:50 +0000";
layers = (
{
anchors = (
{
name = bottom;
position = "{265, 0}";
},
{
name = commaaccent;
position = "{265, 10}";
},
{
name = top;
position = "{231, 711}";
},
{
name = topright;
position = "{466, 711}";
}
);
layerId = "A69CC389-2ECF-459C-A4E4-3168912CA6B4";
paths = (
{
closed = 1;
nodes = (
"50 708 LINE",
"50 0 LINE",
"486 0 LINE",
"486 168 LINE",
"272 168 LINE",
"272 708 LINE"
);
}
);
width = 501;
},
{
anchors = (
{
name = bottom;
position = "{248, 0}";
},
{
name = commaaccent;
position = "{248, 10}";
},
{
name = top;
position = "{222, 696}";
},
{
name = topright;
position = "{424, 696}";
}
);
layerId = "4D0F633C-81E1-4D6C-A640-637CE706A5C5";
paths = (
{
closed = 1;
nodes = (
"75 695 LINE",
"75 0 LINE",
"424 0 LINE",
"424 92 LINE",
"189 92 LINE",
"189 695 LINE"
);
}
);
width = 434;
}
);
leftKerningGroup = H;
leftMetricsKey = H;
rightKerningGroup = L;
unicode = 004C;
userData = {
com.schriftgestaltung.Glyphs.ColorIndex = 4;
com.typesupply.AccentFactory.yCoordinates = {
bottom = {
name = origin;
type = glyphMetric;
};
top = {
name = capHeight;
type = fontInfo;
};
};
};
},
{
glyphname = Lcaron;
lastChange = "2022-02-17 13:53:55 +0000";
layers = (
{
anchors = (
{
name = _bottom;
position = "{449, 743}";
}
);
components = (
{
name = L;
}
);
layerId = "A69CC389-2ECF-459C-A4E4-3168912CA6B4";
paths = (
{
closed = 1;
nodes = (
"369 708 LINE",
"369 562 LINE",
"441 562 LINE",
"441 550 LINE SMOOTH",
"441 499 OFFCURVE",
"420 476 OFFCURVE",
"386 476 CURVE",
"386 397 LINE",
"499 397 OFFCURVE",
"550 477 OFFCURVE",
"550 574 CURVE SMOOTH",
"550 616 OFFCURVE",
"543 662 OFFCURVE",
"525 708 CURVE"
);
}
);
width = 577;
},
{
anchors = (
{
name = _bottom;
position = "{352, 741}";
}
);
components = (
{
name = L;
}
);
layerId = "4D0F633C-81E1-4D6C-A640-637CE706A5C5";
paths = (
{
closed = 1;
nodes = (
"297 695 LINE",
"297 599 LINE",
"350 599 LINE",
"350 578 LINE SMOOTH",
"350 540 OFFCURVE",
"335 521 OFFCURVE",
"302 521 CURVE",
"302 471 LINE",
"376 471 OFFCURVE",
"414 513 OFFCURVE",
"414 596 CURVE SMOOTH",
"414 625 OFFCURVE",
"410 658 OFFCURVE",
"400 695 CURVE"
);
}
);
width = 463;
}
);
leftKerningGroup = H;
rightKerningGroup = L;
unicode = 013D;
userData = {
com.schriftgestaltung.Glyphs.ColorIndex = 8;
com.typesupply.AccentFactory.compileType = manual;
};
},
{
glyphname = Lcommaaccent;
lastChange = "2022-02-17 13:53:55 +0000";
layers = (
{
anchors = (
{
name = _commaaccent;
position = "{290, 10}";
}
);
components = (
{
name = L;
}
);
layerId = "A69CC389-2ECF-459C-A4E4-3168912CA6B4";
paths = (
{
closed = 1;
nodes = (
"210 -35 LINE",
"210 -182 LINE",
"282 -182 LINE",
"282 -193 LINE SMOOTH",
"282 -245 OFFCURVE",
"262 -268 OFFCURVE",
"227 -268 CURVE",
"227 -346 LINE",
"341 -346 OFFCURVE",
"392 -266 OFFCURVE",
"392 -170 CURVE SMOOTH",
"392 -128 OFFCURVE",
"384 -82 OFFCURVE",
"366 -35 CURVE"
);
}
);
width = 511;
},
{
anchors = (
{
name = _commaaccent;
position = "{248, 0}";
}
);
components = (
{
name = L;
}
);
layerId = "4D0F633C-81E1-4D6C-A640-637CE706A5C5";
paths = (
{
closed = 1;
nodes = (
"193 -46 LINE",
"193 -142 LINE",
"246 -142 LINE",
"246 -163 LINE SMOOTH",
"246 -201 OFFCURVE",
"231 -220 OFFCURVE",
"197 -220 CURVE",
"197 -270 LINE",
"272 -270 OFFCURVE",
"310 -228 OFFCURVE",
"310 -145 CURVE SMOOTH",
"310 -116 OFFCURVE",
"306 -83 OFFCURVE",
"296 -46 CURVE"
);
}
);
width = 444;
}
);
leftKerningGroup = H;
rightKerningGroup = L;
unicode = 013B;
userData = {
com.schriftgestaltung.Glyphs.ColorIndex = 8;
com.typesupply.AccentFactory.compileType = manual;
};
},
{
glyphname = Ldot;
lastChange = "2022-04-10 14:27:39 +0000";
layers = (
{
components = (
{
name = L;
}
);
layerId = "A69CC389-2ECF-459C-A4E4-3168912CA6B4";
paths = (
{
closed = 1;
nodes = (
"464 327 OFFCURVE",
"501 364 OFFCURVE",
"501 412 CURVE SMOOTH",
"501 462 OFFCURVE",
"464 499 OFFCURVE",
"414 499 CURVE SMOOTH",
"366 499 OFFCURVE",
"329 462 OFFCURVE",
"329 412 CURVE SMOOTH",
"329 364 OFFCURVE",
"366 327 OFFCURVE",
"414 327 CURVE SMOOTH"
);
}
);
width = 506;
},
{
components = (
{
name = L;
}
);
layerId = "4D0F633C-81E1-4D6C-A640-637CE706A5C5";
paths = (
{
closed = 1;
nodes = (
"385 315 OFFCURVE",
"412 341 OFFCURVE",
"412 375 CURVE SMOOTH",
"412 408 OFFCURVE",
"385 435 OFFCURVE",
"352 435 CURVE SMOOTH",
"318 435 OFFCURVE",
"292 408 OFFCURVE",
"292 375 CURVE SMOOTH",
"292 341 OFFCURVE",
"318 315 OFFCURVE",
"352 315 CURVE SMOOTH"
);
}
);
width = 444;
}
);
leftKerningGroup = H;
rightKerningGroup = L;
unicode = 013F;
},
{
glyphname = Lslash;
lastChange = "2022-04-10 14:28:21 +0000";
layers = (
{
components = (
{
name = L;
transform = "{1, 0, 0, 1, 15, 0}";
}
);
layerId = "A69CC389-2ECF-459C-A4E4-3168912CA6B4";
paths = (
{
closed = 1;
nodes = (
"10 241 LINE",
"362 338 LINE",
"362 534 LINE",
"10 437 LINE"
);
}
);
width = 521;
},
{
components = (
{
name = L;
transform = "{1, 0, 0, 1, 12, 0}";
}
);
layerId = "4D0F633C-81E1-4D6C-A640-637CE706A5C5";
paths = (
{
closed = 1;
nodes = (
"9 267 LINE",
"293 359 LINE",
"293 446 LINE",
"9 353 LINE"
);
}
);
width = 444;
}
);
leftKerningGroup = H;
rightKerningGroup = L;
unicode = 0141;
userData = {
com.schriftgestaltung.Glyphs.ColorIndex = 4;
};
},
{
color = 6;
glyphname = M;
lastChange = "2022-04-10 15:22:25 +0000";
layers = (
{
layerId = "A69CC389-2ECF-459C-A4E4-3168912CA6B4";
paths = (
{
closed = 1;
nodes = (
"50 0 LINE",
"272 0 LINE",
"272 579 LINE",
"267 564 LINE",
"391 0 LINE",
"561 0 LINE",
"685 564 LINE",
"680 579 LINE",
"680 0 LINE",
"901 0 LINE",
"901 708 LINE",
"557 708 LINE",
"437 149 LINE",
"515 149 LINE",
"396 708 LINE",
"50 708 LINE"
);
}
);
width = 951;
},
{
layerId = "4D0F633C-81E1-4D6C-A640-637CE706A5C5";
paths = (
{
closed = 1;
nodes = (
"75 0 LINE",
"189 0 LINE",
"189 661 LINE",
"182 661 LINE",
"402 0 LINE",
"481 0 LINE",
"699 661 LINE",
"693 661 LINE",
"693 0 LINE",
"807 0 LINE",
"807 695 LINE",
"604 695 LINE",
"419 104 LINE",
"464 104 LINE",
"277 695 LINE",
"75 695 LINE"
);
}
);
width = 882;
}
);
leftKerningGroup = M;
leftMetricsKey = H;
rightKerningGroup = M;
rightMetricsKey = H;
unicode = 004D;
userData = {
com.schriftgestaltung.Glyphs.ColorIndex = 4;
com.typesupply.AccentFactory.yCoordinates = {
bottom = {
name = origin;
type = glyphMetric;
};
top = {
name = capHeight;
type = fontInfo;
};
};
};
},
{
color = 6;
glyphname = N;
lastChange = "2022-04-10 15:24:36 +0000";
layers = (
{
anchors = (
{
name = bottom;
position = "{389, 0}";
},
{
name = top;
position = "{389, 711}";
}
);
guideLines = (
{
position = "{10, 540}";
}
);
layerId = "A69CC389-2ECF-459C-A4E4-3168912CA6B4";
paths = (
{
closed = 1;
nodes = (
"407 708 LINE",
"228 708 LINE",
"374 0 LINE",
"552 0 LINE"
);
},
{
closed = 1;
nodes = (
"729 0 LINE",
"729 708 LINE",
"507 708 LINE",
"507 0 LINE"
);
},
{
closed = 1;
nodes = (
"50 708 LINE",
"50 0 LINE",
"272 0 LINE",
"272 708 LINE"
);
}
);
width = 779;
},
{
anchors = (
{
name = bottom;
position = "{361, 0}";
},
{
name = top;
position = "{361, 696}";
}
);
layerId = "4D0F633C-81E1-4D6C-A640-637CE706A5C5";
paths = (
{
closed = 1;
nodes = (
"271 696 LINE",
"161 696 LINE",
"460 0 LINE",
"571 0 LINE"
);
},
{
closed = 1;
nodes = (
"646 0 LINE",
"646 696 LINE",
"532 696 LINE",
"532 0 LINE"
);
},
{
closed = 1;
nodes = (
"75 696 LINE",
"75 0 LINE",
"189 0 LINE",
"189 696 LINE"
);
}
);
width = 721;
}
);
leftKerningGroup = H;
leftMetricsKey = H;
rightKerningGroup = H;
rightMetricsKey = H;
unicode = 004E;
userData = {
com.schriftgestaltung.Glyphs.ColorIndex = 4;
com.typesupply.AccentFactory.yCoordinates = {
bottom = {
name = origin;
type = glyphMetric;
};
top = {
name = capHeight;
type = fontInfo;
};
};
};
},
{
glyphname = O;
lastChange = "2022-04-10 16:48:17 +0000";
layers = (
{
anchors = (
{
name = top;
position = "{395, 711}";
}
);
layerId = "A69CC389-2ECF-459C-A4E4-3168912CA6B4";
paths = (
{
closed = 1;
nodes = (
"595 -7 OFFCURVE",
"758 144 OFFCURVE",
"758 357 CURVE SMOOTH",
"758 570 OFFCURVE",
"597 720 OFFCURVE",
"395 720 CURVE SMOOTH",
"194 720 OFFCURVE",
"30 570 OFFCURVE",
"30 357 CURVE SMOOTH",
"30 144 OFFCURVE",
"194 -7 OFFCURVE",
"395 -7 CURVE SMOOTH"
);
},
{
closed = 1;
nodes = (
"304 200 OFFCURVE",
"256 263 OFFCURVE",
"256 357 CURVE SMOOTH",
"256 453 OFFCURVE",
"304 515 OFFCURVE",
"395 515 CURVE SMOOTH",
"484 515 OFFCURVE",
"533 453 OFFCURVE",
"533 357 CURVE SMOOTH",
"533 263 OFFCURVE",
"484 200 OFFCURVE",
"395 200 CURVE SMOOTH"
);
}
);
width = 788;
},
{
anchors = (
{
name = top;
position = "{392, 696}";
}
);
layerId = "4D0F633C-81E1-4D6C-A640-637CE706A5C5";
paths = (
{
closed = 1;
nodes = (
"590 -7 OFFCURVE",
"747 140 OFFCURVE",
"747 349 CURVE SMOOTH",
"747 557 OFFCURVE",
"590 704 OFFCURVE",
"392 704 CURVE SMOOTH",
"196 704 OFFCURVE",
"37 557 OFFCURVE",
"37 349 CURVE SMOOTH",
"37 140 OFFCURVE",
"196 -7 OFFCURVE",
"392 -7 CURVE SMOOTH"
);
},
{
closed = 1;
nodes = (
"254 92 OFFCURVE",
"154 192 OFFCURVE",
"154 349 CURVE SMOOTH",
"154 506 OFFCURVE",
"254 604 OFFCURVE",
"392 604 CURVE SMOOTH",
"530 604 OFFCURVE",
"630 506 OFFCURVE",
"630 349 CURVE SMOOTH",
"630 192 OFFCURVE",
"530 92 OFFCURVE",
"392 92 CURVE SMOOTH"
);
}
);
width = 784;
}
);
leftKerningGroup = O;
rightKerningGroup = O;
unicode = 004F;
userData = {
com.schriftgestaltung.Glyphs.ColorIndex = 4;
com.typemytype.robofont.layerData = {
b = {
anchors = (
{
name = top;
x = 407;
y = 683;
}
);
components = (
);
contours = (
{
points = (
{
segmentType = curve;
smooth = 1;
x = 60;
y = 341;
},
{
smooth = 0;
x = 60;
y = 138;
},
{
smooth = 0;
x = 214;
y = -7;
},
{
segmentType = curve;
smooth = 1;
x = 407;
y = -7;
},
{
smooth = 0;
x = 601;
y = -7;
},
{
smooth = 0;
x = 754;
y = 138;
},
{
segmentType = curve;
smooth = 1;
x = 754;
y = 341;
},
{
smooth = 0;
x = 754;
y = 546;
},
{
smooth = 0;
x = 601;
y = 690;
},
{
segmentType = curve;
smooth = 1;
x = 407;
y = 690;
},
{
smooth = 0;
x = 214;
y = 690;
},
{
smooth = 0;
x = 60;
y = 546;
}
);
},
{
points = (
{
segmentType = curve;
smooth = 1;
x = 733;
y = 341;
},
{
smooth = 0;
x = 733;
y = 137;
},
{
smooth = 0;
x = 588;
y = 4;
},
{
segmentType = curve;
smooth = 1;
x = 407;
y = 4;
},
{
smooth = 0;
x = 226;
y = 4;
},
{
smooth = 0;
x = 80;
y = 137;
},
{
segmentType = curve;
smooth = 1;
x = 80;
y = 341;
},
{
smooth = 0;
x = 80;
y = 547;
},
{
smooth = 0;
x = 226;
y = 677;
},
{
segmentType = curve;
smooth = 1;
x = 407;
y = 677;
},
{
smooth = 0;
x = 588;
y = 677;
},
{
smooth = 0;
x = 733;
y = 547;
}
);
}
);
lib = {
};
name = O;
unicodes = (
);
width = 792;
};
};
com.typesupply.AccentFactory.yCoordinates = {
bottom = {
name = origin;
type = glyphMetric;
};
top = {
name = capHeight;
type = fontInfo;
};
};
};
},
{
glyphname = Oslash;
lastChange = "2022-02-17 13:53:55 +0000";
layers = (
{
components = (
{
name = O;
transform = "{1, 0, 0, 1, -1, 0}";
}
);
layerId = "A69CC389-2ECF-459C-A4E4-3168912CA6B4";
paths = (
{
closed = 1;
nodes = (
"18 1 LINE",
"134 1 LINE",
"769 712 LINE",
"654 712 LINE"
);
}
);
width = 788;
},
{
components = (
{
name = O;
}
);
layerId = "4D0F633C-81E1-4D6C-A640-637CE706A5C5";
paths = (
{
closed = 1;
nodes = (
"26 0 LINE",
"117 0 LINE",
"758 696 LINE",
"667 696 LINE"
);
}
);
width = 784;
}
);
leftKerningGroup = O;
rightKerningGroup = O;
unicode = 00D8;
userData = {
com.schriftgestaltung.Glyphs.ColorIndex = 4;
};
},
{
glyphname = OE;
lastChange = "2022-04-10 17:18:39 +0000";
layers = (
{
layerId = "A69CC389-2ECF-459C-A4E4-3168912CA6B4";
paths = (
{
closed = 1;
nodes = (
"1015 532 LINE",
"1015 708 LINE",
"543 708 LINE",
"543 671 LINE",
"499 704 OFFCURVE",
"437 720 OFFCURVE",
"378 720 CURVE SMOOTH",
"176 720 OFFCURVE",
"30 568.76 OFFCURVE",
"30 354 CURVE",
"30 139.24 OFFCURVE",
"176 -12 OFFCURVE",
"378 -12 CURVE SMOOTH",
"437 -9 OFFCURVE",
"499 4 OFFCURVE",
"543 37 CURVE",
"543 0 LINE",
"1015 0 LINE",
"1015 177 LINE",
"765 177 LINE",
"765 277 LINE",
"985 277 LINE",
"985 444 LINE",
"765 444 LINE",
"765 532 LINE"
);
},
{
closed = 1;
nodes = (
"256 451.823 OFFCURVE",
"304 515 OFFCURVE",
"395 515 CURVE SMOOTH",
"484 515 OFFCURVE",
"533 451.823 OFFCURVE",
"533 354 CURVE",
"533 256.177 OFFCURVE",
"484 193 OFFCURVE",
"395 193 CURVE SMOOTH",
"304 193 OFFCURVE",
"256 256.177 OFFCURVE",
"256 354 CURVE"
);
}
);
width = 1048;
},
{
layerId = "4D0F633C-81E1-4D6C-A640-637CE706A5C5";
paths = (
{
closed = 1;
nodes = (
"1014 606 LINE",
"1014 695 LINE",
"630 695 LINE",
"630 589 LINE",
"572 665 OFFCURVE",
"487 704 OFFCURVE",
"382 704 CURVE SMOOTH",
"197 704 OFFCURVE",
"37 559 OFFCURVE",
"37 349 CURVE SMOOTH",
"37 140 OFFCURVE",
"196 -7 OFFCURVE",
"383 -7 CURVE SMOOTH",
"487 -7 OFFCURVE",
"572 32 OFFCURVE",
"630 111 CURVE",
"630 0 LINE",
"1014 0 LINE",
"1014 89 LINE",
"744 89 LINE",
"744 307 LINE",
"984 307 LINE",
"984 395 LINE",
"744 395 LINE",
"744 606 LINE"
);
},
{
closed = 1;
nodes = (
"154 502 OFFCURVE",
"254 600 OFFCURVE",
"392 600 CURVE SMOOTH",
"530 600 OFFCURVE",
"630 502 OFFCURVE",
"630 349 CURVE SMOOTH",
"630 196 OFFCURVE",
"530 96 OFFCURVE",
"392 96 CURVE SMOOTH",
"254 96 OFFCURVE",
"154 196 OFFCURVE",
"154 349 CURVE SMOOTH"
);
}
);
width = 1077;
}
);
leftKerningGroup = O;
leftMetricsKey = O;
rightKerningGroup = E;
rightMetricsKey = E;
unicode = 0152;
userData = {
com.schriftgestaltung.Glyphs.ColorIndex = 4;
com.typesupply.AccentFactory.yCoordinates = {
bottom = {
name = origin;
type = glyphMetric;
};
top = {
name = capHeight;
type = fontInfo;
};
};
};
},
{
glyphname = P;
lastChange = "2022-02-17 13:53:55 +0000";
layers = (
{
layerId = "A69CC389-2ECF-459C-A4E4-3168912CA6B4";
paths = (
{
closed = 1;
nodes = (
"272 400 LINE",
"272 530 LINE",
"335 530 LINE SMOOTH",
"385 530 OFFCURVE",
"404 504 OFFCURVE",
"404 465 CURVE",
"404 426 OFFCURVE",
"385 400 OFFCURVE",
"335 400 CURVE"
);
},
{
closed = 1;
nodes = (
"629 465 CURVE",
"629 607.88 OFFCURVE",
"538 708 OFFCURVE",
"360 708 CURVE SMOOTH",
"50 708 LINE",
"50 0 LINE",
"272 0 LINE",
"272 225 LINE",
"360 225 LINE SMOOTH",
"538 225 OFFCURVE",
"629 334 OFFCURVE"
);
}
);
width = 649;
},
{
layerId = "4D0F633C-81E1-4D6C-A640-637CE706A5C5";
paths = (
{
closed = 1;
nodes = (
"189 375 LINE",
"189 602 LINE",
"315 602 LINE SMOOTH",
"404 602 OFFCURVE",
"444 560 OFFCURVE",
"444 488 CURVE SMOOTH",
"444 418 OFFCURVE",
"404 375 OFFCURVE",
"315 375 CURVE SMOOTH"
);
},
{
closed = 1;
nodes = (
"561 488 CURVE SMOOTH",
"561 601 OFFCURVE",
"480 695 OFFCURVE",
"315 695 CURVE SMOOTH",
"75 695 LINE",
"75 0 LINE",
"189 0 LINE",
"189 282 LINE",
"315 282 LINE SMOOTH",
"496 282 OFFCURVE",
"561 389 OFFCURVE"
);
}
);
width = 595;
}
);
leftKerningGroup = H;
leftMetricsKey = H;
rightKerningGroup = P;
unicode = 0050;
userData = {
com.schriftgestaltung.Glyphs.ColorIndex = 4;
com.typesupply.AccentFactory.yCoordinates = {
bottom = {
name = origin;
type = glyphMetric;
};
top = {
name = capHeight;
type = fontInfo;
};
};
};
},
{
glyphname = Thorn;
lastChange = "2022-02-17 13:53:55 +0000";
layers = (
{
layerId = "A69CC389-2ECF-459C-A4E4-3168912CA6B4";
paths = (
{
closed = 1;
nodes = (
"272 290 LINE",
"272 420 LINE",
"335 420 LINE SMOOTH",
"385 420 OFFCURVE",
"404 394 OFFCURVE",
"404 355 CURVE",
"404 316 OFFCURVE",
"385 290 OFFCURVE",
"335 290 CURVE"
);
},
{
closed = 1;
nodes = (
"629 355 CURVE",
"629 492 OFFCURVE",
"538 588 OFFCURVE",
"360 588 CURVE SMOOTH",
"270 588 LINE",
"270 708 LINE",
"50 708 LINE",
"50 0 LINE",
"272 0 LINE",
"272 125 LINE",
"360 125 LINE SMOOTH",
"538 125 OFFCURVE",
"629 229 OFFCURVE"
);
}
);
width = 649;
},
{
layerId = "4D0F633C-81E1-4D6C-A640-637CE706A5C5";
paths = (
{
closed = 1;
nodes = (
"189 231 LINE",
"189 466 LINE",
"315 466 LINE SMOOTH",
"404 466 OFFCURVE",
"444 419 OFFCURVE",
"444 348 CURVE SMOOTH",
"444 278 OFFCURVE",
"404 231 OFFCURVE",
"315 231 CURVE SMOOTH"
);
},
{
closed = 1;
nodes = (
"561 348 CURVE SMOOTH",
"561 461 OFFCURVE",
"480 555 OFFCURVE",
"315 555 CURVE SMOOTH",
"188 555 LINE",
"188 696 LINE",
"75 696 LINE",
"75 0 LINE",
"189 0 LINE",
"189 142 LINE",
"315 142 LINE SMOOTH",
"496 142 OFFCURVE",
"561 249 OFFCURVE"
);
}
);
width = 595;
}
);
leftKerningGroup = H;
rightKerningGroup = Thorn;
unicode = 00DE;
userData = {
com.schriftgestaltung.Glyphs.ColorIndex = 4;
};
},
{
color = 6;
glyphname = Q;
lastChange = "2022-04-10 16:42:10 +0000";
layers = (
{
components = (
{
name = O;
}
);
layerId = "A69CC389-2ECF-459C-A4E4-3168912CA6B4";
paths = (
{
closed = 1;
nodes = (
"290 366 LINE",
"580 -115 LINE",
"772 -115 LINE",
"459 366 LINE"
);
}
);
width = 788;
},
{
components = (
{
name = O;
}
);
layerId = "4D0F633C-81E1-4D6C-A640-637CE706A5C5";
paths = (
{
closed = 1;
nodes = (
"310 347 LINE",
"617 -96 LINE",
"746 -96 LINE",
"439 347 LINE"
);
}
);
width = 787;
}
);
leftKerningGroup = O;
leftMetricsKey = O;
rightKerningGroup = O;
unicode = 0051;
userData = {
com.schriftgestaltung.Glyphs.ColorIndex = 4;
com.typesupply.AccentFactory.yCoordinates = {
bottom = {
name = origin;
type = glyphMetric;
};
top = {
name = capHeight;
type = fontInfo;
};
};
};
},
{
glyphname = R;
lastChange = "2022-04-10 15:26:15 +0000";
layers = (
{
anchors = (
{
name = bottom;
position = "{325, 0}";
},
{
name = top;
position = "{325, 711}";
}
);
layerId = "A69CC389-2ECF-459C-A4E4-3168912CA6B4";
paths = (
{
closed = 1;
nodes = (
"424 462 CURVE SMOOTH",
"424 420 OFFCURVE",
"402 402 OFFCURVE",
"360 402 CURVE SMOOTH",
"272 402 LINE",
"272 522 LINE",
"360 522 LINE SMOOTH",
"402 522 OFFCURVE",
"424 498 OFFCURVE"
);
},
{
closed = 1;
nodes = (
"50 708 LINE",
"50 0 LINE",
"272 0 LINE",
"272 254 LINE",
"380 254 LINE",
"558 254 OFFCURVE",
"649 352 OFFCURVE",
"649 476 CURVE",
"649 605.586 OFFCURVE",
"558 708 OFFCURVE",
"380 708 CURVE SMOOTH"
);
},
{
closed = 1;
nodes = (
"251 295 LINE",
"406 0 LINE",
"650 0 LINE",
"482 295 LINE"
);
}
);
width = 675;
},
{
anchors = (
{
name = bottom;
position = "{316, 0}";
},
{
name = top;
position = "{316, 696}";
}
);
layerId = "4D0F633C-81E1-4D6C-A640-637CE706A5C5";
paths = (
{
closed = 1;
nodes = (
"444 487 CURVE SMOOTH",
"444 418 OFFCURVE",
"404 369 OFFCURVE",
"315 369 CURVE SMOOTH",
"189 369 LINE",
"189 602 LINE",
"315 602 LINE SMOOTH",
"404 602 OFFCURVE",
"444 557 OFFCURVE"
);
},
{
closed = 1;
nodes = (
"75 695 LINE",
"75 0 LINE",
"189 0 LINE",
"189 278 LINE",
"315 278 LINE SMOOTH",
"496 278 OFFCURVE",
"561 388 OFFCURVE",
"561 487 CURVE SMOOTH",
"561 600 OFFCURVE",
"480 695 OFFCURVE",
"315 695 CURVE SMOOTH"
);
},
{
closed = 1;
nodes = (
"255 315 LINE",
"436 0 LINE",
"572 0 LINE",
"384 315 LINE"
);
}
);
width = 617;
}
);
leftKerningGroup = H;
leftMetricsKey = H;
rightKerningGroup = R;
unicode = 0052;
userData = {
com.schriftgestaltung.Glyphs.ColorIndex = 4;
com.typesupply.AccentFactory.yCoordinates = {
bottom = {
name = origin;
type = glyphMetric;
};
top = {
name = capHeight;
type = fontInfo;
};
};
};
},
{
glyphname = Rcommaaccent;
lastChange = "2022-02-17 13:53:55 +0000";
layers = (
{
anchors = (
{
name = _bottom;
position = "{350, 0}";
}
);
components = (
{
name = R;
}
);
layerId = "A69CC389-2ECF-459C-A4E4-3168912CA6B4";
paths = (
{
closed = 1;
nodes = (
"270 -35 LINE",
"270 -182 LINE",
"342 -182 LINE",
"342 -193 LINE SMOOTH",
"342 -245 OFFCURVE",
"322 -268 OFFCURVE",
"287 -268 CURVE",
"287 -346 LINE",
"401 -346 OFFCURVE",
"452 -266 OFFCURVE",
"452 -170 CURVE SMOOTH",
"452 -128 OFFCURVE",
"444 -82 OFFCURVE",
"426 -35 CURVE"
);
}
);
width = 701;
},
{
anchors = (
{
name = _bottom;
position = "{316, 0}";
}
);
components = (
{
name = R;
}
);
layerId = "4D0F633C-81E1-4D6C-A640-637CE706A5C5";
paths = (
{
closed = 1;
nodes = (
"262 -46 LINE",
"262 -142 LINE",
"314 -142 LINE",
"314 -163 LINE SMOOTH",
"314 -201 OFFCURVE",
"299 -220 OFFCURVE",
"266 -220 CURVE",
"266 -270 LINE",
"340 -270 OFFCURVE",
"378 -228 OFFCURVE",
"378 -145 CURVE SMOOTH",
"378 -116 OFFCURVE",
"374 -83 OFFCURVE",
"365 -46 CURVE"
);
}
);
width = 632;
}
);
leftKerningGroup = H;
rightKerningGroup = R;
unicode = 0156;
userData = {
com.schriftgestaltung.Glyphs.ColorIndex = 8;
com.typesupply.AccentFactory.compileType = manual;
};
},
{
glyphname = S;
lastChange = "2022-04-10 16:49:51 +0000";
layers = (
{
anchors = (
{
name = bottom;
position = "{313, 0}";
},
{
name = top;
position = "{313, 711}";
}
);
background = {
paths = (
{
closed = 1;
nodes = (
"268 513 CURVE SMOOTH",
"268 537 OFFCURVE",
"282 547 OFFCURVE",
"300 547 CURVE SMOOTH",
"321 547 OFFCURVE",
"342 536 OFFCURVE",
"346 491 CURVE",
"585 491 LINE",
"575 641 OFFCURVE",
"469 720 OFFCURVE",
"301 720 CURVE SMOOTH",
"150 720 OFFCURVE",
"30 646 OFFCURVE",
"30 504 CURVE",
"30 253 OFFCURVE",
"360 297 OFFCURVE",
"360 201 CURVE SMOOTH",
"360 177 OFFCURVE",
"344 166 OFFCURVE",
"322 166 CURVE SMOOTH",
"300 166 OFFCURVE",
"272 175 OFFCURVE",
"268 227 CURVE",
"32 227 LINE",
"42 68 OFFCURVE",
"169 -7 OFFCURVE",
"331 -7 CURVE SMOOTH",
"502 -7 OFFCURVE",
"597 89 OFFCURVE",
"597 209 CURVE SMOOTH",
"597 457 OFFCURVE",
"268 422 OFFCURVE"
);
}
);
};
layerId = "A69CC389-2ECF-459C-A4E4-3168912CA6B4";
paths = (
{
closed = 1;
nodes = (
"498 -7 OFFCURVE",
"597 89 OFFCURVE",
"597 219 CURVE SMOOTH",
"597 437 OFFCURVE",
"268 422 OFFCURVE",
"268 511 CURVE SMOOTH",
"268 535 OFFCURVE",
"282 547 OFFCURVE",
"300 547 CURVE SMOOTH",
"324 547 OFFCURVE",
"347 534 OFFCURVE",
"349 491 CURVE",
"588 491 LINE",
"582 638 OFFCURVE",
"472 720 OFFCURVE",
"301 720 CURVE SMOOTH",
"150 720 OFFCURVE",
"30 646 OFFCURVE",
"30 504 CURVE",
"26 262 OFFCURVE",
"360 297 OFFCURVE",
"361 201 CURVE SMOOTH",
"361 176 OFFCURVE",
"340 166 OFFCURVE",
"318 166 CURVE SMOOTH",
"296 166 OFFCURVE",
"268 175 OFFCURVE",
"264 227 CURVE",
"28 227 LINE",
"38 68 OFFCURVE",
"165 -7 OFFCURVE",
"327 -7 CURVE SMOOTH"
);
}
);
width = 625;
},
{
anchors = (
{
name = bottom;
position = "{304, -7}";
},
{
name = top;
position = "{299, 704}";
}
);
layerId = "4D0F633C-81E1-4D6C-A640-637CE706A5C5";
paths = (
{
closed = 1;
nodes = (
"459 -7 OFFCURVE",
"544 93 OFFCURVE",
"544 197 CURVE SMOOTH",
"544 451 OFFCURVE",
"176 353 OFFCURVE",
"176 510 CURVE SMOOTH",
"176 577 OFFCURVE",
"227 609 OFFCURVE",
"293 607 CURVE SMOOTH",
"365 605 OFFCURVE",
"406 562 OFFCURVE",
"410 515 CURVE",
"536 515 LINE",
"526 634 OFFCURVE",
"432 704 OFFCURVE",
"299 704 CURVE SMOOTH",
"157 704 OFFCURVE",
"60 628 OFFCURVE",
"60 506 CURVE SMOOTH",
"60 250 OFFCURVE",
"429 359 OFFCURVE",
"429 191 CURVE SMOOTH",
"429 132 OFFCURVE",
"384 89 OFFCURVE",
"304 89 CURVE SMOOTH",
"225 89 OFFCURVE",
"185 135 OFFCURVE",
"180 192 CURVE",
"58 192 LINE",
"58 69 OFFCURVE",
"165 -7 OFFCURVE",
"304 -7 CURVE SMOOTH"
);
}
);
width = 602;
}
);
leftKerningGroup = S;
rightKerningGroup = S;
unicode = 0053;
userData = {
com.schriftgestaltung.Glyphs.ColorIndex = 4;
com.typesupply.AccentFactory.yCoordinates = {
bottom = {
name = origin;
type = glyphMetric;
};
top = {
name = capHeight;
type = fontInfo;
};
};
};
},
{
glyphname = Scommaaccent;
lastChange = "2022-02-17 13:53:55 +0000";
layers = (
{
anchors = (
{
name = _bottom;
position = "{343, 0}";
}
);
components = (
{
name = S;
}
);
layerId = "A69CC389-2ECF-459C-A4E4-3168912CA6B4";
paths = (
{
closed = 1;
nodes = (
"263 -35 LINE",
"263 -182 LINE",
"335 -182 LINE",
"335 -193 LINE SMOOTH",
"335 -245 OFFCURVE",
"315 -268 OFFCURVE",
"280 -268 CURVE",
"280 -346 LINE",
"394 -346 OFFCURVE",
"445 -266 OFFCURVE",
"445 -170 CURVE SMOOTH",
"445 -128 OFFCURVE",
"437 -82 OFFCURVE",
"419 -35 CURVE"
);
}
);
width = 685;
},
{
anchors = (
{
name = _bottom;
position = "{303, 0}";
}
);
components = (
{
name = S;
}
);
layerId = "4D0F633C-81E1-4D6C-A640-637CE706A5C5";
paths = (
{
closed = 1;
nodes = (
"248 -46 LINE",
"248 -142 LINE",
"301 -142 LINE",
"301 -163 LINE SMOOTH",
"301 -201 OFFCURVE",
"286 -220 OFFCURVE",
"252 -220 CURVE",
"252 -270 LINE",
"327 -270 OFFCURVE",
"365 -228 OFFCURVE",
"365 -145 CURVE SMOOTH",
"365 -116 OFFCURVE",
"361 -83 OFFCURVE",
"351 -46 CURVE"
);
}
);
width = 604;
}
);
leftKerningGroup = S;
rightKerningGroup = S;
unicode = 0218;
userData = {
com.schriftgestaltung.Glyphs.ColorIndex = 8;
com.typesupply.AccentFactory.compileType = manual;
};
},
{
glyphname = T;
lastChange = "2022-04-10 16:46:03 +0000";
layers = (
{
anchors = (
{
name = bottom;
position = "{300, 0}";
},
{
name = top;
position = "{300, 711}";
}
);
layerId = "A69CC389-2ECF-459C-A4E4-3168912CA6B4";
paths = (
{
closed = 1;
nodes = (
"7 532 LINE",
"193 532 LINE",
"193 0 LINE",
"415 0 LINE",
"415 532 LINE",
"603 532 LINE",
"603 708 LINE",
"7 708 LINE"
);
}
);
width = 610;
},
{
anchors = (
{
name = bottom;
position = "{271, 0}";
},
{
name = top;
position = "{273, 696}";
}
);
layerId = "4D0F633C-81E1-4D6C-A640-637CE706A5C5";
paths = (
{
closed = 1;
nodes = (
"30 602 LINE",
"216 602 LINE",
"216 0 LINE",
"330 0 LINE",
"330 602 LINE",
"515 602 LINE",
"515 695 LINE",
"30 695 LINE"
);
}
);
width = 545;
}
);
leftKerningGroup = T;
rightKerningGroup = T;
unicode = 0054;
userData = {
com.schriftgestaltung.Glyphs.ColorIndex = 4;
com.typesupply.AccentFactory.yCoordinates = {
bottom = {
name = origin;
type = glyphMetric;
};
top = {
name = capHeight;
type = fontInfo;
};
};
};
},
{
glyphname = Tcedilla;
lastChange = "2022-04-10 17:19:46 +0000";
layers = (
{
background = {
paths = (
{
closed = 1;
nodes = (
"10 532 LINE",
"196 532 LINE",
"196 -75 LINE",
"301 -75 LINE SMOOTH",
"317 -75 OFFCURVE",
"322 -80 OFFCURVE",
"322 -90 CURVE SMOOTH",
"322 -100 OFFCURVE",
"317 -106 OFFCURVE",
"301 -106 CURVE SMOOTH",
"151 -106 LINE",
"151 -219 LINE",
"319 -219 LINE",
"386 -219 OFFCURVE",
"469 -192 OFFCURVE",
"469 -97 CURVE",
"469 -47 OFFCURVE",
"446 -16 OFFCURVE",
"393 18 CURVE",
"418 -28 LINE",
"418 532 LINE",
"606 532 LINE",
"606 708 LINE",
"10 708 LINE"
);
}
);
};
components = (
{
name = T;
}
);
layerId = "A69CC389-2ECF-459C-A4E4-3168912CA6B4";
width = 610;
},
{
background = {
paths = (
{
closed = 1;
nodes = (
"39 606 LINE",
"225 606 LINE",
"225 -68 LINE",
"310 -68 LINE SMOOTH",
"344 -68 OFFCURVE",
"361 -81 OFFCURVE",
"361 -107 CURVE SMOOTH",
"361 -133 OFFCURVE",
"344 -145 OFFCURVE",
"310 -145 CURVE SMOOTH",
"166 -145 LINE",
"166 -217 LINE",
"328 -217 LINE SMOOTH",
"403 -217 OFFCURVE",
"455 -175 OFFCURVE",
"455 -107 CURVE SMOOTH",
"455 -34 OFFCURVE",
"396 4 OFFCURVE",
"311 -1 CURVE",
"339 -21 LINE",
"339 606 LINE",
"524 606 LINE",
"524 695 LINE",
"39 695 LINE"
);
}
);
};
components = (
{
name = T;
}
);
layerId = "4D0F633C-81E1-4D6C-A640-637CE706A5C5";
width = 545;
}
);
leftKerningGroup = T;
rightKerningGroup = T;
unicode = 0162;
userData = {
com.schriftgestaltung.Glyphs.ColorIndex = 8;
};
},
{
glyphname = Tcommaaccent;
lastChange = "2022-02-17 13:53:55 +0000";
layers = (
{
components = (
{
name = T;
}
);
layerId = "A69CC389-2ECF-459C-A4E4-3168912CA6B4";
paths = (
{
closed = 1;
nodes = (
"229 -35 LINE",
"229 -182 LINE",
"301 -182 LINE",
"301 -193 LINE SMOOTH",
"301 -245 OFFCURVE",
"280 -268 OFFCURVE",
"246 -268 CURVE",
"246 -346 LINE",
"359 -346 OFFCURVE",
"410 -266 OFFCURVE",
"410 -170 CURVE SMOOTH",
"410 -128 OFFCURVE",
"403 -82 OFFCURVE",
"385 -35 CURVE"
);
}
);
width = 616;
},
{
components = (
{
name = T;
}
);
layerId = "4D0F633C-81E1-4D6C-A640-637CE706A5C5";
paths = (
{
closed = 1;
nodes = (
"228 -46 LINE",
"228 -142 LINE",
"281 -142 LINE",
"281 -163 LINE SMOOTH",
"281 -201 OFFCURVE",
"265 -220 OFFCURVE",
"232 -220 CURVE",
"232 -270 LINE",
"306 -270 OFFCURVE",
"344 -228 OFFCURVE",
"344 -145 CURVE SMOOTH",
"344 -116 OFFCURVE",
"340 -83 OFFCURVE",
"331 -46 CURVE"
);
}
);
width = 564;
}
);
leftKerningGroup = T;
rightKerningGroup = T;
unicode = 021A;
userData = {
com.schriftgestaltung.Glyphs.ColorIndex = 8;
com.typesupply.AccentFactory.compileType = manual;
};
},
{
glyphname = U;
lastChange = "2022-04-10 16:46:30 +0000";
layers = (
{
anchors = (
{
name = ogonek;
position = "{448, 3}";
},
{
name = top;
position = "{359, 711}";
}
);
layerId = "A69CC389-2ECF-459C-A4E4-3168912CA6B4";
paths = (
{
closed = 1;
nodes = (
"45 309 LINE SMOOTH",
"45 100 OFFCURVE",
"175 -7 OFFCURVE",
"352 -7 CURVE SMOOTH",
"529 -7 OFFCURVE",
"672 100 OFFCURVE",
"672 309 CURVE SMOOTH",
"672 708 LINE",
"451 708 LINE",
"451 309 LINE SMOOTH",
"451 248 OFFCURVE",
"424 203 OFFCURVE",
"357 203 CURVE SMOOTH",
"290 203 OFFCURVE",
"266 248 OFFCURVE",
"266 309 CURVE SMOOTH",
"266 708 LINE",
"45 708 LINE"
);
}
);
width = 717;
},
{
anchors = (
{
name = ogonek;
position = "{419, 0}";
},
{
name = top;
position = "{346, 696}";
}
);
layerId = "4D0F633C-81E1-4D6C-A640-637CE706A5C5";
paths = (
{
closed = 1;
nodes = (
"75 254 LINE SMOOTH",
"75 77 OFFCURVE",
"199 -7 OFFCURVE",
"345 -7 CURVE SMOOTH",
"490 -7 OFFCURVE",
"618 77 OFFCURVE",
"618 254 CURVE SMOOTH",
"618 695 LINE",
"504 695 LINE",
"504 252 LINE SMOOTH",
"504 144 OFFCURVE",
"443 93 OFFCURVE",
"346 93 CURVE SMOOTH",
"250 93 OFFCURVE",
"189 144 OFFCURVE",
"189 252 CURVE SMOOTH",
"189 695 LINE",
"75 695 LINE"
);
}
);
width = 693;
}
);
leftKerningGroup = U;
rightKerningGroup = U;
unicode = 0055;
userData = {
com.schriftgestaltung.Glyphs.ColorIndex = 4;
com.typesupply.AccentFactory.yCoordinates = {
bottom = {
name = origin;
type = glyphMetric;
};
top = {
name = capHeight;
type = fontInfo;
};
};
};
},
{
glyphname = Uogonek;
lastChange = "2022-04-10 17:19:46 +0000";
layers = (
{
background = {
paths = (
{
closed = 1;
nodes = (
"71 309 LINE SMOOTH",
"71 134 OFFCURVE",
"176 30 OFFCURVE",
"302 1 CURVE",
"302 -4 OFFCURVE",
"302 -8 OFFCURVE",
"302 -13 CURVE",
"302 -103 OFFCURVE",
"376 -141 OFFCURVE",
"435 -141 CURVE SMOOTH",
"611 -141 LINE",
"611 -29 LINE",
"478 -29 LINE SMOOTH",
"458 -29 OFFCURVE",
"450 -23 OFFCURVE",
"450 -14 CURVE SMOOTH",
"450 -5 OFFCURVE",
"456 2 OFFCURVE",
"484 10 CURVE SMOOTH",
"589 40 OFFCURVE",
"698 140 OFFCURVE",
"698 309 CURVE SMOOTH",
"698 708 LINE",
"477 708 LINE",
"477 309 LINE SMOOTH",
"477 248 OFFCURVE",
"450 203 OFFCURVE",
"383 203 CURVE SMOOTH",
"316 203 OFFCURVE",
"292 248 OFFCURVE",
"292 309 CURVE SMOOTH",
"292 708 LINE",
"71 708 LINE"
);
}
);
};
components = (
{
name = U;
},
{
name = ogonek;
transform = "{1, 0, 0, 1, 156, 3}";
}
);
layerId = "A69CC389-2ECF-459C-A4E4-3168912CA6B4";
width = 717;
},
{
background = {
paths = (
{
closed = 1;
nodes = (
"74 254 LINE SMOOTH",
"74 99 OFFCURVE",
"170 15 OFFCURVE",
"292 -3 CURVE",
"288 -13 OFFCURVE",
"286 -24 OFFCURVE",
"286 -36 CURVE SMOOTH",
"286 -105 OFFCURVE",
"343 -145 OFFCURVE",
"414 -145 CURVE SMOOTH",
"520 -145 LINE",
"520 -74 LINE",
"428 -74 LINE SMOOTH",
"396 -74 OFFCURVE",
"380 -61 OFFCURVE",
"380 -37 CURVE SMOOTH",
"380 -16 OFFCURVE",
"395 -6 OFFCURVE",
"440 6 CURVE SMOOTH",
"522 30 OFFCURVE",
"617 100 OFFCURVE",
"617 254 CURVE SMOOTH",
"617 695 LINE",
"503 695 LINE",
"503 254 LINE SMOOTH",
"503 146 OFFCURVE",
"442 95 OFFCURVE",
"345 95 CURVE SMOOTH",
"249 95 OFFCURVE",
"188 146 OFFCURVE",
"188 254 CURVE SMOOTH",
"188 695 LINE",
"74 695 LINE"
);
}
);
};
components = (
{
name = U;
},
{
name = ogonek;
transform = "{1, 0, 0, 1, 210, 0}";
}
);
layerId = "4D0F633C-81E1-4D6C-A640-637CE706A5C5";
width = 693;
}
);
leftKerningGroup = U;
rightKerningGroup = U;
unicode = 0172;
userData = {
com.schriftgestaltung.Glyphs.ColorIndex = 8;
};
},
{
color = 6;
glyphname = V;
lastChange = "2022-04-10 16:47:22 +0000";
layers = (
{
layerId = "A69CC389-2ECF-459C-A4E4-3168912CA6B4";
paths = (
{
closed = 1;
nodes = (
"324 22 LINE",
"362 22 LINE",
"236 708 LINE",
"0 708 LINE",
"168 0 LINE",
"517 0 LINE",
"675 708 LINE",
"439 708 LINE"
);
}
);
width = 675;
},
{
layerId = "4D0F633C-81E1-4D6C-A640-637CE706A5C5";
paths = (
{
closed = 1;
nodes = (
"325 42 LINE",
"351 42 LINE",
"131 695 LINE",
"10 695 LINE",
"259 0 LINE",
"417 0 LINE",
"665 695 LINE",
"544 695 LINE"
);
}
);
width = 675;
}
);
leftKerningGroup = V;
rightKerningGroup = V;
unicode = 0056;
userData = {
com.schriftgestaltung.Glyphs.ColorIndex = 4;
com.typesupply.AccentFactory.yCoordinates = {
bottom = {
name = origin;
type = glyphMetric;
};
top = {
name = capHeight;
type = fontInfo;
};
};
};
},
{
color = 6;
glyphname = W;
lastChange = "2022-04-10 16:49:06 +0000";
layers = (
{
layerId = "A69CC389-2ECF-459C-A4E4-3168912CA6B4";
paths = (
{
closed = 1;
nodes = (
"135 0 LINE",
"465 0 LINE",
"530 461 LINE",
"510 461 LINE",
"575 0 LINE",
"905 0 LINE",
"1040 708 LINE",
"801 708 LINE",
"722 39 LINE",
"747 39 LINE",
"641 708 LINE",
"399 708 LINE",
"293 39 LINE",
"318 39 LINE",
"239 708 LINE",
"0 708 LINE"
);
}
);
width = 1040;
},
{
layerId = "4D0F633C-81E1-4D6C-A640-637CE706A5C5";
paths = (
{
closed = 1;
nodes = (
"198 0 LINE",
"354 0 LINE",
"506 628 LINE",
"476 628 LINE",
"627 0 LINE",
"783 0 LINE",
"971 695 LINE",
"850 695 LINE",
"692 32 LINE",
"721 32 LINE",
"557 695 LINE",
"425 695 LINE",
"260 32 LINE",
"289 32 LINE",
"131 695 LINE",
"10 695 LINE"
);
}
);
width = 981;
}
);
leftKerningGroup = W;
leftMetricsKey = V;
rightKerningGroup = W;
rightMetricsKey = V;
unicode = 0057;
userData = {
com.schriftgestaltung.Glyphs.ColorIndex = 4;
com.typemytype.robofont.layerData = {
b = {
anchors = (
);
components = (
);
contours = (
{
points = (
{
segmentType = line;
smooth = 0;
x = 229;
y = -2;
},
{
segmentType = line;
smooth = 0;
x = 245;
y = 0;
},
{
segmentType = line;
smooth = 0;
x = 473;
y = 727;
},
{
segmentType = line;
smooth = 0;
x = 435;
y = 727;
},
{
segmentType = line;
smooth = 0;
x = 638;
y = 0;
},
{
segmentType = line;
smooth = 0;
x = 654;
y = 0;
},
{
segmentType = line;
smooth = 0;
x = 877;
y = 684;
},
{
segmentType = line;
smooth = 0;
x = 860;
y = 684;
},
{
segmentType = line;
smooth = 0;
x = 636;
y = 7;
},
{
segmentType = line;
smooth = 0;
x = 650;
y = 5;
},
{
segmentType = line;
smooth = 0;
x = 459;
y = 684;
},
{
segmentType = line;
smooth = 0;
x = 442;
y = 684;
},
{
segmentType = line;
smooth = 0;
x = 230;
y = 10;
},
{
segmentType = line;
smooth = 0;
x = 239;
y = 10;
},
{
segmentType = line;
smooth = 0;
x = 54;
y = 684;
},
{
segmentType = line;
smooth = 0;
x = 36;
y = 684;
}
);
}
);
lib = {
};
name = W;
unicodes = (
);
width = 904;
};
};
com.typesupply.AccentFactory.yCoordinates = {
bottom = {
name = origin;
type = glyphMetric;
};
top = {
name = capHeight;
type = fontInfo;
};
};
};
},
{
glyphname = X;
lastChange = "2022-04-10 16:50:09 +0000";
layers = (
{
layerId = "A69CC389-2ECF-459C-A4E4-3168912CA6B4";
paths = (
{
closed = 1;
nodes = (
"496 0 LINE",
"759 0 LINE",
"258 708 LINE",
"-5 708 LINE"
);
},
{
closed = 1;
nodes = (
"270 416 LINE",
"5 0 LINE",
"258 0 LINE",
"401 243 LINE"
);
},
{
closed = 1;
nodes = (
"475 293 LINE",
"740 708 LINE",
"487 708 LINE",
"345 466 LINE"
);
}
);
width = 754;
},
{
layerId = "4D0F633C-81E1-4D6C-A640-637CE706A5C5";
paths = (
{
closed = 1;
nodes = (
"462 0 LINE",
"590 0 LINE",
"158 695 LINE",
"30 695 LINE"
);
},
{
closed = 1;
nodes = (
"266 378 LINE",
"31 0 LINE",
"158 0 LINE",
"327 290 LINE"
);
},
{
closed = 1;
nodes = (
"356 317 LINE",
"591 695 LINE",
"464 695 LINE",
"295 405 LINE"
);
}
);
width = 621;
}
);
leftKerningGroup = X;
rightKerningGroup = X;
unicode = 0058;
userData = {
com.schriftgestaltung.Glyphs.ColorIndex = 4;
com.typemytype.robofont.guides = (
{
angle = 90;
isGlobal = 0;
magnetic = 5;
x = 50;
y = 16;
},
{
angle = 90;
isGlobal = 0;
magnetic = 5;
x = 490;
y = 36;
},
{
angle = 0;
isGlobal = 0;
magnetic = 5;
x = 511;
y = 352;
}
);
com.typesupply.AccentFactory.yCoordinates = {
bottom = {
name = origin;
type = glyphMetric;
};
top = {
name = capHeight;
type = fontInfo;
};
};
};
},
{
glyphname = Y;
lastChange = "2022-04-10 16:51:04 +0000";
layers = (
{
anchors = (
{
name = top;
position = "{366, 711}";
}
);
layerId = "A69CC389-2ECF-459C-A4E4-3168912CA6B4";
paths = (
{
closed = 1;
nodes = (
"254 215 LINE",
"254 0 LINE",
"476 0 LINE",
"476 215 LINE",
"730 708 LINE",
"480 708 LINE",
"327 368 LINE",
"407 368 LINE",
"254 708 LINE",
"0 708 LINE"
);
}
);
width = 730;
},
{
anchors = (
{
name = top;
position = "{298, 696}";
}
);
layerId = "4D0F633C-81E1-4D6C-A640-637CE706A5C5";
paths = (
{
closed = 1;
nodes = (
"241 252 LINE",
"241 0 LINE",
"355 0 LINE",
"355 252 LINE",
"585 695 LINE",
"459 695 LINE",
"273 300 LINE",
"324 300 LINE",
"137 695 LINE",
"10 695 LINE"
);
}
);
width = 595;
}
);
leftKerningGroup = Y;
rightKerningGroup = Y;
unicode = 0059;
userData = {
com.schriftgestaltung.Glyphs.ColorIndex = 4;
com.typesupply.AccentFactory.yCoordinates = {
bottom = {
name = origin;
type = glyphMetric;
};
top = {
name = capHeight;
type = fontInfo;
};
};
};
},
{
glyphname = Z;
lastChange = "2022-04-10 16:40:59 +0000";
layers = (
{
anchors = (
{
name = top;
position = "{320, 711}";
}
);
layerId = "A69CC389-2ECF-459C-A4E4-3168912CA6B4";
paths = (
{
closed = 1;
nodes = (
"585 708 LINE",
"55 708 LINE",
"55 532 LINE",
"335 532 LINE",
"55 167 LINE",
"55 0 LINE",
"585 0 LINE",
"585 177 LINE",
"301 177 LINE",
"585 541 LINE"
);
}
);
width = 640;
},
{
anchors = (
{
name = top;
position = "{279, 696}";
}
);
background = {
paths = (
{
closed = 1;
nodes = (
"508 695 LINE",
"50 695 LINE",
"50 606 LINE",
"376 606 LINE",
"50 89 LINE",
"50 0 LINE",
"508 0 LINE",
"508 89 LINE",
"181 89 LINE",
"508 606 LINE"
);
}
);
};
layerId = "4D0F633C-81E1-4D6C-A640-637CE706A5C5";
paths = (
{
closed = 1;
nodes = (
"508 695 LINE",
"50 695 LINE",
"50 596 LINE",
"372 596 LINE",
"50 89 LINE",
"50 0 LINE",
"508 0 LINE",
"508 99 LINE",
"185 99 LINE",
"508 606 LINE"
);
}
);
width = 558;
}
);
leftKerningGroup = Z;
rightKerningGroup = Z;
unicode = 005A;
userData = {
com.schriftgestaltung.Glyphs.ColorIndex = 4;
com.typesupply.AccentFactory.yCoordinates = {
bottom = {
name = origin;
type = glyphMetric;
};
top = {
name = capHeight;
type = fontInfo;
};
};
};
},
{
color = 8;
glyphname = A.ss07;
lastChange = "2022-04-10 13:51:38 +0000";
layers = (
{
anchors = (
{
name = ogonek;
position = "{773, 0}";
},
{
name = top;
position = "{387, 711}";
}
);
layerId = "A69CC389-2ECF-459C-A4E4-3168912CA6B4";
paths = (
{
closed = 1;
nodes = (
"259 708 LINE",
"0 0 LINE",
"233 0 LINE",
"426 593 LINE",
"347 593 LINE",
"539 0 LINE",
"773 0 LINE",
"515 708 LINE"
);
},
{
closed = 1;
nodes = (
"267 107 LINE",
"634 107 LINE",
"579 274 LINE",
"384 274 LINE"
);
}
);
width = 773;
},
{
anchors = (
{
name = ogonek;
position = "{664, 0}";
},
{
name = top;
position = "{349, 696}";
}
);
layerId = "4D0F633C-81E1-4D6C-A640-637CE706A5C5";
paths = (
{
closed = 1;
nodes = (
"283 696 LINE",
"34 0 LINE",
"153 0 LINE",
"375 634 LINE",
"322 634 LINE",
"544 0 LINE",
"664 0 LINE",
"415 696 LINE"
);
},
{
closed = 1;
nodes = (
"203 142 LINE",
"554 142 LINE",
"524 235 LINE",
"290 235 LINE"
);
}
);
width = 697;
}
);
leftKerningGroup = A;
rightKerningGroup = A;
userData = {
com.schriftgestaltung.Glyphs.ColorIndex = 4;
com.typesupply.AccentFactory.yCoordinates = {
bottom = {
name = origin;
type = glyphMetric;
};
top = {
name = capHeight;
type = fontInfo;
};
};
};
},
{
color = 8;
glyphname = Aogonek.ss07;
lastChange = "2022-04-10 13:51:38 +0000";
layers = (
{
anchors = (
{
name = _ogonek;
position = "{773, 0}";
}
);
background = {
paths = (
{
closed = 1;
nodes = (
"114 107 LINE",
"634 107 LINE",
"579 274 LINE",
"170 274 LINE"
);
},
{
closed = 1;
nodes = (
"0 0 LINE",
"233 0 LINE",
"426 593 LINE",
"347 593 LINE",
"549 -30 LINE",
"565 15 LINE",
"515 -13 OFFCURVE",
"494 -49 OFFCURVE",
"494 -97 CURVE",
"494 -192 OFFCURVE",
"577 -219 OFFCURVE",
"644 -219 CURVE",
"812 -219 LINE",
"812 -106 LINE",
"667 -106 LINE SMOOTH",
"651 -106 OFFCURVE",
"641 -100 OFFCURVE",
"641 -90 CURVE SMOOTH",
"641 -80 OFFCURVE",
"651 -75 OFFCURVE",
"667 -75 CURVE SMOOTH",
"767 -75 LINE",
"767 15 LINE",
"515 708 LINE",
"259 708 LINE"
);
}
);
};
components = (
{
name = A.ss07;
},
{
name = ogonek;
transform = "{1, 0, 0, 1, 481, 0}";
}
);
layerId = "A69CC389-2ECF-459C-A4E4-3168912CA6B4";
width = 773;
},
{
anchors = (
{
name = _ogonek;
position = "{664, 0}";
}
);
background = {
paths = (
{
closed = 1;
nodes = (
"138 142 LINE",
"554 142 LINE",
"524 231 LINE",
"167 231 LINE"
);
},
{
closed = 1;
nodes = (
"34 0 LINE",
"153 0 LINE",
"359 586 LINE",
"339 586 LINE",
"553 -24 LINE",
"558 1 LINE",
"501 -7 OFFCURVE",
"464 -42 OFFCURVE",
"464 -96 CURVE SMOOTH",
"464 -165 OFFCURVE",
"521 -205 OFFCURVE",
"592 -205 CURVE SMOOTH",
"698 -205 LINE",
"698 -133 LINE",
"614 -133 LINE SMOOTH",
"579 -133 OFFCURVE",
"558 -126 OFFCURVE",
"558 -96 CURVE SMOOTH",
"558 -66 OFFCURVE",
"579 -60 OFFCURVE",
"614 -60 CURVE SMOOTH",
"664 -60 LINE",
"664 1 LINE",
"415 696 LINE",
"283 696 LINE"
);
}
);
};
components = (
{
name = A.ss07;
},
{
name = ogonek;
transform = "{1, 0, 0, 1, 455, 0}";
}
);
layerId = "4D0F633C-81E1-4D6C-A640-637CE706A5C5";
width = 697;
}
);
leftKerningGroup = A;
rightKerningGroup = A;
userData = {
com.schriftgestaltung.Glyphs.ColorIndex = 8;
com.typesupply.AccentFactory.compileType = manual;
};
},
{
color = 8;
glyphname = H.ss07;
lastChange = "2022-04-10 13:51:38 +0000";
layers = (
{
layerId = "A69CC389-2ECF-459C-A4E4-3168912CA6B4";
paths = (
{
closed = 1;
nodes = (
"50 0 LINE",
"272 0 LINE",
"272 708 LINE",
"50 708 LINE"
);
},
{
closed = 1;
nodes = (
"483 0 LINE",
"705 0 LINE",
"705 708 LINE",
"483 708 LINE"
);
},
{
closed = 1;
nodes = (
"272 276 LINE",
"505 276 LINE",
"505 453 LINE",
"396 453 LINE"
);
}
);
width = 755;
},
{
guideLines = (
{
position = "{132, 695}";
}
);
layerId = "4D0F633C-81E1-4D6C-A640-637CE706A5C5";
paths = (
{
closed = 1;
nodes = (
"75 0 LINE",
"189 0 LINE",
"189 695 LINE",
"75 695 LINE"
);
},
{
closed = 1;
nodes = (
"516 0 LINE",
"630 0 LINE",
"630 695 LINE",
"516 695 LINE"
);
},
{
closed = 1;
nodes = (
"189 304 LINE",
"526 304 LINE",
"566 397 LINE",
"265 397 LINE"
);
}
);
width = 705;
}
);
leftKerningGroup = H;
rightKerningGroup = H;
userData = {
com.schriftgestaltung.Glyphs.ColorIndex = 4;
com.typesupply.AccentFactory.yCoordinates = {
bottom = {
name = origin;
type = glyphMetric;
};
top = {
name = capHeight;
type = fontInfo;
};
};
};
},
{
color = 8;
glyphname = L.ss07;
lastChange = "2022-04-10 13:51:38 +0000";
layers = (
{
anchors = (
{
name = bottom;
position = "{265, 0}";
},
{
name = commaaccent;
position = "{265, 10}";
},
{
name = top;
position = "{231, 711}";
},
{
name = topright;
position = "{466, 711}";
}
);
layerId = "A69CC389-2ECF-459C-A4E4-3168912CA6B4";
paths = (
{
closed = 1;
nodes = (
"272 0 LINE",
"272 708 LINE",
"50 708 LINE",
"50 0 LINE"
);
},
{
closed = 1;
nodes = (
"272 0 LINE",
"486 0 LINE",
"486 168 LINE",
"389 168 LINE"
);
}
);
width = 506;
},
{
anchors = (
{
name = bottom;
position = "{248, 0}";
},
{
name = commaaccent;
position = "{248, 10}";
},
{
name = top;
position = "{222, 696}";
},
{
name = topright;
position = "{424, 696}";
}
);
layerId = "4D0F633C-81E1-4D6C-A640-637CE706A5C5";
paths = (
{
closed = 1;
nodes = (
"189 0 LINE",
"189 695 LINE",
"75 695 LINE",
"75 0 LINE"
);
},
{
closed = 1;
nodes = (
"189 0 LINE",
"424 0 LINE",
"424 92 LINE",
"249 92 LINE"
);
}
);
width = 444;
}
);
leftKerningGroup = H;
rightKerningGroup = L;
userData = {
com.schriftgestaltung.Glyphs.ColorIndex = 4;
com.typesupply.AccentFactory.yCoordinates = {
bottom = {
name = origin;
type = glyphMetric;
};
top = {
name = capHeight;
type = fontInfo;
};
};
};
},
{
color = 8;
glyphname = Ldot.ss07;
lastChange = "2022-04-10 13:51:38 +0000";
layers = (
{
components = (
{
name = L.ss07;
}
);
layerId = "A69CC389-2ECF-459C-A4E4-3168912CA6B4";
paths = (
{
closed = 1;
nodes = (
"464 327 OFFCURVE",
"501 364 OFFCURVE",
"501 412 CURVE SMOOTH",
"501 462 OFFCURVE",
"464 499 OFFCURVE",
"414 499 CURVE SMOOTH",
"366 499 OFFCURVE",
"329 462 OFFCURVE",
"329 412 CURVE SMOOTH",
"329 364 OFFCURVE",
"366 327 OFFCURVE",
"414 327 CURVE SMOOTH"
);
}
);
width = 506;
},
{
components = (
{
name = L.ss07;
}
);
layerId = "4D0F633C-81E1-4D6C-A640-637CE706A5C5";
paths = (
{
closed = 1;
nodes = (
"385 315 OFFCURVE",
"412 341 OFFCURVE",
"412 375 CURVE SMOOTH",
"412 408 OFFCURVE",
"385 435 OFFCURVE",
"352 435 CURVE SMOOTH",
"318 435 OFFCURVE",
"292 408 OFFCURVE",
"292 375 CURVE SMOOTH",
"292 341 OFFCURVE",
"318 315 OFFCURVE",
"352 315 CURVE SMOOTH"
);
}
);
width = 444;
}
);
leftKerningGroup = H;
rightKerningGroup = L;
},
{
color = 8;
glyphname = Lslash.ss07;
lastChange = "2022-04-10 13:51:38 +0000";
layers = (
{
components = (
{
name = L.ss07;
}
);
layerId = "A69CC389-2ECF-459C-A4E4-3168912CA6B4";
paths = (
{
closed = 1;
nodes = (
"-8 241 LINE",
"344 338 LINE",
"344 534 LINE",
"-8 437 LINE"
);
}
);
width = 521;
},
{
components = (
{
name = L.ss07;
}
);
layerId = "4D0F633C-81E1-4D6C-A640-637CE706A5C5";
paths = (
{
closed = 1;
nodes = (
"-1 267 LINE",
"283 359 LINE",
"283 446 LINE",
"-1 353 LINE"
);
}
);
width = 444;
}
);
leftKerningGroup = H;
rightKerningGroup = L;
userData = {
com.schriftgestaltung.Glyphs.ColorIndex = 4;
};
},
{
color = 8;
glyphname = R.ss07;
lastChange = "2022-04-10 13:51:38 +0000";
layers = (
{
anchors = (
{
name = bottom;
position = "{325, 0}";
},
{
name = top;
position = "{325, 711}";
}
);
layerId = "A69CC389-2ECF-459C-A4E4-3168912CA6B4";
paths = (
{
closed = 1;
nodes = (
"424 462 CURVE SMOOTH",
"424 420 OFFCURVE",
"402 402 OFFCURVE",
"360 402 CURVE SMOOTH",
"272 402 LINE",
"272 522 LINE",
"360 522 LINE SMOOTH",
"402 522 OFFCURVE",
"424 498 OFFCURVE"
);
},
{
closed = 1;
nodes = (
"50 708 LINE",
"50 0 LINE",
"272 0 LINE",
"272 254 LINE",
"380 254 LINE",
"558 254 OFFCURVE",
"649 352 OFFCURVE",
"649 476 CURVE",
"649 605.586 OFFCURVE",
"558 708 OFFCURVE",
"380 708 CURVE SMOOTH"
);
},
{
closed = 1;
nodes = (
"271 255 LINE",
"406 0 LINE",
"650 0 LINE",
"526 216 LINE"
);
}
);
width = 670;
},
{
anchors = (
{
name = bottom;
position = "{316, 0}";
},
{
name = top;
position = "{316, 696}";
}
);
layerId = "4D0F633C-81E1-4D6C-A640-637CE706A5C5";
paths = (
{
closed = 1;
nodes = (
"444 487 CURVE SMOOTH",
"444 418 OFFCURVE",
"404 369 OFFCURVE",
"315 369 CURVE SMOOTH",
"189 369 LINE",
"189 602 LINE",
"315 602 LINE SMOOTH",
"404 602 OFFCURVE",
"444 557 OFFCURVE"
);
},
{
closed = 1;
nodes = (
"75 695 LINE",
"75 0 LINE",
"189 0 LINE",
"189 278 LINE",
"315 278 LINE SMOOTH",
"496 278 OFFCURVE",
"561 388 OFFCURVE",
"561 487 CURVE SMOOTH",
"561 600 OFFCURVE",
"480 695 OFFCURVE",
"315 695 CURVE SMOOTH"
);
},
{
closed = 1;
nodes = (
"274 279 LINE",
"456 0 LINE",
"592 0 LINE",
"431 237 LINE"
);
}
);
width = 632;
}
);
leftKerningGroup = H;
rightKerningGroup = R;
userData = {
com.schriftgestaltung.Glyphs.ColorIndex = 4;
com.typesupply.AccentFactory.yCoordinates = {
bottom = {
name = origin;
type = glyphMetric;
};
top = {
name = capHeight;
type = fontInfo;
};
};
};
},
{
color = 8;
glyphname = Rcommaaccent.ss07;
lastChange = "2022-04-10 13:51:38 +0000";
layers = (
{
anchors = (
{
name = _bottom;
position = "{350, 0}";
}
);
components = (
{
name = R.ss07;
}
);
layerId = "A69CC389-2ECF-459C-A4E4-3168912CA6B4";
paths = (
{
closed = 1;
nodes = (
"270 -35 LINE",
"270 -182 LINE",
"342 -182 LINE",
"342 -193 LINE SMOOTH",
"342 -245 OFFCURVE",
"322 -268 OFFCURVE",
"287 -268 CURVE",
"287 -346 LINE",
"401 -346 OFFCURVE",
"452 -266 OFFCURVE",
"452 -170 CURVE SMOOTH",
"452 -128 OFFCURVE",
"444 -82 OFFCURVE",
"426 -35 CURVE"
);
}
);
width = 701;
},
{
anchors = (
{
name = _bottom;
position = "{316, 0}";
}
);
components = (
{
name = R.ss07;
}
);
layerId = "4D0F633C-81E1-4D6C-A640-637CE706A5C5";
paths = (
{
closed = 1;
nodes = (
"262 -46 LINE",
"262 -142 LINE",
"314 -142 LINE",
"314 -163 LINE SMOOTH",
"314 -201 OFFCURVE",
"299 -220 OFFCURVE",
"266 -220 CURVE",
"266 -270 LINE",
"340 -270 OFFCURVE",
"378 -228 OFFCURVE",
"378 -145 CURVE SMOOTH",
"378 -116 OFFCURVE",
"374 -83 OFFCURVE",
"365 -46 CURVE"
);
}
);
width = 632;
}
);
leftKerningGroup = H;
rightKerningGroup = R;
userData = {
com.schriftgestaltung.Glyphs.ColorIndex = 8;
com.typesupply.AccentFactory.compileType = manual;
};
},
{
color = 8;
glyphname = T.ss07;
lastChange = "2022-04-14 13:59:24 +0000";
layers = (
{
anchors = (
{
name = bottom;
position = "{303, 0}";
},
{
name = top;
position = "{303, 711}";
}
);
layerId = "A69CC389-2ECF-459C-A4E4-3168912CA6B4";
paths = (
{
closed = 1;
nodes = (
"606 532 LINE",
"606 708 LINE",
"10 708 LINE",
"10 532 LINE"
);
},
{
closed = 1;
nodes = (
"196 532 LINE",
"196 0 LINE",
"418 0 LINE",
"418 432 LINE"
);
}
);
width = 616;
},
{
anchors = (
{
name = bottom;
position = "{280, 0}";
},
{
name = top;
position = "{282, 696}";
}
);
layerId = "4D0F633C-81E1-4D6C-A640-637CE706A5C5";
paths = (
{
closed = 1;
nodes = (
"524 602 LINE",
"524 695 LINE",
"39 695 LINE",
"39 602 LINE"
);
},
{
closed = 1;
nodes = (
"225 603 LINE",
"225 0 LINE",
"339 0 LINE",
"339 540 LINE"
);
}
);
width = 564;
}
);
leftKerningGroup = T;
rightKerningGroup = T;
userData = {
com.schriftgestaltung.Glyphs.ColorIndex = 4;
com.typesupply.AccentFactory.yCoordinates = {
bottom = {
name = origin;
type = glyphMetric;
};
top = {
name = capHeight;
type = fontInfo;
};
};
};
},
{
color = 0;
export = 0;
glyphname = Gcommaaccent;
lastChange = "2022-02-17 13:53:55 +0000";
layers = (
{
anchors = (
{
name = _bottom;
position = "{378, 0}";
}
);
layerId = "A69CC389-2ECF-459C-A4E4-3168912CA6B4";
paths = (
{
closed = 1;
nodes = (
"298 -35 LINE",
"298 -182 LINE",
"370 -182 LINE",
"370 -193 LINE SMOOTH",
"370 -245 OFFCURVE",
"350 -268 OFFCURVE",
"315 -268 CURVE",
"315 -346 LINE",
"429 -346 OFFCURVE",
"480 -266 OFFCURVE",
"480 -170 CURVE SMOOTH",
"480 -128 OFFCURVE",
"472 -82 OFFCURVE",
"454 -35 CURVE"
);
}
);
width = 756;
},
{
anchors = (
{
name = _bottom;
position = "{386, 0}";
}
);
layerId = "4D0F633C-81E1-4D6C-A640-637CE706A5C5";
paths = (
{
closed = 1;
nodes = (
"332 -46 LINE",
"332 -142 LINE",
"385 -142 LINE",
"385 -163 LINE SMOOTH",
"385 -201 OFFCURVE",
"370 -220 OFFCURVE",
"336 -220 CURVE",
"336 -270 LINE",
"410 -270 OFFCURVE",
"449 -228 OFFCURVE",
"449 -145 CURVE SMOOTH",
"449 -116 OFFCURVE",
"444 -83 OFFCURVE",
"435 -46 CURVE"
);
}
);
width = 773;
}
);
leftKerningGroup = O;
rightKerningGroup = G;
unicode = 0122;
userData = {
com.schriftgestaltung.Glyphs.ColorIndex = 8;
com.typesupply.AccentFactory.compileType = manual;
};
},
{
color = 0;
export = 0;
glyphname = Kcommaaccent;
lastChange = "2022-02-17 13:53:55 +0000";
layers = (
{
anchors = (
{
name = _bottom;
position = "{399, 0}";
}
);
layerId = "A69CC389-2ECF-459C-A4E4-3168912CA6B4";
paths = (
{
closed = 1;
nodes = (
"319 -35 LINE",
"319 -182 LINE",
"391 -182 LINE",
"391 -193 LINE SMOOTH",
"391 -245 OFFCURVE",
"370 -268 OFFCURVE",
"336 -268 CURVE",
"336 -346 LINE",
"449 -346 OFFCURVE",
"500 -266 OFFCURVE",
"500 -170 CURVE SMOOTH",
"500 -128 OFFCURVE",
"493 -82 OFFCURVE",
"475 -35 CURVE"
);
}
);
width = 798;
},
{
anchors = (
{
name = _bottom;
position = "{317, 0}";
}
);
layerId = "4D0F633C-81E1-4D6C-A640-637CE706A5C5";
paths = (
{
closed = 1;
nodes = (
"262 -46 LINE",
"262 -142 LINE",
"315 -142 LINE",
"315 -163 LINE SMOOTH",
"315 -201 OFFCURVE",
"300 -220 OFFCURVE",
"267 -220 CURVE",
"267 -270 LINE",
"341 -270 OFFCURVE",
"379 -228 OFFCURVE",
"379 -145 CURVE SMOOTH",
"379 -116 OFFCURVE",
"375 -83 OFFCURVE",
"365 -46 CURVE"
);
}
);
width = 633;
}
);
leftKerningGroup = H;
rightKerningGroup = K;
unicode = 0136;
userData = {
com.schriftgestaltung.Glyphs.ColorIndex = 8;
com.typesupply.AccentFactory.compileType = manual;
};
},
{
color = 0;
export = 0;
glyphname = Ncommaaccent;
lastChange = "2022-02-17 13:53:55 +0000";
layers = (
{
anchors = (
{
name = _bottom;
position = "{414, 0}";
}
);
layerId = "A69CC389-2ECF-459C-A4E4-3168912CA6B4";
paths = (
{
closed = 1;
nodes = (
"334 -35 LINE",
"334 -182 LINE",
"406 -182 LINE",
"406 -193 LINE SMOOTH",
"406 -245 OFFCURVE",
"386 -268 OFFCURVE",
"351 -268 CURVE",
"351 -346 LINE",
"465 -346 OFFCURVE",
"516 -266 OFFCURVE",
"516 -170 CURVE SMOOTH",
"516 -128 OFFCURVE",
"508 -82 OFFCURVE",
"490 -35 CURVE"
);
}
);
width = 829;
},
{
anchors = (
{
name = _bottom;
position = "{361, 0}";
}
);
layerId = "4D0F633C-81E1-4D6C-A640-637CE706A5C5";
paths = (
{
closed = 1;
nodes = (
"306 -46 LINE",
"306 -142 LINE",
"359 -142 LINE",
"359 -163 LINE SMOOTH",
"359 -201 OFFCURVE",
"344 -220 OFFCURVE",
"311 -220 CURVE",
"311 -270 LINE",
"385 -270 OFFCURVE",
"423 -228 OFFCURVE",
"423 -145 CURVE SMOOTH",
"423 -116 OFFCURVE",
"419 -83 OFFCURVE",
"409 -46 CURVE"
);
}
);
width = 721;
}
);
leftKerningGroup = N;
rightKerningGroup = N;
unicode = 0145;
userData = {
com.schriftgestaltung.Glyphs.ColorIndex = 8;
com.typesupply.AccentFactory.compileType = manual;
};
},
{
glyphname = a;
lastChange = "2022-04-28 08:47:42 +0000";
layers = (
{
anchors = (
{
name = ogonek;
position = "{603, 0}";
},
{
name = top;
position = "{323, 572}";
}
);
guideLines = (
{
position = "{506, 76}";
}
);
layerId = "A69CC389-2ECF-459C-A4E4-3168912CA6B4";
paths = (
{
closed = 1;
nodes = (
"382 0 LINE",
"603 0 LINE",
"603 332 LINE SMOOTH",
"603 476 OFFCURVE",
"493 572 OFFCURVE",
"323 572 CURVE SMOOTH",
"176 572 OFFCURVE",
"66 479 OFFCURVE",
"37 354 CURVE",
"261 354 LINE",
"269 375 OFFCURVE",
"289 394 OFFCURVE",
"322 394 CURVE SMOOTH",
"358 394 OFFCURVE",
"381 370 OFFCURVE",
"381 323 CURVE",
"284 323 LINE SMOOTH",
"107 323 OFFCURVE",
"30 251 OFFCURVE",
"30 151 CURVE SMOOTH",
"30 46 OFFCURVE",
"110 -11 OFFCURVE",
"207 -11 CURVE SMOOTH",
"279 -11 OFFCURVE",
"355 20 OFFCURVE",
"382 76 CURVE"
);
},
{
closed = 1;
nodes = (
"272 143 OFFCURVE",
"254 158 OFFCURVE",
"254 186 CURVE SMOOTH",
"254 214 OFFCURVE",
"277 233 OFFCURVE",
"318 233 CURVE SMOOTH",
"380 233 LINE",
"380 221 LINE SMOOTH",
"380 180 OFFCURVE",
"344 143 OFFCURVE",
"300 143 CURVE SMOOTH"
);
}
);
width = 648;
},
{
anchors = (
{
name = ogonek;
position = "{539, 0}";
},
{
name = top;
position = "{303, 567}";
}
);
guideLines = (
{
position = "{480, 86}";
},
{
position = "{338, 466}";
}
);
layerId = "4D0F633C-81E1-4D6C-A640-637CE706A5C5";
paths = (
{
closed = 1;
nodes = (
"423 0 LINE",
"539 0 LINE",
"539 323 LINE SMOOTH",
"539 473 OFFCURVE",
"433 561 OFFCURVE",
"303 561 CURVE SMOOTH",
"165 561 OFFCURVE",
"75 475 OFFCURVE",
"59 356 CURVE",
"171 356 LINE",
"183 423 OFFCURVE",
"230 462 OFFCURVE",
"298 462 CURVE SMOOTH",
"375 462 OFFCURVE",
"420 407 OFFCURVE",
"423 331 CURVE",
"267 331 LINE SMOOTH",
"111 331 OFFCURVE",
"45 249 OFFCURVE",
"45 155 CURVE SMOOTH",
"45 60 OFFCURVE",
"124 -10 OFFCURVE",
"232 -10 CURVE SMOOTH",
"316 -10 OFFCURVE",
"391 32 OFFCURVE",
"423 80 CURVE"
);
},
{
closed = 1;
nodes = (
"196 90 OFFCURVE",
"162 120 OFFCURVE",
"162 164 CURVE SMOOTH",
"162 205 OFFCURVE",
"191 239 OFFCURVE",
"267 239 CURVE SMOOTH",
"423 239 LINE",
"423 238 LINE",
"423 136 OFFCURVE",
"329 90 OFFCURVE",
"256 90 CURVE SMOOTH"
);
}
);
width = 597;
}
);
leftKerningGroup = a;
rightKerningGroup = n;
unicode = 0061;
userData = {
com.schriftgestaltung.Glyphs.ColorIndex = 4;
com.typemytype.robofont.guides = (
{
angle = 90;
isGlobal = 0;
magnetic = 5;
x = 306;
y = 501;
},
{
angle = 0;
isGlobal = 0;
magnetic = 5;
x = 88;
y = 270;
}
);
com.typesupply.AccentFactory.yCoordinates = {
bottom = {
name = origin;
type = glyphMetric;
};
top = {
name = xHeight;
type = fontInfo;
};
};
};
},
{
glyphname = ae;
lastChange = "2022-04-10 17:18:46 +0000";
layers = (
{
anchors = (
{
name = ogonek;
position = "{539, 0}";
},
{
name = top;
position = "{303, 567}";
}
);
components = (
{
alignment = -1;
name = e;
transform = "{1, 0, 0, 1, 384, 0}";
}
);
layerId = "4D0F633C-81E1-4D6C-A640-637CE706A5C5";
paths = (
{
closed = 1;
nodes = (
"539 250 LINE",
"539 323 LINE SMOOTH",
"539 473 OFFCURVE",
"433 561 OFFCURVE",
"303 561 CURVE SMOOTH",
"165 561 OFFCURVE",
"75 475 OFFCURVE",
"59 356 CURVE",
"171 356 LINE",
"183 423 OFFCURVE",
"230 462 OFFCURVE",
"298 462 CURVE SMOOTH",
"375 462 OFFCURVE",
"420 407 OFFCURVE",
"423 331 CURVE",
"267 331 LINE SMOOTH",
"111 331 OFFCURVE",
"45 249 OFFCURVE",
"45 155 CURVE SMOOTH",
"45 60 OFFCURVE",
"124 -10 OFFCURVE",
"232 -10 CURVE SMOOTH",
"316 -10 OFFCURVE",
"423 32 OFFCURVE",
"489 129 CURVE"
);
},
{
closed = 1;
nodes = (
"196 90 OFFCURVE",
"162 120 OFFCURVE",
"162 164 CURVE SMOOTH",
"162 205 OFFCURVE",
"191 239 OFFCURVE",
"267 239 CURVE SMOOTH",
"423 239 LINE",
"423 238 LINE",
"423 136 OFFCURVE",
"329 90 OFFCURVE",
"256 90 CURVE SMOOTH"
);
}
);
width = 1003;
},
{
anchors = (
{
name = ogonek;
position = "{603, 0}";
},
{
name = top;
position = "{323, 572}";
}
);
components = (
{
alignment = -1;
name = e;
transform = "{1, 0, 0, 1, 364, 0}";
}
);
layerId = "A69CC389-2ECF-459C-A4E4-3168912CA6B4";
paths = (
{
closed = 1;
nodes = (
"603 290 LINE",
"603 332 LINE SMOOTH",
"603 476 OFFCURVE",
"490 572 OFFCURVE",
"329 572 CURVE SMOOTH",
"174 572 OFFCURVE",
"68 482 OFFCURVE",
"37 354 CURVE",
"261 354 LINE",
"269 375 OFFCURVE",
"289 394 OFFCURVE",
"322 394 CURVE SMOOTH",
"358 394 OFFCURVE",
"381 370 OFFCURVE",
"381 323 CURVE",
"284 323 LINE SMOOTH",
"107 323 OFFCURVE",
"30 251 OFFCURVE",
"30 151 CURVE SMOOTH",
"30 52 OFFCURVE",
"103 -11 OFFCURVE",
"223 -11 CURVE SMOOTH",
"310 -11 OFFCURVE",
"414 10 OFFCURVE",
"490 123 CURVE SMOOTH"
);
},
{
closed = 1;
nodes = (
"272 143 OFFCURVE",
"254 158 OFFCURVE",
"254 186 CURVE SMOOTH",
"254 214 OFFCURVE",
"277 233 OFFCURVE",
"318 233 CURVE SMOOTH",
"380 233 LINE",
"380 221 LINE SMOOTH",
"380 180 OFFCURVE",
"344 143 OFFCURVE",
"300 143 CURVE SMOOTH"
);
}
);
width = 980;
}
);
leftKerningGroup = a;
leftMetricsKey = a;
rightKerningGroup = e;
rightMetricsKey = e;
unicode = 00E6;
},
{
glyphname = b;
lastChange = "2022-02-17 13:53:55 +0000";
layers = (
{
layerId = "A69CC389-2ECF-459C-A4E4-3168912CA6B4";
paths = (
{
closed = 1;
nodes = (
"272 487 CURVE",
"272 740 LINE",
"50 740 LINE",
"50 0 LINE",
"272 0 LINE",
"272 77 LINE",
"299 26 OFFCURVE",
"352 -7 OFFCURVE",
"427 -7 CURVE",
"557 -7 OFFCURVE",
"660 100 OFFCURVE",
"660 282 CURVE",
"660 464 OFFCURVE",
"557 571 OFFCURVE",
"427 571 CURVE",
"352 571 OFFCURVE",
"299 538 OFFCURVE"
);
},
{
closed = 1;
nodes = (
"435 282 CURVE",
"435 220 OFFCURVE",
"399 187 OFFCURVE",
"353 187 CURVE",
"307 187 OFFCURVE",
"271 220 OFFCURVE",
"271 282 CURVE",
"271 344 OFFCURVE",
"307 377 OFFCURVE",
"353 377 CURVE",
"399 377 OFFCURVE",
"435 344 OFFCURVE"
);
}
);
width = 680;
},
{
background = {
paths = (
{
closed = 1;
nodes = (
"189 465 CURVE",
"189 740 LINE",
"75 740 LINE",
"75 0 LINE",
"189 0 LINE",
"189 84 LINE",
"225 34 OFFCURVE",
"290 -9 OFFCURVE",
"381 -9 CURVE SMOOTH",
"526 -9 OFFCURVE",
"640 108 OFFCURVE",
"640 278 CURVE SMOOTH",
"640 448 OFFCURVE",
"527 560 OFFCURVE",
"381 560 CURVE SMOOTH",
"294 560 OFFCURVE",
"225 517 OFFCURVE"
);
},
{
closed = 1;
nodes = (
"524 278 CURVE SMOOTH",
"524 159 OFFCURVE",
"442 90 OFFCURVE",
"356 90 CURVE SMOOTH",
"271 90 OFFCURVE",
"189 157 OFFCURVE",
"189 276 CURVE SMOOTH",
"189 394 OFFCURVE",
"271 461 OFFCURVE",
"356 461 CURVE SMOOTH",
"442 461 OFFCURVE",
"524 397 OFFCURVE"
);
}
);
};
layerId = "4D0F633C-81E1-4D6C-A640-637CE706A5C5";
paths = (
{
closed = 1;
nodes = (
"189 469 CURVE",
"189 740 LINE",
"75 740 LINE",
"75 0 LINE",
"189 0 LINE",
"189 80 LINE",
"225 32 OFFCURVE",
"290 -9 OFFCURVE",
"381 -9 CURVE SMOOTH",
"526 -9 OFFCURVE",
"640 108 OFFCURVE",
"640 278 CURVE SMOOTH",
"640 448 OFFCURVE",
"527 560 OFFCURVE",
"381 560 CURVE SMOOTH",
"294 560 OFFCURVE",
"225 519 OFFCURVE"
);
},
{
closed = 1;
nodes = (
"524 278 CURVE SMOOTH",
"524 159 OFFCURVE",
"442 90 OFFCURVE",
"356 90 CURVE SMOOTH",
"271 90 OFFCURVE",
"189 157 OFFCURVE",
"189 276 CURVE SMOOTH",
"189 394 OFFCURVE",
"271 461 OFFCURVE",
"356 461 CURVE SMOOTH",
"442 461 OFFCURVE",
"524 397 OFFCURVE"
);
}
);
width = 678;
}
);
leftKerningGroup = h;
leftMetricsKey = l;
rightKerningGroup = o;
rightMetricsKey = o;
unicode = 0062;
userData = {
com.schriftgestaltung.Glyphs.ColorIndex = 4;
com.typemytype.robofont.layerData = {
b = {
anchors = (
);
components = (
);
contours = (
{
points = (
{
segmentType = curve;
smooth = 0;
x = 105;
y = 398;
},
{
segmentType = line;
smooth = 0;
x = 105;
y = 740;
},
{
segmentType = line;
smooth = 0;
x = 85;
y = 740;
},
{
segmentType = line;
smooth = 0;
x = 85;
y = 0;
},
{
segmentType = line;
smooth = 0;
x = 105;
y = 0;
},
{
segmentType = line;
smooth = 0;
x = 105;
y = 140;
},
{
smooth = 0;
x = 137;
y = 60;
},
{
smooth = 0;
x = 223;
y = -12;
},
{
segmentType = curve;
smooth = 1;
x = 342;
y = -12;
},
{
smooth = 0;
x = 498;
y = -12;
},
{
smooth = 0;
x = 611;
y = 108;
},
{
segmentType = curve;
smooth = 1;
x = 611;
y = 278;
},
{
smooth = 0;
x = 611;
y = 448;
},
{
smooth = 0;
x = 498;
y = 552;
},
{
segmentType = curve;
smooth = 1;
x = 342;
y = 552;
},
{
smooth = 0;
x = 223;
y = 552;
},
{
smooth = 0;
x = 138;
y = 480;
}
);
},
{
points = (
{
segmentType = curve;
smooth = 1;
x = 590;
y = 278;
},
{
smooth = 0;
x = 590;
y = 118;
},
{
smooth = 0;
x = 480;
y = 5;
},
{
segmentType = curve;
smooth = 1;
x = 347;
y = 5;
},
{
smooth = 0;
x = 215;
y = 5;
},
{
smooth = 0;
x = 105;
y = 110;
},
{
segmentType = curve;
smooth = 1;
x = 105;
y = 270;
},
{
smooth = 0;
x = 105;
y = 430;
},
{
smooth = 0;
x = 215;
y = 536;
},
{
segmentType = curve;
smooth = 1;
x = 347;
y = 536;
},
{
smooth = 0;
x = 480;
y = 536;
},
{
smooth = 0;
x = 590;
y = 438;
}
);
}
);
lib = {
};
name = b;
unicodes = (
);
width = 671;
};
};
com.typesupply.AccentFactory.yCoordinates = {
bottom = {
name = origin;
type = glyphMetric;
};
top = {
name = ascender;
type = fontInfo;
};
};
};
},
{
glyphname = c;
lastChange = "2022-04-10 16:11:52 +0000";
layers = (
{
anchors = (
{
name = bottom;
position = "{299, 0}";
},
{
name = top;
position = "{299, 564}";
}
);
layerId = "A69CC389-2ECF-459C-A4E4-3168912CA6B4";
paths = (
{
closed = 1;
nodes = (
"20 282 CURVE",
"20 102 OFFCURVE",
"139 -7 OFFCURVE",
"308 -7 CURVE SMOOTH",
"453 -7 OFFCURVE",
"562 79 OFFCURVE",
"589 227 CURVE",
"354 227 LINE",
"346 200 OFFCURVE",
"331 183 OFFCURVE",
"303 183 CURVE SMOOTH",
"269 183 OFFCURVE",
"245 214 OFFCURVE",
"245 282 CURVE",
"245 350 OFFCURVE",
"269 381 OFFCURVE",
"303 381 CURVE SMOOTH",
"331 381 OFFCURVE",
"346 364 OFFCURVE",
"354 337 CURVE",
"589 337 LINE",
"562 485 OFFCURVE",
"453 571 OFFCURVE",
"308 571 CURVE SMOOTH",
"139 571 OFFCURVE",
"20 462 OFFCURVE"
);
}
);
width = 601;
},
{
anchors = (
{
name = bottom;
position = "{301, 0}";
},
{
name = top;
position = "{301, 551}";
}
);
layerId = "4D0F633C-81E1-4D6C-A640-637CE706A5C5";
paths = (
{
closed = 1;
nodes = (
"38 276 CURVE SMOOTH",
"38 103 OFFCURVE",
"150 -9 OFFCURVE",
"308 -9 CURVE SMOOTH",
"443 -9 OFFCURVE",
"531 66 OFFCURVE",
"562 174 CURVE",
"439 174 LINE",
"418 117 OFFCURVE",
"376 87 OFFCURVE",
"308 87 CURVE SMOOTH",
"216 87 OFFCURVE",
"155 155 OFFCURVE",
"155 276 CURVE SMOOTH",
"155 396 OFFCURVE",
"216 464 OFFCURVE",
"308 464 CURVE SMOOTH",
"376 464 OFFCURVE",
"420 430 OFFCURVE",
"439 377 CURVE",
"562 377 LINE",
"531 493 OFFCURVE",
"443 560 OFFCURVE",
"308 560 CURVE SMOOTH",
"150 560 OFFCURVE",
"38 448 OFFCURVE"
);
}
);
width = 589;
}
);
leftKerningGroup = o;
leftMetricsKey = o;
rightKerningGroup = c;
unicode = 0063;
userData = {
com.schriftgestaltung.Glyphs.ColorIndex = 4;
com.typemytype.robofont.guides = (
{
angle = 90;
isGlobal = 0;
magnetic = 5;
x = 287;
y = 532;
}
);
com.typesupply.AccentFactory.yCoordinates = {
bottom = {
name = origin;
type = glyphMetric;
};
top = {
name = xHeight;
type = fontInfo;
};
};
};
},
{
glyphname = d;
lastChange = "2022-04-10 17:03:16 +0000";
layers = (
{
anchors = (
{
name = topright;
position = "{630, 740}";
}
);
layerId = "A69CC389-2ECF-459C-A4E4-3168912CA6B4";
paths = (
{
closed = 1;
nodes = (
"20 282 CURVE",
"20 100 OFFCURVE",
"123 -7 OFFCURVE",
"253 -7 CURVE",
"328 -7 OFFCURVE",
"381 26 OFFCURVE",
"408 77 CURVE",
"408 0 LINE",
"630 0 LINE",
"630 740 LINE",
"408 740 LINE",
"408 487 LINE",
"381 538 OFFCURVE",
"328 571 OFFCURVE",
"253 571 CURVE",
"123 571 OFFCURVE",
"20 464 OFFCURVE"
);
},
{
closed = 1;
nodes = (
"409 282 CURVE",
"409 220 OFFCURVE",
"373 187 OFFCURVE",
"327 187 CURVE",
"281 187 OFFCURVE",
"245 220 OFFCURVE",
"245 282 CURVE",
"245 344 OFFCURVE",
"281 377 OFFCURVE",
"327 377 CURVE",
"373 377 OFFCURVE",
"409 344 OFFCURVE"
);
}
);
width = 680;
},
{
anchors = (
{
name = topright;
position = "{604, 740}";
}
);
background = {
paths = (
{
closed = 1;
nodes = (
"38 278 CURVE SMOOTH",
"38 108 OFFCURVE",
"153 -9 OFFCURVE",
"298 -9 CURVE SMOOTH",
"388 -9 OFFCURVE",
"454 39 OFFCURVE",
"489 103 CURVE",
"489 0 LINE",
"604 0 LINE",
"604 740 LINE",
"489 740 LINE",
"489 453 LINE",
"455 514 OFFCURVE",
"388 560 OFFCURVE",
"298 560 CURVE SMOOTH",
"153 560 OFFCURVE",
"38 448 OFFCURVE"
);
},
{
closed = 1;
nodes = (
"489 276 CURVE SMOOTH",
"489 157 OFFCURVE",
"408 90 OFFCURVE",
"322 90 CURVE SMOOTH",
"237 90 OFFCURVE",
"155 159 OFFCURVE",
"155 278 CURVE SMOOTH",
"155 397 OFFCURVE",
"237 461 OFFCURVE",
"322 461 CURVE SMOOTH",
"408 461 OFFCURVE",
"489 394 OFFCURVE"
);
}
);
};
layerId = "4D0F633C-81E1-4D6C-A640-637CE706A5C5";
paths = (
{
closed = 1;
nodes = (
"38 278 CURVE SMOOTH",
"38 108 OFFCURVE",
"153 -9 OFFCURVE",
"298 -9 CURVE SMOOTH",
"388 -9 OFFCURVE",
"454 33 OFFCURVE",
"489 83 CURVE",
"489 0 LINE",
"604 0 LINE",
"604 740 LINE",
"489 740 LINE",
"489 474 LINE",
"447 526 OFFCURVE",
"371 560 OFFCURVE",
"299 560 CURVE SMOOTH",
"153 560 OFFCURVE",
"38 448 OFFCURVE"
);
},
{
closed = 1;
nodes = (
"489 276 CURVE SMOOTH",
"489 157 OFFCURVE",
"408 90 OFFCURVE",
"322 90 CURVE SMOOTH",
"237 90 OFFCURVE",
"155 159 OFFCURVE",
"155 278 CURVE SMOOTH",
"155 397 OFFCURVE",
"237 461 OFFCURVE",
"322 461 CURVE SMOOTH",
"408 461 OFFCURVE",
"489 394 OFFCURVE"
);
}
);
width = 679;
}
);
leftKerningGroup = o;
leftMetricsKey = o;
rightKerningGroup = l;
rightMetricsKey = l;
unicode = 0064;
userData = {
com.schriftgestaltung.Glyphs.ColorIndex = 4;
com.typesupply.AccentFactory.yCoordinates = {
bottom = {
name = origin;
type = glyphMetric;
};
top = {
name = ascender;
type = fontInfo;
};
};
};
},
{
glyphname = eth;
lastChange = "2022-02-17 13:53:55 +0000";
layers = (
{
layerId = "A69CC389-2ECF-459C-A4E4-3168912CA6B4";
paths = (
{
closed = 1;
nodes = (
"264 660 LINE",
"264 588 LINE",
"529 663 LINE",
"529 735 LINE"
);
},
{
closed = 1;
nodes = (
"144 568 OFFCURVE",
"20 462 OFFCURVE",
"20 284 CURVE SMOOTH",
"20 105 OFFCURVE",
"164 -6 OFFCURVE",
"328 -6 CURVE SMOOTH",
"488 -6 OFFCURVE",
"623 107 OFFCURVE",
"623 317 CURVE SMOOTH",
"623 476 OFFCURVE",
"541 636 OFFCURVE",
"440 740 CURVE",
"247 740 LINE",
"290 702 OFFCURVE",
"347 627 OFFCURVE",
"380 560 CURVE",
"351 565 OFFCURVE",
"324 568 OFFCURVE",
"301 568 CURVE SMOOTH"
);
},
{
closed = 1;
nodes = (
"295 186 OFFCURVE",
"246 210 OFFCURVE",
"246 282 CURVE SMOOTH",
"246 354 OFFCURVE",
"289 377 OFFCURVE",
"324 377 CURVE SMOOTH",
"355 377 OFFCURVE",
"397 354 OFFCURVE",
"397 282 CURVE SMOOTH",
"397 210 OFFCURVE",
"362 186 OFFCURVE",
"328 186 CURVE SMOOTH"
);
}
);
width = 643;
},
{
layerId = "4D0F633C-81E1-4D6C-A640-637CE706A5C5";
paths = (
{
closed = 1;
nodes = (
"264 649 LINE",
"264 588 LINE",
"551 682 LINE",
"551 743 LINE"
);
},
{
closed = 1;
nodes = (
"158 560 OFFCURVE",
"37 449 OFFCURVE",
"37 276 CURVE SMOOTH",
"37 103 OFFCURVE",
"156 -9 OFFCURVE",
"314 -9 CURVE SMOOTH",
"476 -9 OFFCURVE",
"599 101 OFFCURVE",
"599 317 CURVE SMOOTH",
"599 481 OFFCURVE",
"522 623 OFFCURVE",
"385 740 CURVE",
"269 740 LINE",
"369 658 OFFCURVE",
"430 587 OFFCURVE",
"466 503 CURVE",
"422 540 OFFCURVE",
"374 560 OFFCURVE",
"307 560 CURVE SMOOTH"
);
},
{
closed = 1;
nodes = (
"228 87 OFFCURVE",
"154 151 OFFCURVE",
"154 276 CURVE SMOOTH",
"154 401 OFFCURVE",
"231 464 OFFCURVE",
"316 464 CURVE SMOOTH",
"402 464 OFFCURVE",
"482 401 OFFCURVE",
"482 276 CURVE SMOOTH",
"482 151 OFFCURVE",
"399 87 OFFCURVE",
"314 87 CURVE SMOOTH"
);
}
);
width = 636;
}
);
leftKerningGroup = eth;
rightKerningGroup = eth;
unicode = 00F0;
userData = {
com.schriftgestaltung.Glyphs.ColorIndex = 4;
};
},
{
glyphname = dcaron;
lastChange = "2022-02-17 13:53:55 +0000";
layers = (
{
components = (
{
name = d;
}
);
layerId = "A69CC389-2ECF-459C-A4E4-3168912CA6B4";
paths = (
{
closed = 1;
nodes = (
"690 740 LINE",
"690 594 LINE",
"762 594 LINE",
"762 582 LINE SMOOTH",
"762 531 OFFCURVE",
"742 508 OFFCURVE",
"707 508 CURVE",
"707 429 LINE",
"821 429 OFFCURVE",
"872 509 OFFCURVE",
"872 606 CURVE SMOOTH",
"872 648 OFFCURVE",
"864 694 OFFCURVE",
"846 740 CURVE"
);
}
);
width = 882;
},
{
components = (
{
name = d;
}
);
layerId = "4D0F633C-81E1-4D6C-A640-637CE706A5C5";
paths = (
{
closed = 1;
nodes = (
"654 740 LINE",
"654 643 LINE",
"707 643 LINE",
"707 622 LINE SMOOTH",
"707 585 OFFCURVE",
"692 566 OFFCURVE",
"658 566 CURVE",
"658 516 LINE",
"733 516 OFFCURVE",
"771 558 OFFCURVE",
"771 640 CURVE SMOOTH",
"771 670 OFFCURVE",
"766 703 OFFCURVE",
"757 740 CURVE"
);
}
);
width = 781;
}
);
leftKerningGroup = o;
rightKerningGroup = l;
unicode = 010F;
userData = {
com.schriftgestaltung.Glyphs.ColorIndex = 8;
com.typesupply.AccentFactory.compileType = manual;
};
},
{
glyphname = dcroat;
lastChange = "2022-02-17 13:53:55 +0000";
layers = (
{
components = (
{
name = d;
}
);
layerId = "A69CC389-2ECF-459C-A4E4-3168912CA6B4";
paths = (
{
closed = 1;
nodes = (
"349 592 LINE",
"694 592 LINE",
"694 688 LINE",
"349 688 LINE"
);
}
);
width = 704;
},
{
components = (
{
name = d;
}
);
layerId = "4D0F633C-81E1-4D6C-A640-637CE706A5C5";
paths = (
{
closed = 1;
nodes = (
"406 590 LINE",
"662 590 LINE",
"662 656 LINE",
"406 656 LINE"
);
}
);
width = 678;
}
);
leftKerningGroup = o;
rightKerningGroup = l;
unicode = 0111;
userData = {
com.schriftgestaltung.Glyphs.ColorIndex = 8;
};
},
{
glyphname = e;
lastChange = "2022-04-11 08:38:43 +0000";
layers = (
{
anchors = (
{
name = bottom;
position = "{308, -7}";
},
{
name = ogonek;
position = "{403, 8}";
},
{
name = top;
position = "{308, 571}";
}
);
guideLines = (
{
position = "{789, -221}";
}
);
layerId = "A69CC389-2ECF-459C-A4E4-3168912CA6B4";
paths = (
{
closed = 1;
nodes = (
"216 243 LINE",
"593 243 LINE",
"595 257 OFFCURVE",
"596 273 OFFCURVE",
"596 287 CURVE SMOOTH",
"596 464 OFFCURVE",
"477 571 OFFCURVE",
"308 571 CURVE",
"139 571 OFFCURVE",
"20 462 OFFCURVE",
"20 282 CURVE SMOOTH",
"20 102 OFFCURVE",
"139 -7 OFFCURVE",
"308 -7 CURVE SMOOTH",
"450 -7 OFFCURVE",
"560 83 OFFCURVE",
"584 203 CURVE",
"349 203 LINE",
"341 186 OFFCURVE",
"326 170 OFFCURVE",
"297 170 CURVE SMOOTH",
"264 170 OFFCURVE",
"236 189 OFFCURVE",
"236 258 CURVE SMOOTH",
"236 311 LINE SMOOTH",
"236 370 OFFCURVE",
"263 397 OFFCURVE",
"308 397 CURVE",
"341 397 OFFCURVE",
"371 379 OFFCURVE",
"371 340 CURVE",
"216 340 LINE"
);
}
);
width = 616;
},
{
anchors = (
{
name = bottom;
position = "{310, 0}";
},
{
name = ogonek;
position = "{419, 14}";
},
{
name = top;
position = "{310, 551}";
}
);
layerId = "4D0F633C-81E1-4D6C-A640-637CE706A5C5";
paths = (
{
closed = 1;
nodes = (
"136 233 LINE",
"577 233 LINE",
"580 252 OFFCURVE",
"581 270 OFFCURVE",
"581 289 CURVE SMOOTH",
"581 451 OFFCURVE",
"470 560 OFFCURVE",
"313 560 CURVE SMOOTH",
"150 560 OFFCURVE",
"38 449 OFFCURVE",
"38 276 CURVE SMOOTH",
"38 103 OFFCURVE",
"155 -9 OFFCURVE",
"313 -9 CURVE SMOOTH",
"448 -9 OFFCURVE",
"535 68 OFFCURVE",
"566 164 CURVE",
"443 164 LINE",
"422 121 OFFCURVE",
"383 87 OFFCURVE",
"313 87 CURVE SMOOTH",
"224 87 OFFCURVE",
"155 150 OFFCURVE",
"155 251 CURVE SMOOTH",
"155 295 LINE SMOOTH",
"155 400 OFFCURVE",
"222 464 OFFCURVE",
"308 464 CURVE SMOOTH",
"393 464 OFFCURVE",
"460 410 OFFCURVE",
"462 325 CURVE",
"137 325 LINE"
);
}
);
width = 619;
}
);
leftKerningGroup = o;
leftMetricsKey = o;
rightKerningGroup = e;
rightMetricsKey = o;
unicode = 0065;
userData = {
com.schriftgestaltung.Glyphs.ColorIndex = 4;
com.typemytype.robofont.layerData = {
b = {
anchors = (
{
name = top;
x = 314;
y = 540;
},
{
name = ogonek;
x = 442;
y = 45;
},
{
name = bottom;
x = 314;
y = 0;
}
);
components = (
);
contours = (
{
points = (
{
segmentType = line;
smooth = 0;
x = 54;
y = 261;
},
{
segmentType = line;
smooth = 0;
x = 564;
y = 261;
},
{
smooth = 0;
x = 567;
y = 280;
},
{
smooth = 0;
x = 568;
y = 298;
},
{
segmentType = curve;
smooth = 1;
x = 568;
y = 315;
},
{
smooth = 0;
x = 568;
y = 434;
},
{
smooth = 0;
x = 482;
y = 552;
},
{
segmentType = curve;
smooth = 1;
x = 330;
y = 552;
},
{
smooth = 0;
x = 164;
y = 552;
},
{
smooth = 0;
x = 60;
y = 438;
},
{
segmentType = curve;
smooth = 1;
x = 60;
y = 270;
},
{
smooth = 0;
x = 60;
y = 103;
},
{
smooth = 0;
x = 164;
y = -12;
},
{
segmentType = curve;
smooth = 1;
x = 316;
y = -12;
},
{
smooth = 0;
x = 451;
y = -12;
},
{
smooth = 0;
x = 516;
y = 66;
},
{
segmentType = curve;
smooth = 0;
x = 548;
y = 137;
},
{
segmentType = line;
smooth = 0;
x = 528;
y = 137;
},
{
smooth = 0;
x = 505;
y = 60;
},
{
smooth = 0;
x = 424;
y = -1;
},
{
segmentType = curve;
smooth = 1;
x = 316;
y = -1;
},
{
smooth = 0;
x = 186;
y = -1;
},
{
smooth = 0;
x = 81;
y = 93;
},
{
segmentType = curve;
smooth = 1;
x = 81;
y = 269;
},
{
segmentType = line;
smooth = 1;
x = 81;
y = 274;
},
{
smooth = 0;
x = 81;
y = 447;
},
{
smooth = 0;
x = 183;
y = 541;
},
{
segmentType = curve;
smooth = 1;
x = 316;
y = 541;
},
{
smooth = 0;
x = 448;
y = 541;
},
{
smooth = 0;
x = 551;
y = 448;
},
{
segmentType = curve;
smooth = 0;
x = 549;
y = 290;
},
{
segmentType = line;
smooth = 0;
x = 53;
y = 290;
}
);
}
);
lib = {
};
name = e;
unicodes = (
);
width = 628;
};
};
com.typesupply.AccentFactory.yCoordinates = {
bottom = {
name = origin;
type = glyphMetric;
};
top = {
name = xHeight;
type = fontInfo;
};
};
};
},
{
glyphname = eogonek;
lastChange = "2022-04-10 14:39:22 +0000";
layers = (
{
background = {
paths = (
{
closed = 1;
nodes = (
"20 282 CURVE",
"20 135 OFFCURVE",
"99 36 OFFCURVE",
"220 4 CURVE",
"220 -6 OFFCURVE",
"220 -17 OFFCURVE",
"220 -27 CURVE",
"220 -122 OFFCURVE",
"303 -149 OFFCURVE",
"370 -149 CURVE",
"528 -149 LINE",
"528 -36 LINE",
"403 -36 LINE",
"377 -36 OFFCURVE",
"367 -29 OFFCURVE",
"367 -17 CURVE",
"367 -5 OFFCURVE",
"376 0 OFFCURVE",
"388 3 CURVE SMOOTH",
"491 29 OFFCURVE",
"564 107 OFFCURVE",
"584 203 CURVE",
"349 203 LINE",
"341 186 OFFCURVE",
"327 170 OFFCURVE",
"298 170 CURVE SMOOTH",
"268 170 OFFCURVE",
"236 188 OFFCURVE",
"236 258 CURVE SMOOTH",
"236 311 LINE SMOOTH",
"236 370 OFFCURVE",
"263 397 OFFCURVE",
"308 397 CURVE",
"341 397 OFFCURVE",
"371 379 OFFCURVE",
"371 334 CURVE",
"216 334 LINE",
"216 243 LINE",
"591 243 LINE",
"594 257 OFFCURVE",
"596 273 OFFCURVE",
"596 287 CURVE",
"596 464 OFFCURVE",
"477 571 OFFCURVE",
"308 571 CURVE",
"139 571 OFFCURVE",
"20 462 OFFCURVE"
);
}
);
};
components = (
{
name = e;
},
{
name = ogonek;
transform = "{1, 0, 0, 1, 111, 8}";
}
);
layerId = "A69CC389-2ECF-459C-A4E4-3168912CA6B4";
width = 616;
},
{
background = {
paths = (
{
closed = 1;
nodes = (
"37 276 CURVE SMOOTH",
"37 113 OFFCURVE",
"137 4 OFFCURVE",
"281 -8 CURVE",
"279 -14 OFFCURVE",
"278 -22 OFFCURVE",
"278 -30 CURVE SMOOTH",
"278 -99 OFFCURVE",
"335 -139 OFFCURVE",
"406 -139 CURVE SMOOTH",
"512 -139 LINE",
"512 -67 LINE",
"428 -67 LINE SMOOTH",
"393 -67 OFFCURVE",
"372 -60 OFFCURVE",
"372 -30 CURVE SMOOTH",
"372 -9 OFFCURVE",
"387 0 OFFCURVE",
"414 10 CURVE SMOOTH",
"481 35 OFFCURVE",
"537 90 OFFCURVE",
"561 164 CURVE",
"438 164 LINE",
"417 121 OFFCURVE",
"377 87 OFFCURVE",
"307 87 CURVE SMOOTH",
"218 87 OFFCURVE",
"154 150 OFFCURVE",
"154 251 CURVE SMOOTH",
"154 295 LINE SMOOTH",
"154 400 OFFCURVE",
"221 464 OFFCURVE",
"307 464 CURVE SMOOTH",
"392 464 OFFCURVE",
"459 407 OFFCURVE",
"461 315 CURVE",
"143 315 LINE",
"142 237 LINE",
"576 237 LINE",
"579 256 OFFCURVE",
"580 274 OFFCURVE",
"580 291 CURVE SMOOTH",
"580 451 OFFCURVE",
"469 560 OFFCURVE",
"312 560 CURVE SMOOTH",
"149 560 OFFCURVE",
"37 449 OFFCURVE"
);
}
);
};
components = (
{
name = e;
},
{
name = ogonek;
transform = "{1, 0, 0, 1, 210, 14}";
}
);
layerId = "4D0F633C-81E1-4D6C-A640-637CE706A5C5";
width = 619;
}
);
leftKerningGroup = o;
rightKerningGroup = e;
unicode = 0119;
userData = {
com.schriftgestaltung.Glyphs.ColorIndex = 8;
};
},
{
glyphname = f;
lastChange = "2022-04-10 14:40:37 +0000";
layers = (
{
layerId = "A69CC389-2ECF-459C-A4E4-3168912CA6B4";
paths = (
{
closed = 1;
nodes = (
"70 0 LINE",
"292 0 LINE",
"292 539 LINE SMOOTH",
"292 595 OFFCURVE",
"314 611 OFFCURVE",
"375 604 CURVE",
"375 793 LINE",
"182 810 OFFCURVE",
"70 722 OFFCURVE",
"70 559 CURVE SMOOTH"
);
},
{
closed = 1;
nodes = (
"10 379 LINE",
"375 379 LINE",
"375 564 LINE",
"10 564 LINE"
);
}
);
width = 385;
},
{
layerId = "4D0F633C-81E1-4D6C-A640-637CE706A5C5";
paths = (
{
closed = 1;
nodes = (
"93 0 LINE",
"208 0 LINE",
"208 590 LINE SMOOTH",
"208 653 OFFCURVE",
"232 677 OFFCURVE",
"302 677 CURVE",
"302 772 LINE",
"158 772 OFFCURVE",
"93 717 OFFCURVE",
"93 590 CURVE SMOOTH"
);
},
{
closed = 1;
nodes = (
"28 458 LINE",
"310 458 LINE",
"310 551 LINE",
"28 551 LINE"
);
}
);
width = 330;
}
);
leftKerningGroup = f;
rightKerningGroup = f;
unicode = 0066;
userData = {
com.schriftgestaltung.Glyphs.ColorIndex = 4;
com.typemytype.robofont.layerData = {
b = {
anchors = (
);
components = (
);
contours = (
{
points = (
{
segmentType = line;
smooth = 0;
x = 108;
y = 0;
},
{
segmentType = line;
smooth = 0;
x = 128;
y = 0;
},
{
segmentType = line;
smooth = 1;
x = 128;
y = 609;
},
{
smooth = 0;
x = 128;
y = 701;
},
{
smooth = 0;
x = 162;
y = 742;
},
{
segmentType = curve;
smooth = 0;
x = 275;
y = 742;
},
{
segmentType = line;
smooth = 0;
x = 275;
y = 753;
},
{
smooth = 0;
x = 158;
y = 753;
},
{
smooth = 0;
x = 108;
y = 711;
},
{
segmentType = curve;
smooth = 1;
x = 108;
y = 609;
}
);
}
);
lib = {
};
name = f;
unicodes = (
);
width = 318;
};
};
com.typesupply.AccentFactory.yCoordinates = {
bottom = {
name = origin;
type = glyphMetric;
};
top = {
name = ascender;
type = fontInfo;
};
};
};
},
{
glyphname = g;
lastChange = "2022-04-10 14:41:21 +0000";
layers = (
{
anchors = (
{
name = top;
position = "{347, 564}";
}
);
layerId = "A69CC389-2ECF-459C-A4E4-3168912CA6B4";
paths = (
{
closed = 1;
nodes = (
"123 571 OFFCURVE",
"20 464 OFFCURVE",
"20 282 CURVE",
"20 100 OFFCURVE",
"123 -7 OFFCURVE",
"253 -7 CURVE",
"328 -7 OFFCURVE",
"382 26 OFFCURVE",
"409 77 CURVE",
"409 10 LINE",
"409 -69 OFFCURVE",
"371 -85 OFFCURVE",
"326 -85 CURVE SMOOTH",
"285 -85 OFFCURVE",
"260 -70 OFFCURVE",
"254 -41 CURVE",
"36 -41 LINE",
"51 -184 OFFCURVE",
"158 -277 OFFCURVE",
"342 -277 CURVE SMOOTH",
"553 -277 OFFCURVE",
"630 -139 OFFCURVE",
"630 10 CURVE",
"630 564 LINE",
"409 564 LINE",
"409 487 LINE",
"382 538 OFFCURVE",
"328 571 OFFCURVE",
"253 571 CURVE"
);
},
{
closed = 1;
nodes = (
"409 282 CURVE",
"409 220 OFFCURVE",
"373 187 OFFCURVE",
"327 187 CURVE",
"281 187 OFFCURVE",
"245 220 OFFCURVE",
"245 282 CURVE",
"245 344 OFFCURVE",
"281 377 OFFCURVE",
"327 377 CURVE",
"373 377 OFFCURVE",
"409 344 OFFCURVE"
);
}
);
width = 675;
},
{
anchors = (
{
name = top;
position = "{340, 551}";
}
);
background = {
paths = (
{
closed = 1;
nodes = (
"153 560 OFFCURVE",
"38 448 OFFCURVE",
"38 278 CURVE SMOOTH",
"38 108 OFFCURVE",
"153 -9 OFFCURVE",
"298 -9 CURVE SMOOTH",
"388 -9 OFFCURVE",
"454 39 OFFCURVE",
"489 103 CURVE",
"489 -9 LINE SMOOTH",
"489 -119 OFFCURVE",
"423 -173 OFFCURVE",
"335 -173 CURVE SMOOTH",
"256 -173 OFFCURVE",
"195 -134 OFFCURVE",
"178 -77 CURVE",
"65 -77 LINE",
"79 -199 OFFCURVE",
"188 -272 OFFCURVE",
"335 -272 CURVE SMOOTH",
"507 -272 OFFCURVE",
"604 -159 OFFCURVE",
"604 -9 CURVE SMOOTH",
"604 551 LINE",
"489 551 LINE",
"489 453 LINE",
"455 514 OFFCURVE",
"388 560 OFFCURVE",
"298 560 CURVE SMOOTH"
);
},
{
closed = 1;
nodes = (
"489 276 CURVE SMOOTH",
"489 157 OFFCURVE",
"408 90 OFFCURVE",
"322 90 CURVE SMOOTH",
"237 90 OFFCURVE",
"155 159 OFFCURVE",
"155 278 CURVE SMOOTH",
"155 397 OFFCURVE",
"237 461 OFFCURVE",
"322 461 CURVE SMOOTH",
"408 461 OFFCURVE",
"489 394 OFFCURVE"
);
}
);
};
layerId = "4D0F633C-81E1-4D6C-A640-637CE706A5C5";
paths = (
{
closed = 1;
nodes = (
"153 560 OFFCURVE",
"38 448 OFFCURVE",
"38 278 CURVE SMOOTH",
"38 108 OFFCURVE",
"153 -9 OFFCURVE",
"298 -9 CURVE SMOOTH",
"388 -9 OFFCURVE",
"454 36 OFFCURVE",
"489 83 CURVE",
"489 -9 LINE SMOOTH",
"489 -119 OFFCURVE",
"423 -173 OFFCURVE",
"335 -173 CURVE SMOOTH",
"256 -173 OFFCURVE",
"195 -134 OFFCURVE",
"178 -77 CURVE",
"65 -77 LINE",
"79 -199 OFFCURVE",
"188 -272 OFFCURVE",
"335 -272 CURVE SMOOTH",
"507 -272 OFFCURVE",
"604 -159 OFFCURVE",
"604 -9 CURVE SMOOTH",
"604 551 LINE",
"489 551 LINE",
"489 471 LINE",
"455 518 OFFCURVE",
"388 560 OFFCURVE",
"298 560 CURVE SMOOTH"
);
},
{
closed = 1;
nodes = (
"489 276 CURVE SMOOTH",
"489 157 OFFCURVE",
"408 90 OFFCURVE",
"322 90 CURVE SMOOTH",
"237 90 OFFCURVE",
"155 159 OFFCURVE",
"155 278 CURVE SMOOTH",
"155 397 OFFCURVE",
"237 461 OFFCURVE",
"322 461 CURVE SMOOTH",
"408 461 OFFCURVE",
"489 394 OFFCURVE"
);
}
);
width = 674;
}
);
leftKerningGroup = g;
leftMetricsKey = o;
rightKerningGroup = g;
unicode = 0067;
userData = {
com.schriftgestaltung.Glyphs.ColorIndex = 4;
com.typesupply.AccentFactory.yCoordinates = {
top = {
name = xHeight;
type = fontInfo;
};
};
};
},
{
glyphname = gcommaaccent;
lastChange = "2022-02-17 13:53:55 +0000";
layers = (
{
components = (
{
name = g;
}
);
layerId = "A69CC389-2ECF-459C-A4E4-3168912CA6B4";
paths = (
{
closed = 1;
nodes = (
"438 599 LINE",
"438 746 LINE",
"366 746 LINE",
"366 757 LINE SMOOTH",
"366 809 OFFCURVE",
"387 832 OFFCURVE",
"421 832 CURVE",
"421 910 LINE",
"308 910 OFFCURVE",
"257 830 OFFCURVE",
"257 734 CURVE SMOOTH",
"257 692 OFFCURVE",
"264 646 OFFCURVE",
"282 599 CURVE"
);
}
);
width = 680;
},
{
components = (
{
name = g;
}
);
layerId = "4D0F633C-81E1-4D6C-A640-637CE706A5C5";
paths = (
{
closed = 1;
nodes = (
"393 597 LINE",
"393 694 LINE",
"341 694 LINE",
"341 715 LINE SMOOTH",
"341 752 OFFCURVE",
"356 771 OFFCURVE",
"389 771 CURVE",
"389 821 LINE",
"315 821 OFFCURVE",
"277 779 OFFCURVE",
"277 696 CURVE SMOOTH",
"277 667 OFFCURVE",
"281 634 OFFCURVE",
"290 597 CURVE"
);
}
);
width = 678;
}
);
leftKerningGroup = g;
rightKerningGroup = g;
unicode = 0123;
userData = {
com.schriftgestaltung.Glyphs.ColorIndex = 8;
com.typesupply.AccentFactory.compileType = manual;
};
},
{
glyphname = h;
lastChange = "2022-02-17 13:53:55 +0000";
layers = (
{
layerId = "A69CC389-2ECF-459C-A4E4-3168912CA6B4";
paths = (
{
closed = 1;
nodes = (
"50 0 LINE",
"272 0 LINE",
"272 740 LINE",
"50 740 LINE"
);
},
{
closed = 1;
nodes = (
"430 0 LINE",
"651 0 LINE",
"651 327 LINE SMOOTH",
"651 473 OFFCURVE",
"575 568 OFFCURVE",
"445 568 CURVE SMOOTH",
"345 568 OFFCURVE",
"284 511 OFFCURVE",
"257 451 CURVE",
"272 299 LINE",
"272 353 OFFCURVE",
"302 386 OFFCURVE",
"351 386 CURVE SMOOTH",
"399 386 OFFCURVE",
"430 353 OFFCURVE",
"430 299 CURVE SMOOTH"
);
}
);
width = 697;
},
{
background = {
paths = (
{
closed = 1;
nodes = (
"75 0 LINE",
"189 0 LINE",
"189 740 LINE",
"75 740 LINE"
);
},
{
closed = 1;
nodes = (
"466 0 LINE",
"579 0 LINE",
"579 325 LINE SMOOTH",
"579 479 OFFCURVE",
"483 560 OFFCURVE",
"360 560 CURVE SMOOTH",
"266 560 OFFCURVE",
"187 510 OFFCURVE",
"165 426 CURVE",
"189 308 LINE",
"189 409 OFFCURVE",
"244 461 OFFCURVE",
"328 461 CURVE SMOOTH",
"411 461 OFFCURVE",
"466 409 OFFCURVE",
"466 308 CURVE SMOOTH"
);
}
);
};
layerId = "4D0F633C-81E1-4D6C-A640-637CE706A5C5";
paths = (
{
closed = 1;
nodes = (
"75 0 LINE",
"189 0 LINE",
"189 740 LINE",
"75 740 LINE"
);
},
{
closed = 1;
nodes = (
"466 0 LINE",
"579 0 LINE",
"579 325 LINE SMOOTH",
"579 479 OFFCURVE",
"483 560 OFFCURVE",
"360 560 CURVE SMOOTH",
"264 560 OFFCURVE",
"183 510 OFFCURVE",
"159 432 CURVE",
"189 308 LINE",
"189 409 OFFCURVE",
"244 461 OFFCURVE",
"328 461 CURVE SMOOTH",
"411 461 OFFCURVE",
"466 409 OFFCURVE",
"466 308 CURVE SMOOTH"
);
}
);
width = 649;
}
);
leftKerningGroup = h;
leftMetricsKey = l;
rightKerningGroup = n;
rightMetricsKey = n;
unicode = 0068;
userData = {
com.schriftgestaltung.Glyphs.ColorIndex = 4;
com.typesupply.AccentFactory.yCoordinates = {
bottom = {
name = origin;
type = glyphMetric;
};
top = {
name = ascender;
type = fontInfo;
};
};
};
},
{
glyphname = i;
lastChange = "2022-04-10 17:07:14 +0000";
layers = (
{
anchors = (
{
name = ogonek;
position = "{272, -1}";
}
);
layerId = "A69CC389-2ECF-459C-A4E4-3168912CA6B4";
paths = (
{
closed = 1;
nodes = (
"50 0 LINE",
"272 0 LINE",
"272 564 LINE",
"50 564 LINE"
);
},
{
closed = 1;
nodes = (
"162 609 CURVE SMOOTH",
"240 609 OFFCURVE",
"289 657 OFFCURVE",
"289 718 CURVE SMOOTH",
"289 780 OFFCURVE",
"240 829 OFFCURVE",
"162 829 CURVE SMOOTH",
"83 829 OFFCURVE",
"34 780 OFFCURVE",
"34 718 CURVE SMOOTH",
"34 657 OFFCURVE",
"83 609 OFFCURVE"
);
}
);
width = 323;
},
{
anchors = (
{
name = ogonek;
position = "{189, 1}";
}
);
layerId = "4D0F633C-81E1-4D6C-A640-637CE706A5C5";
paths = (
{
closed = 1;
nodes = (
"75 0 LINE",
"189 0 LINE",
"189 551 LINE",
"75 551 LINE"
);
},
{
closed = 1;
nodes = (
"133 624 CURVE SMOOTH",
"173 624 OFFCURVE",
"205 656 OFFCURVE",
"205 697 CURVE SMOOTH",
"205 738 OFFCURVE",
"173 770 OFFCURVE",
"133 770 CURVE SMOOTH",
"92 770 OFFCURVE",
"60 738 OFFCURVE",
"60 697 CURVE SMOOTH",
"60 656 OFFCURVE",
"92 624 OFFCURVE"
);
}
);
width = 265;
}
);
leftKerningGroup = i;
rightKerningGroup = i;
unicode = 0069;
userData = {
com.schriftgestaltung.Glyphs.ColorIndex = 4;
com.typemytype.robofont.guides = (
{
angle = 0;
isGlobal = 0;
magnetic = 5;
x = 82;
y = 540;
}
);
com.typesupply.AccentFactory.yCoordinates = {
bottom = {
name = origin;
type = glyphMetric;
};
};
};
},
{
glyphname = dotlessi;
lastChange = "2022-04-10 17:06:51 +0000";
layers = (
{
anchors = (
{
name = ogonek;
position = "{335, 10}";
},
{
name = top;
position = "{187, 564}";
}
);
layerId = "A69CC389-2ECF-459C-A4E4-3168912CA6B4";
paths = (
{
closed = 1;
nodes = (
"75 0 LINE",
"297 0 LINE",
"297 564 LINE",
"75 564 LINE"
);
}
);
width = 372;
},
{
anchors = (
{
name = ogonek;
position = "{238, 10}";
},
{
name = top;
position = "{132, 551}";
}
);
layerId = "4D0F633C-81E1-4D6C-A640-637CE706A5C5";
paths = (
{
closed = 1;
nodes = (
"75 0 LINE",
"189 0 LINE",
"189 551 LINE",
"75 551 LINE"
);
}
);
width = 264;
}
);
leftKerningGroup = i;
rightKerningGroup = i;
unicode = 0131;
userData = {
com.schriftgestaltung.Glyphs.ColorIndex = 4;
com.typesupply.AccentFactory.yCoordinates = {
bottom = {
name = origin;
type = glyphMetric;
};
top = {
name = xHeight;
type = fontInfo;
};
};
};
},
{
glyphname = j;
lastChange = "2022-04-10 16:13:57 +0000";
layers = (
{
layerId = "A69CC389-2ECF-459C-A4E4-3168912CA6B4";
paths = (
{
closed = 1;
nodes = (
"160 609 CURVE SMOOTH",
"238 609 OFFCURVE",
"287 657 OFFCURVE",
"287 718 CURVE SMOOTH",
"287 780 OFFCURVE",
"238 829 OFFCURVE",
"160 829 CURVE SMOOTH",
"81 829 OFFCURVE",
"32 780 OFFCURVE",
"32 718 CURVE SMOOTH",
"32 657 OFFCURVE",
"81 609 OFFCURVE"
);
},
{
closed = 1;
nodes = (
"50 564 LINE",
"50 -43 LINE SMOOTH",
"50 -69 OFFCURVE",
"38 -81 OFFCURVE",
"9 -81 CURVE SMOOTH",
"-34 -81 LINE",
"-34 -270 LINE",
"40 -270 LINE SMOOTH",
"172 -270 OFFCURVE",
"272 -214 OFFCURVE",
"272 -39 CURVE SMOOTH",
"272 564 LINE"
);
}
);
width = 321;
},
{
layerId = "4D0F633C-81E1-4D6C-A640-637CE706A5C5";
paths = (
{
closed = 1;
nodes = (
"133 624 CURVE SMOOTH",
"173 624 OFFCURVE",
"205 656 OFFCURVE",
"205 697 CURVE SMOOTH",
"205 738 OFFCURVE",
"173 770 OFFCURVE",
"133 770 CURVE SMOOTH",
"92 770 OFFCURVE",
"60 738 OFFCURVE",
"60 697 CURVE SMOOTH",
"60 656 OFFCURVE",
"92 624 OFFCURVE"
);
},
{
closed = 1;
nodes = (
"75 551 LINE",
"75 -108 LINE SMOOTH",
"75 -149 OFFCURVE",
"59 -166 OFFCURVE",
"11 -166 CURVE SMOOTH",
"-28 -166 LINE",
"-28 -262 LINE",
"31 -262 LINE SMOOTH",
"129 -262 OFFCURVE",
"189 -220 OFFCURVE",
"189 -108 CURVE SMOOTH",
"189 551 LINE"
);
}
);
width = 265;
}
);
leftKerningGroup = j;
rightKerningGroup = j;
rightMetricsKey = i;
unicode = 006A;
userData = {
com.schriftgestaltung.Glyphs.ColorIndex = 4;
com.typesupply.AccentFactory.yCoordinates = {
bottom = {
name = origin;
type = glyphMetric;
};
};
};
},
{
color = 6;
glyphname = k;
lastChange = "2022-04-10 14:50:47 +0000";
layers = (
{
anchors = (
{
name = bottom;
position = "{347, 0}";
}
);
layerId = "A69CC389-2ECF-459C-A4E4-3168912CA6B4";
paths = (
{
closed = 1;
nodes = (
"50 0 LINE",
"272 0 LINE",
"272 740 LINE",
"50 740 LINE"
);
},
{
closed = 1;
nodes = (
"272 291 LINE",
"416 0 LINE",
"676 0 LINE",
"487 298 LINE",
"494 271 LINE",
"671 564 LINE",
"418 564 LINE"
);
}
);
width = 674;
},
{
anchors = (
{
name = bottom;
position = "{277, 0}";
}
);
layerId = "4D0F633C-81E1-4D6C-A640-637CE706A5C5";
paths = (
{
closed = 1;
nodes = (
"75 0 LINE",
"189 0 LINE",
"189 740 LINE",
"75 740 LINE"
);
},
{
closed = 1;
nodes = (
"207 273 LINE",
"402 0 LINE",
"555 0 LINE",
"330 288 LINE",
"323 255 LINE",
"546 551 LINE",
"398 551 LINE"
);
}
);
width = 560;
}
);
leftKerningGroup = h;
leftMetricsKey = l;
rightKerningGroup = k;
unicode = 006B;
userData = {
com.schriftgestaltung.Glyphs.ColorIndex = 4;
com.typemytype.robofont.guides = (
{
angle = 0;
isGlobal = 0;
magnetic = 5;
x = 86;
y = 740;
}
);
com.typesupply.AccentFactory.yCoordinates = {
bottom = {
name = origin;
type = glyphMetric;
};
top = {
name = ascender;
type = fontInfo;
};
};
};
},
{
color = 6;
glyphname = l;
lastChange = "2022-04-12 14:57:45 +0000";
layers = (
{
anchors = (
{
name = bottom;
position = "{163, 0}";
},
{
name = commaaccent;
position = "{163, 10}";
},
{
name = top;
position = "{163, 740}";
},
{
name = topright;
position = "{328, 564}";
}
);
layerId = "A69CC389-2ECF-459C-A4E4-3168912CA6B4";
paths = (
{
closed = 1;
nodes = (
"50 0 LINE",
"272 0 LINE",
"272 785 LINE",
"50 646 LINE"
);
}
);
width = 322;
},
{
anchors = (
{
name = bottom;
position = "{132, 0}";
},
{
name = commaaccent;
position = "{132, 10}";
},
{
name = top;
position = "{132, 740}";
},
{
name = topright;
position = "{244, 551}";
}
);
layerId = "4D0F633C-81E1-4D6C-A640-637CE706A5C5";
paths = (
{
closed = 1;
nodes = (
"75 0 LINE",
"189 0 LINE",
"189 774 LINE",
"75 678 LINE"
);
}
);
width = 264;
}
);
leftKerningGroup = h;
rightKerningGroup = l;
unicode = 006C;
userData = {
com.schriftgestaltung.Glyphs.ColorIndex = 4;
com.typesupply.AccentFactory.yCoordinates = {
bottom = {
name = origin;
type = glyphMetric;
};
top = {
name = ascender;
type = fontInfo;
};
};
};
},
{
glyphname = lslash;
lastChange = "2022-02-17 13:53:55 +0000";
layers = (
{
layerId = "A69CC389-2ECF-459C-A4E4-3168912CA6B4";
paths = (
{
closed = 1;
nodes = (
"10 241 LINE",
"362 338 LINE",
"362 534 LINE",
"10 437 LINE"
);
},
{
closed = 1;
nodes = (
"75 0 LINE",
"297 0 LINE",
"297 740 LINE",
"75 740 LINE"
);
}
);
width = 372;
},
{
layerId = "4D0F633C-81E1-4D6C-A640-637CE706A5C5";
paths = (
{
closed = 1;
nodes = (
"9 273 LINE",
"256 358 LINE",
"256 445 LINE",
"9 361 LINE"
);
},
{
closed = 1;
nodes = (
"75 0 LINE",
"189 0 LINE",
"189 740 LINE",
"75 740 LINE"
);
}
);
width = 264;
}
);
leftKerningGroup = lslash;
rightKerningGroup = lslash;
unicode = 0142;
userData = {
com.schriftgestaltung.Glyphs.ColorIndex = 4;
};
},
{
glyphname = m;
lastChange = "2022-04-10 16:14:08 +0000";
layers = (
{
layerId = "A69CC389-2ECF-459C-A4E4-3168912CA6B4";
paths = (
{
closed = 1;
nodes = (
"50 0 LINE",
"272 0 LINE",
"272 564 LINE",
"50 564 LINE"
);
},
{
closed = 1;
nodes = (
"430 0 LINE",
"651 0 LINE",
"651 327 LINE SMOOTH",
"651 473 OFFCURVE",
"566 568 OFFCURVE",
"435 568 CURVE SMOOTH",
"340 568 OFFCURVE",
"282 516 OFFCURVE",
"257 461 CURVE",
"272 299 LINE",
"272 347 OFFCURVE",
"302 376 OFFCURVE",
"351 376 CURVE SMOOTH",
"399 376 OFFCURVE",
"430 347 OFFCURVE",
"430 299 CURVE SMOOTH"
);
},
{
closed = 1;
nodes = (
"809 0 LINE",
"1030 0 LINE",
"1030 327 LINE SMOOTH",
"1030 473 OFFCURVE",
"949 568 OFFCURVE",
"803 568 CURVE SMOOTH",
"701 568 OFFCURVE",
"627 497 OFFCURVE",
"595 427 CURVE",
"651 299 LINE",
"651 347 OFFCURVE",
"681 376 OFFCURVE",
"730 376 CURVE SMOOTH",
"778 376 OFFCURVE",
"809 347 OFFCURVE",
"809 299 CURVE SMOOTH"
);
}
);
width = 1076;
},
{
background = {
paths = (
{
closed = 1;
nodes = (
"75 0 LINE",
"189 0 LINE",
"189 551 LINE",
"75 551 LINE"
);
},
{
closed = 1;
nodes = (
"466 0 LINE",
"579 0 LINE",
"579 325 LINE SMOOTH",
"579 479 OFFCURVE",
"483 560 OFFCURVE",
"365 560 CURVE SMOOTH",
"266 560 OFFCURVE",
"187 504 OFFCURVE",
"165 400 CURVE",
"189 308 LINE",
"189 409 OFFCURVE",
"244 461 OFFCURVE",
"328 461 CURVE SMOOTH",
"411 461 OFFCURVE",
"466 409 OFFCURVE",
"466 308 CURVE SMOOTH"
);
},
{
closed = 1;
nodes = (
"855 0 LINE",
"969 0 LINE",
"969 325 LINE SMOOTH",
"969 479 OFFCURVE",
"874 560 OFFCURVE",
"752 560 CURVE SMOOTH",
"643 560 OFFCURVE",
"561 491 OFFCURVE",
"534 389 CURVE",
"579 308 LINE",
"579 409 OFFCURVE",
"634 461 OFFCURVE",
"717 461 CURVE SMOOTH",
"801 461 OFFCURVE",
"855 409 OFFCURVE",
"855 308 CURVE SMOOTH"
);
}
);
};
layerId = "4D0F633C-81E1-4D6C-A640-637CE706A5C5";
paths = (
{
closed = 1;
nodes = (
"75 0 LINE",
"189 0 LINE",
"189 551 LINE",
"75 551 LINE"
);
},
{
closed = 1;
nodes = (
"466 0 LINE",
"579 0 LINE",
"579 325 LINE SMOOTH",
"579 479 OFFCURVE",
"481 560 OFFCURVE",
"352 560 CURVE SMOOTH",
"262 560 OFFCURVE",
"183 510 OFFCURVE",
"159 432 CURVE",
"189 308 LINE",
"189 409 OFFCURVE",
"244 461 OFFCURVE",
"328 461 CURVE SMOOTH",
"411 461 OFFCURVE",
"466 409 OFFCURVE",
"466 308 CURVE SMOOTH"
);
},
{
closed = 1;
nodes = (
"856 0 LINE",
"969 0 LINE",
"969 325 LINE SMOOTH",
"969 479 OFFCURVE",
"871 560 OFFCURVE",
"742 560 CURVE SMOOTH",
"654 560 OFFCURVE",
"570 510 OFFCURVE",
"542 432 CURVE",
"579 308 LINE",
"579 409 OFFCURVE",
"634 461 OFFCURVE",
"718 461 CURVE SMOOTH",
"801 461 OFFCURVE",
"856 409 OFFCURVE",
"856 308 CURVE SMOOTH"
);
}
);
width = 1039;
},
{
associatedMasterId = "4D0F633C-81E1-4D6C-A640-637CE706A5C5";
layerId = "CA51EDF8-FE7C-4192-A711-BF17F129972D";
name = "Sep 19 17, 16:56";
paths = (
{
closed = 1;
nodes = (
"75 0 LINE",
"189 0 LINE",
"189 551 LINE",
"75 551 LINE"
);
},
{
closed = 1;
nodes = (
"466 0 LINE",
"579 0 LINE",
"579 325 LINE SMOOTH",
"579 479 OFFCURVE",
"483 560 OFFCURVE",
"365 560 CURVE SMOOTH",
"266 560 OFFCURVE",
"187 504 OFFCURVE",
"165 400 CURVE",
"189 308 LINE",
"189 409 OFFCURVE",
"244 461 OFFCURVE",
"328 461 CURVE SMOOTH",
"411 461 OFFCURVE",
"466 409 OFFCURVE",
"466 308 CURVE SMOOTH"
);
},
{
closed = 1;
nodes = (
"855 0 LINE",
"969 0 LINE",
"969 325 LINE SMOOTH",
"969 479 OFFCURVE",
"874 560 OFFCURVE",
"752 560 CURVE SMOOTH",
"643 560 OFFCURVE",
"561 491 OFFCURVE",
"534 389 CURVE",
"579 308 LINE",
"579 409 OFFCURVE",
"634 461 OFFCURVE",
"717 461 CURVE SMOOTH",
"801 461 OFFCURVE",
"855 409 OFFCURVE",
"855 308 CURVE SMOOTH"
);
}
);
width = 1039;
}
);
leftKerningGroup = n;
leftMetricsKey = n;
rightKerningGroup = n;
rightMetricsKey = n;
unicode = 006D;
userData = {
com.schriftgestaltung.Glyphs.ColorIndex = 4;
com.typemytype.robofont.layerData = {
b = {
anchors = (
);
components = (
);
contours = (
{
points = (
{
segmentType = line;
smooth = 0;
x = 85;
y = 0;
},
{
segmentType = line;
smooth = 0;
x = 105;
y = 0;
},
{
segmentType = line;
smooth = 0;
x = 105;
y = 540;
},
{
segmentType = line;
smooth = 0;
x = 85;
y = 540;
}
);
},
{
points = (
{
segmentType = line;
smooth = 0;
x = 485;
y = 0;
},
{
segmentType = line;
smooth = 0;
x = 504;
y = 0;
},
{
segmentType = line;
smooth = 1;
x = 504;
y = 325;
},
{
smooth = 0;
x = 504;
y = 485;
},
{
smooth = 0;
x = 399;
y = 552;
},
{
segmentType = curve;
smooth = 1;
x = 292;
y = 552;
},
{
smooth = 0;
x = 189;
y = 552;
},
{
smooth = 0;
x = 91;
y = 494;
},
{
segmentType = curve;
smooth = 0;
x = 72;
y = 345;
},
{
segmentType = line;
smooth = 0;
x = 105;
y = 317;
},
{
smooth = 0;
x = 105;
y = 465;
},
{
smooth = 0;
x = 181;
y = 536;
},
{
segmentType = curve;
smooth = 1;
x = 296;
y = 536;
},
{
smooth = 0;
x = 410;
y = 536;
},
{
smooth = 0;
x = 485;
y = 465;
},
{
segmentType = curve;
smooth = 1;
x = 485;
y = 317;
}
);
},
{
points = (
{
segmentType = line;
smooth = 0;
x = 884;
y = 0;
},
{
segmentType = line;
smooth = 0;
x = 903;
y = 0;
},
{
segmentType = line;
smooth = 1;
x = 903;
y = 325;
},
{
smooth = 0;
x = 903;
y = 485;
},
{
smooth = 0;
x = 796;
y = 552;
},
{
segmentType = curve;
smooth = 1;
x = 694;
y = 552;
},
{
smooth = 0;
x = 580;
y = 552;
},
{
smooth = 0;
x = 492;
y = 487;
},
{
segmentType = curve;
smooth = 0;
x = 468;
y = 357;
},
{
segmentType = line;
smooth = 0;
x = 504;
y = 317;
},
{
smooth = 0;
x = 504;
y = 465;
},
{
smooth = 0;
x = 580;
y = 536;
},
{
segmentType = curve;
smooth = 1;
x = 695;
y = 536;
},
{
smooth = 0;
x = 809;
y = 536;
},
{
smooth = 0;
x = 884;
y = 465;
},
{
segmentType = curve;
smooth = 1;
x = 884;
y = 317;
}
);
}
);
lib = {
};
name = m;
unicodes = (
);
width = 1003;
};
};
com.typesupply.AccentFactory.yCoordinates = {
bottom = {
name = origin;
type = glyphMetric;
};
top = {
name = xHeight;
type = fontInfo;
};
};
};
},
{
glyphname = n;
lastChange = "2022-04-10 16:19:22 +0000";
layers = (
{
anchors = (
{
name = bottom;
position = "{348, 0}";
},
{
name = top;
position = "{384, 564}";
}
);
layerId = "A69CC389-2ECF-459C-A4E4-3168912CA6B4";
paths = (
{
closed = 1;
nodes = (
"50 0 LINE",
"272 0 LINE",
"272 564 LINE",
"50 564 LINE"
);
},
{
closed = 1;
nodes = (
"430 0 LINE",
"651 0 LINE",
"651 327 LINE SMOOTH",
"651 473 OFFCURVE",
"575 568 OFFCURVE",
"445 568 CURVE SMOOTH",
"345 568 OFFCURVE",
"284 511 OFFCURVE",
"257 451 CURVE",
"272 299 LINE",
"272 353 OFFCURVE",
"302 386 OFFCURVE",
"351 386 CURVE SMOOTH",
"399 386 OFFCURVE",
"430 353 OFFCURVE",
"430 299 CURVE SMOOTH"
);
}
);
width = 697;
},
{
anchors = (
{
name = bottom;
position = "{325, 0}";
},
{
name = top;
position = "{335, 551}";
}
);
background = {
paths = (
{
closed = 1;
nodes = (
"75 0 LINE",
"189 0 LINE",
"189 551 LINE",
"75 551 LINE"
);
},
{
closed = 1;
nodes = (
"466 0 LINE",
"579 0 LINE",
"579 325 LINE SMOOTH",
"579 479 OFFCURVE",
"483 560 OFFCURVE",
"365 560 CURVE SMOOTH",
"266 560 OFFCURVE",
"187 504 OFFCURVE",
"165 400 CURVE",
"189 308 LINE",
"189 409 OFFCURVE",
"244 461 OFFCURVE",
"328 461 CURVE SMOOTH",
"411 461 OFFCURVE",
"466 409 OFFCURVE",
"466 308 CURVE SMOOTH"
);
}
);
};
layerId = "4D0F633C-81E1-4D6C-A640-637CE706A5C5";
paths = (
{
closed = 1;
nodes = (
"75 0 LINE",
"189 0 LINE",
"189 551 LINE",
"75 551 LINE"
);
},
{
closed = 1;
nodes = (
"466 0 LINE",
"579 0 LINE",
"579 325 LINE SMOOTH",
"579 479 OFFCURVE",
"482 560 OFFCURVE",
"353 560 CURVE SMOOTH",
"263 560 OFFCURVE",
"183 510 OFFCURVE",
"159 432 CURVE",
"189 308 LINE",
"189 409 OFFCURVE",
"244 461 OFFCURVE",
"328 461 CURVE SMOOTH",
"411 461 OFFCURVE",
"466 409 OFFCURVE",
"466 308 CURVE SMOOTH"
);
}
);
width = 649;
},
{
anchors = (
{
name = bottom;
position = "{325, 0}";
},
{
name = top;
position = "{335, 551}";
}
);
associatedMasterId = "4D0F633C-81E1-4D6C-A640-637CE706A5C5";
background = {
paths = (
{
closed = 1;
nodes = (
"75 0 LINE",
"189 0 LINE",
"189 551 LINE",
"75 551 LINE"
);
},
{
closed = 1;
nodes = (
"466 0 LINE",
"579 0 LINE",
"579 325 LINE SMOOTH",
"579 479 OFFCURVE",
"483 560 OFFCURVE",
"365 560 CURVE SMOOTH",
"266 560 OFFCURVE",
"187 504 OFFCURVE",
"165 400 CURVE",
"189 308 LINE",
"189 409 OFFCURVE",
"244 461 OFFCURVE",
"328 461 CURVE SMOOTH",
"411 461 OFFCURVE",
"466 409 OFFCURVE",
"466 308 CURVE SMOOTH"
);
}
);
};
layerId = "BB94F266-7BE2-424B-94E2-63AFC42CD035";
name = "Sep 19 17, 16:53";
paths = (
{
closed = 1;
nodes = (
"75 0 LINE",
"189 0 LINE",
"189 551 LINE",
"75 551 LINE"
);
},
{
closed = 1;
nodes = (
"466 0 LINE",
"579 0 LINE",
"579 325 LINE SMOOTH",
"579 479 OFFCURVE",
"483 560 OFFCURVE",
"365 560 CURVE SMOOTH",
"266 560 OFFCURVE",
"187 504 OFFCURVE",
"165 400 CURVE",
"189 308 LINE",
"189 409 OFFCURVE",
"244 461 OFFCURVE",
"328 461 CURVE SMOOTH",
"411 461 OFFCURVE",
"466 409 OFFCURVE",
"466 308 CURVE SMOOTH"
);
}
);
width = 649;
}
);
leftKerningGroup = n;
rightKerningGroup = n;
unicode = 006E;
userData = {
com.schriftgestaltung.Glyphs.ColorIndex = 4;
com.typesupply.AccentFactory.yCoordinates = {
bottom = {
name = origin;
type = glyphMetric;
};
top = {
name = xHeight;
type = fontInfo;
};
};
};
},
{
glyphname = ncommaaccent;
lastChange = "2022-02-17 13:53:55 +0000";
layers = (
{
components = (
{
name = n;
}
);
layerId = "A69CC389-2ECF-459C-A4E4-3168912CA6B4";
paths = (
{
closed = 1;
nodes = (
"293 -35 LINE",
"293 -182 LINE",
"365 -182 LINE",
"365 -193 LINE SMOOTH",
"365 -245 OFFCURVE",
"344 -268 OFFCURVE",
"310 -268 CURVE",
"310 -346 LINE",
"423 -346 OFFCURVE",
"474 -266 OFFCURVE",
"474 -170 CURVE SMOOTH",
"474 -128 OFFCURVE",
"467 -82 OFFCURVE",
"449 -35 CURVE"
);
}
);
width = 697;
},
{
components = (
{
name = n;
}
);
layerId = "4D0F633C-81E1-4D6C-A640-637CE706A5C5";
paths = (
{
closed = 1;
nodes = (
"270 -46 LINE",
"270 -142 LINE",
"323 -142 LINE",
"323 -163 LINE SMOOTH",
"323 -201 OFFCURVE",
"308 -220 OFFCURVE",
"275 -220 CURVE",
"275 -270 LINE",
"349 -270 OFFCURVE",
"387 -228 OFFCURVE",
"387 -145 CURVE SMOOTH",
"387 -116 OFFCURVE",
"383 -83 OFFCURVE",
"373 -46 CURVE"
);
}
);
width = 649;
}
);
leftKerningGroup = n;
rightKerningGroup = n;
unicode = 0146;
userData = {
com.schriftgestaltung.Glyphs.ColorIndex = 8;
com.typesupply.AccentFactory.compileType = manual;
};
},
{
glyphname = o;
lastChange = "2022-04-10 16:28:07 +0000";
layers = (
{
anchors = (
{
name = top;
position = "{343, 564}";
}
);
layerId = "A69CC389-2ECF-459C-A4E4-3168912CA6B4";
paths = (
{
closed = 1;
nodes = (
"488 -7 OFFCURVE",
"616 102 OFFCURVE",
"616 282 CURVE",
"616 462 OFFCURVE",
"488 571 OFFCURVE",
"318 571 CURVE",
"148 571 OFFCURVE",
"20 462 OFFCURVE",
"20 282 CURVE",
"20 102 OFFCURVE",
"148 -7 OFFCURVE",
"318 -7 CURVE"
);
},
{
closed = 1;
nodes = (
"278 185 OFFCURVE",
"245 215 OFFCURVE",
"245 282 CURVE",
"245 349 OFFCURVE",
"279 379 OFFCURVE",
"318 379 CURVE",
"357 379 OFFCURVE",
"391 349 OFFCURVE",
"391 282 CURVE",
"391 215 OFFCURVE",
"357 185 OFFCURVE",
"318 185 CURVE"
);
}
);
width = 636;
},
{
anchors = (
{
name = top;
position = "{319, 560}";
}
);
layerId = "4D0F633C-81E1-4D6C-A640-637CE706A5C5";
paths = (
{
closed = 1;
nodes = (
"472 -9 OFFCURVE",
"600 103 OFFCURVE",
"600 276 CURVE SMOOTH",
"600 449 OFFCURVE",
"476 560 OFFCURVE",
"319 560 CURVE SMOOTH",
"162 560 OFFCURVE",
"38 449 OFFCURVE",
"38 276 CURVE SMOOTH",
"38 103 OFFCURVE",
"157 -9 OFFCURVE",
"314 -9 CURVE SMOOTH"
);
},
{
closed = 1;
nodes = (
"228 90 OFFCURVE",
"154 151 OFFCURVE",
"154 276 CURVE SMOOTH",
"154 401 OFFCURVE",
"231 461 OFFCURVE",
"317 461 CURVE SMOOTH",
"402 461 OFFCURVE",
"483 401 OFFCURVE",
"483 276 CURVE SMOOTH",
"483 151 OFFCURVE",
"399 90 OFFCURVE",
"314 90 CURVE SMOOTH"
);
}
);
width = 638;
}
);
leftKerningGroup = o;
rightKerningGroup = o;
unicode = 006F;
userData = {
com.schriftgestaltung.Glyphs.ColorIndex = 4;
com.typesupply.AccentFactory.yCoordinates = {
bottom = {
name = origin;
type = glyphMetric;
};
top = {
name = xHeight;
type = fontInfo;
};
};
};
},
{
glyphname = oslash;
lastChange = "2022-02-17 13:53:55 +0000";
layers = (
{
components = (
{
name = o;
transform = "{1, 0, 0, 1, -8, 0}";
}
);
layerId = "A69CC389-2ECF-459C-A4E4-3168912CA6B4";
paths = (
{
closed = 1;
nodes = (
"0 0 LINE",
"103 0 LINE",
"621 564 LINE",
"518 564 LINE"
);
}
);
width = 621;
},
{
components = (
{
name = o;
}
);
layerId = "4D0F633C-81E1-4D6C-A640-637CE706A5C5";
paths = (
{
closed = 1;
nodes = (
"28 0 LINE",
"107 0 LINE",
"610 551 LINE",
"531 551 LINE"
);
}
);
width = 638;
}
);
leftKerningGroup = o;
rightKerningGroup = o;
unicode = 00F8;
userData = {
com.schriftgestaltung.Glyphs.ColorIndex = 4;
};
},
{
glyphname = oe;
lastChange = "2022-02-17 13:53:55 +0000";
layers = (
{
layerId = "A69CC389-2ECF-459C-A4E4-3168912CA6B4";
paths = (
{
closed = 1;
nodes = (
"391 282 CURVE",
"391 215 OFFCURVE",
"357 185 OFFCURVE",
"318 185 CURVE",
"278 185 OFFCURVE",
"245 215 OFFCURVE",
"245 282 CURVE",
"245 349 OFFCURVE",
"279 379 OFFCURVE",
"318 379 CURVE",
"357 379 OFFCURVE",
"391 349 OFFCURVE"
);
},
{
closed = 1;
nodes = (
"20 282 CURVE",
"20 102 OFFCURVE",
"148 -7 OFFCURVE",
"318 -7 CURVE",
"390 -7 OFFCURVE",
"455 13 OFFCURVE",
"505 49 CURVE",
"554 13 OFFCURVE",
"616 -7 OFFCURVE",
"688 -7 CURVE SMOOTH",
"830 -7 OFFCURVE",
"940 83 OFFCURVE",
"964 203 CURVE",
"729 203 LINE",
"721 186 OFFCURVE",
"706 170 OFFCURVE",
"677 170 CURVE SMOOTH",
"644 170 OFFCURVE",
"616 185 OFFCURVE",
"616 258 CURVE SMOOTH",
"616 311 LINE SMOOTH",
"616 370 OFFCURVE",
"643 397 OFFCURVE",
"688 397 CURVE",
"721 397 OFFCURVE",
"751 379 OFFCURVE",
"751 334 CURVE",
"576 334 LINE",
"576 243 LINE",
"971 243 LINE",
"974 257 OFFCURVE",
"976 273 OFFCURVE",
"976 287 CURVE",
"976 464 OFFCURVE",
"857 571 OFFCURVE",
"688 571 CURVE",
"616 571 OFFCURVE",
"554 551 OFFCURVE",
"505 515 CURVE",
"455 551 OFFCURVE",
"390 571 OFFCURVE",
"318 571 CURVE",
"148 571 OFFCURVE",
"20 462 OFFCURVE"
);
}
);
width = 1022;
},
{
layerId = "4D0F633C-81E1-4D6C-A640-637CE706A5C5";
paths = (
{
closed = 1;
nodes = (
"482 276 CURVE SMOOTH",
"482 151 OFFCURVE",
"399 87 OFFCURVE",
"314 87 CURVE SMOOTH",
"228 87 OFFCURVE",
"154 151 OFFCURVE",
"154 276 CURVE SMOOTH",
"154 401 OFFCURVE",
"231 464 OFFCURVE",
"316 464 CURVE SMOOTH",
"402 464 OFFCURVE",
"482 401 OFFCURVE"
);
},
{
closed = 1;
nodes = (
"37 276 CURVE SMOOTH",
"37 103 OFFCURVE",
"156 -9 OFFCURVE",
"314 -9 CURVE SMOOTH",
"406 -9 OFFCURVE",
"488 33 OFFCURVE",
"538 107 CURVE",
"584 33 OFFCURVE",
"660 -9 OFFCURVE",
"752 -9 CURVE SMOOTH",
"887 -9 OFFCURVE",
"975 68 OFFCURVE",
"1006 164 CURVE",
"883 164 LINE",
"862 121 OFFCURVE",
"823 87 OFFCURVE",
"752 87 CURVE SMOOTH",
"663 87 OFFCURVE",
"600 150 OFFCURVE",
"600 251 CURVE SMOOTH",
"600 295 LINE SMOOTH",
"600 400 OFFCURVE",
"666 464 OFFCURVE",
"752 464 CURVE SMOOTH",
"837 464 OFFCURVE",
"904 407 OFFCURVE",
"906 315 CURVE",
"559 315 LINE",
"558 237 LINE",
"1021 237 LINE",
"1024 256 OFFCURVE",
"1025 274 OFFCURVE",
"1025 291 CURVE SMOOTH",
"1025 451 OFFCURVE",
"914 560 OFFCURVE",
"757 560 CURVE SMOOTH",
"662 560 OFFCURVE",
"585 518 OFFCURVE",
"539 446 CURVE",
"490 518 OFFCURVE",
"410 560 OFFCURVE",
"319 560 CURVE SMOOTH",
"162 560 OFFCURVE",
"37 449 OFFCURVE"
);
}
);
width = 1062;
}
);
leftKerningGroup = o;
rightKerningGroup = e;
unicode = 0153;
userData = {
com.schriftgestaltung.Glyphs.ColorIndex = 4;
com.typemytype.robofont.layerData = {
b = {
anchors = (
);
components = (
);
contours = (
{
points = (
{
segmentType = curve;
smooth = 1;
x = 569;
y = 270;
},
{
smooth = 0;
x = 569;
y = 98;
},
{
smooth = 0;
x = 444;
y = -1;
},
{
segmentType = curve;
smooth = 1;
x = 312;
y = -1;
},
{
smooth = 0;
x = 179;
y = -1;
},
{
smooth = 0;
x = 84;
y = 98;
},
{
segmentType = curve;
smooth = 1;
x = 84;
y = 270;
},
{
smooth = 0;
x = 84;
y = 444;
},
{
smooth = 0;
x = 191;
y = 541;
},
{
segmentType = curve;
smooth = 1;
x = 322;
y = 541;
},
{
smooth = 0;
x = 455;
y = 541;
},
{
smooth = 0;
x = 569;
y = 444;
}
);
},
{
points = (
{
segmentType = curve;
smooth = 1;
x = 64;
y = 270;
},
{
smooth = 0;
x = 64;
y = 103;
},
{
smooth = 0;
x = 162;
y = -12;
},
{
segmentType = curve;
smooth = 1;
x = 312;
y = -12;
},
{
smooth = 0;
x = 430;
y = -12;
},
{
smooth = 0;
x = 531;
y = 48;
},
{
segmentType = curve;
smooth = 0;
x = 578;
y = 146;
},
{
smooth = 0;
x = 620;
y = 48;
},
{
smooth = 0;
x = 709;
y = -12;
},
{
segmentType = curve;
smooth = 1;
x = 826;
y = -12;
},
{
smooth = 0;
x = 962;
y = -12;
},
{
smooth = 0;
x = 1026;
y = 66;
},
{
segmentType = curve;
smooth = 0;
x = 1059;
y = 137;
},
{
segmentType = line;
smooth = 0;
x = 1039;
y = 137;
},
{
smooth = 0;
x = 1015;
y = 60;
},
{
smooth = 0;
x = 934;
y = -1;
},
{
segmentType = curve;
smooth = 1;
x = 826;
y = -1;
},
{
smooth = 0;
x = 697;
y = -1;
},
{
smooth = 0;
x = 592;
y = 93;
},
{
segmentType = curve;
smooth = 1;
x = 592;
y = 269;
},
{
segmentType = line;
smooth = 1;
x = 592;
y = 274;
},
{
smooth = 0;
x = 592;
y = 447;
},
{
smooth = 0;
x = 694;
y = 541;
},
{
segmentType = curve;
smooth = 1;
x = 827;
y = 541;
},
{
smooth = 0;
x = 958;
y = 541;
},
{
smooth = 0;
x = 1062;
y = 448;
},
{
segmentType = curve;
smooth = 0;
x = 1059;
y = 290;
},
{
segmentType = line;
smooth = 0;
x = 570;
y = 290;
},
{
segmentType = line;
smooth = 0;
x = 571;
y = 261;
},
{
segmentType = line;
smooth = 0;
x = 1074;
y = 261;
},
{
smooth = 0;
x = 1077;
y = 280;
},
{
smooth = 0;
x = 1078;
y = 298;
},
{
segmentType = curve;
smooth = 1;
x = 1078;
y = 315;
},
{
smooth = 0;
x = 1078;
y = 434;
},
{
smooth = 0;
x = 993;
y = 552;
},
{
segmentType = curve;
smooth = 1;
x = 840;
y = 552;
},
{
smooth = 0;
x = 715;
y = 552;
},
{
smooth = 0;
x = 623;
y = 495;
},
{
segmentType = curve;
smooth = 0;
x = 582;
y = 400;
},
{
smooth = 0;
x = 537;
y = 495;
},
{
smooth = 0;
x = 442;
y = 552;
},
{
segmentType = curve;
smooth = 1;
x = 328;
y = 552;
},
{
smooth = 0;
x = 177;
y = 552;
},
{
smooth = 0;
x = 64;
y = 438;
}
);
}
);
lib = {
};
name = oe;
unicodes = (
);
width = 1135;
};
};
com.typesupply.AccentFactory.yCoordinates = {
bottom = {
name = origin;
type = glyphMetric;
};
top = {
name = xHeight;
type = fontInfo;
};
};
};
},
{
glyphname = p;
lastChange = "2022-04-10 16:30:13 +0000";
layers = (
{
layerId = "A69CC389-2ECF-459C-A4E4-3168912CA6B4";
paths = (
{
closed = 1;
nodes = (
"272 487 CURVE",
"272 564 LINE",
"50 564 LINE",
"50 -270 LINE",
"272 -270 LINE",
"272 77 LINE",
"299 26 OFFCURVE",
"352 -7 OFFCURVE",
"427 -7 CURVE",
"557 -7 OFFCURVE",
"660 100 OFFCURVE",
"660 282 CURVE",
"660 464 OFFCURVE",
"557 571 OFFCURVE",
"427 571 CURVE",
"352 571 OFFCURVE",
"299 538 OFFCURVE"
);
},
{
closed = 1;
nodes = (
"435 282 CURVE",
"435 220 OFFCURVE",
"399 187 OFFCURVE",
"353 187 CURVE",
"307 187 OFFCURVE",
"271 220 OFFCURVE",
"271 282 CURVE",
"271 344 OFFCURVE",
"307 377 OFFCURVE",
"353 377 CURVE",
"399 377 OFFCURVE",
"435 344 OFFCURVE"
);
}
);
width = 680;
},
{
background = {
paths = (
{
closed = 1;
nodes = (
"189 453 CURVE",
"189 551 LINE",
"75 551 LINE",
"75 -262 LINE",
"189 -262 LINE",
"189 103 LINE",
"225 39 OFFCURVE",
"290 -9 OFFCURVE",
"381 -9 CURVE SMOOTH",
"526 -9 OFFCURVE",
"640 108 OFFCURVE",
"640 278 CURVE SMOOTH",
"640 448 OFFCURVE",
"526 560 OFFCURVE",
"381 560 CURVE SMOOTH",
"290 560 OFFCURVE",
"224 514 OFFCURVE"
);
},
{
closed = 1;
nodes = (
"524 278 CURVE SMOOTH",
"524 159 OFFCURVE",
"442 90 OFFCURVE",
"356 90 CURVE SMOOTH",
"271 90 OFFCURVE",
"189 157 OFFCURVE",
"189 276 CURVE SMOOTH",
"189 394 OFFCURVE",
"271 461 OFFCURVE",
"356 461 CURVE SMOOTH",
"442 461 OFFCURVE",
"524 397 OFFCURVE"
);
}
);
};
guideLines = (
{
position = "{-224, 84}";
}
);
layerId = "4D0F633C-81E1-4D6C-A640-637CE706A5C5";
paths = (
{
closed = 1;
nodes = (
"189 470 CURVE",
"189 551 LINE",
"75 551 LINE",
"75 -262 LINE",
"189 -262 LINE",
"189 80 LINE",
"225 37 OFFCURVE",
"290 -9 OFFCURVE",
"381 -9 CURVE SMOOTH",
"526 -9 OFFCURVE",
"640 108 OFFCURVE",
"640 278 CURVE SMOOTH",
"640 448 OFFCURVE",
"526 560 OFFCURVE",
"381 560 CURVE SMOOTH",
"291 560 OFFCURVE",
"224 516 OFFCURVE"
);
},
{
closed = 1;
nodes = (
"524 278 CURVE SMOOTH",
"524 159 OFFCURVE",
"442 90 OFFCURVE",
"356 90 CURVE SMOOTH",
"271 90 OFFCURVE",
"189 157 OFFCURVE",
"189 276 CURVE SMOOTH",
"189 394 OFFCURVE",
"271 461 OFFCURVE",
"356 461 CURVE SMOOTH",
"442 461 OFFCURVE",
"524 397 OFFCURVE"
);
}
);
width = 678;
},
{
associatedMasterId = "4D0F633C-81E1-4D6C-A640-637CE706A5C5";
background = {
paths = (
{
closed = 1;
nodes = (
"189 453 CURVE",
"189 551 LINE",
"75 551 LINE",
"75 -262 LINE",
"189 -262 LINE",
"189 103 LINE",
"225 39 OFFCURVE",
"290 -9 OFFCURVE",
"381 -9 CURVE SMOOTH",
"526 -9 OFFCURVE",
"640 108 OFFCURVE",
"640 278 CURVE SMOOTH",
"640 448 OFFCURVE",
"526 560 OFFCURVE",
"381 560 CURVE SMOOTH",
"290 560 OFFCURVE",
"224 514 OFFCURVE"
);
},
{
closed = 1;
nodes = (
"524 278 CURVE SMOOTH",
"524 159 OFFCURVE",
"442 90 OFFCURVE",
"356 90 CURVE SMOOTH",
"271 90 OFFCURVE",
"189 157 OFFCURVE",
"189 276 CURVE SMOOTH",
"189 394 OFFCURVE",
"271 461 OFFCURVE",
"356 461 CURVE SMOOTH",
"442 461 OFFCURVE",
"524 397 OFFCURVE"
);
}
);
};
layerId = "E9CDC073-AD0C-455D-AC2D-D586502F74AA";
name = "Sep 19 17, 17:00";
paths = (
{
closed = 1;
nodes = (
"189 453 CURVE",
"189 551 LINE",
"75 551 LINE",
"75 -262 LINE",
"189 -262 LINE",
"189 103 LINE",
"225 39 OFFCURVE",
"290 -9 OFFCURVE",
"381 -9 CURVE SMOOTH",
"526 -9 OFFCURVE",
"640 108 OFFCURVE",
"640 278 CURVE SMOOTH",
"640 448 OFFCURVE",
"526 560 OFFCURVE",
"381 560 CURVE SMOOTH",
"290 560 OFFCURVE",
"224 514 OFFCURVE"
);
},
{
closed = 1;
nodes = (
"524 278 CURVE SMOOTH",
"524 159 OFFCURVE",
"442 90 OFFCURVE",
"356 90 CURVE SMOOTH",
"271 90 OFFCURVE",
"189 157 OFFCURVE",
"189 276 CURVE SMOOTH",
"189 394 OFFCURVE",
"271 461 OFFCURVE",
"356 461 CURVE SMOOTH",
"442 461 OFFCURVE",
"524 397 OFFCURVE"
);
}
);
width = 678;
}
);
leftKerningGroup = p;
leftMetricsKey = l;
rightKerningGroup = o;
rightMetricsKey = o;
unicode = 0070;
userData = {
com.schriftgestaltung.Glyphs.ColorIndex = 4;
com.typemytype.robofont.guides = (
{
angle = 0;
isGlobal = 0;
magnetic = 5;
x = -74;
y = -254;
}
);
com.typesupply.AccentFactory.yCoordinates = {
top = {
name = xHeight;
type = fontInfo;
};
};
};
},
{
glyphname = thorn;
lastChange = "2022-02-17 13:53:55 +0000";
layers = (
{
layerId = "A69CC389-2ECF-459C-A4E4-3168912CA6B4";
paths = (
{
closed = 1;
nodes = (
"272 514 CURVE",
"272 740 LINE",
"50 740 LINE",
"50 -270 LINE",
"272 -270 LINE",
"272 62 LINE",
"310 16 OFFCURVE",
"352 -6 OFFCURVE",
"411 -6 CURVE SMOOTH",
"545 -6 OFFCURVE",
"660 108 OFFCURVE",
"660 278 CURVE SMOOTH",
"660 448 OFFCURVE",
"545 568 OFFCURVE",
"411 568 CURVE SMOOTH",
"352 568 OFFCURVE",
"309 554 OFFCURVE"
);
},
{
closed = 1;
nodes = (
"435 278 CURVE SMOOTH",
"435 206 OFFCURVE",
"387 187 OFFCURVE",
"354 187 CURVE SMOOTH",
"320 187 OFFCURVE",
"272 210 OFFCURVE",
"272 282 CURVE SMOOTH",
"272 354 OFFCURVE",
"320 376 OFFCURVE",
"354 376 CURVE SMOOTH",
"387 376 OFFCURVE",
"435 350 OFFCURVE"
);
}
);
width = 680;
},
{
layerId = "4D0F633C-81E1-4D6C-A640-637CE706A5C5";
paths = (
{
closed = 1;
nodes = (
"189 453 CURVE",
"189 740 LINE",
"75 740 LINE",
"75 -262 LINE",
"189 -262 LINE",
"189 103 LINE",
"225 39 OFFCURVE",
"290 -9 OFFCURVE",
"381 -9 CURVE SMOOTH",
"526 -9 OFFCURVE",
"640 108 OFFCURVE",
"640 278 CURVE SMOOTH",
"640 448 OFFCURVE",
"526 560 OFFCURVE",
"381 560 CURVE SMOOTH",
"290 560 OFFCURVE",
"224 514 OFFCURVE"
);
},
{
closed = 1;
nodes = (
"524 278 CURVE SMOOTH",
"524 159 OFFCURVE",
"442 90 OFFCURVE",
"356 90 CURVE SMOOTH",
"271 90 OFFCURVE",
"189 157 OFFCURVE",
"189 276 CURVE SMOOTH",
"189 394 OFFCURVE",
"271 461 OFFCURVE",
"356 461 CURVE SMOOTH",
"442 461 OFFCURVE",
"524 397 OFFCURVE"
);
}
);
width = 678;
}
);
leftKerningGroup = h;
rightKerningGroup = o;
unicode = 00FE;
userData = {
com.schriftgestaltung.Glyphs.ColorIndex = 4;
};
},
{
glyphname = q;
lastChange = "2022-04-10 14:51:37 +0000";
layers = (
{
layerId = "A69CC389-2ECF-459C-A4E4-3168912CA6B4";
paths = (
{
closed = 1;
nodes = (
"20 278 CURVE SMOOTH",
"20 108 OFFCURVE",
"136 -6 OFFCURVE",
"269 -6 CURVE SMOOTH",
"327 -6 OFFCURVE",
"369 16 OFFCURVE",
"409 62 CURVE",
"409 -270 LINE",
"630 -270 LINE",
"630 564 LINE",
"409 564 LINE",
"409 514 LINE",
"372 554 OFFCURVE",
"327 568 OFFCURVE",
"269 568 CURVE SMOOTH",
"136 568 OFFCURVE",
"20 448 OFFCURVE"
);
},
{
closed = 1;
nodes = (
"409 282 CURVE SMOOTH",
"409 210 OFFCURVE",
"360 187 OFFCURVE",
"327 187 CURVE SMOOTH",
"294 187 OFFCURVE",
"245 206 OFFCURVE",
"245 278 CURVE SMOOTH",
"245 350 OFFCURVE",
"294 376 OFFCURVE",
"327 376 CURVE SMOOTH",
"360 376 OFFCURVE",
"409 354 OFFCURVE"
);
}
);
width = 680;
},
{
background = {
paths = (
{
closed = 1;
nodes = (
"38 278 CURVE SMOOTH",
"38 108 OFFCURVE",
"153 -9 OFFCURVE",
"298 -9 CURVE SMOOTH",
"388 -9 OFFCURVE",
"454 39 OFFCURVE",
"489 103 CURVE",
"489 -262 LINE",
"604 -262 LINE",
"604 551 LINE",
"489 551 LINE",
"489 453 LINE",
"455 514 OFFCURVE",
"388 560 OFFCURVE",
"298 560 CURVE SMOOTH",
"153 560 OFFCURVE",
"38 448 OFFCURVE"
);
},
{
closed = 1;
nodes = (
"489 276 CURVE SMOOTH",
"489 157 OFFCURVE",
"408 90 OFFCURVE",
"322 90 CURVE SMOOTH",
"237 90 OFFCURVE",
"155 159 OFFCURVE",
"155 278 CURVE SMOOTH",
"155 397 OFFCURVE",
"237 461 OFFCURVE",
"322 461 CURVE SMOOTH",
"408 461 OFFCURVE",
"489 394 OFFCURVE"
);
}
);
};
guideLines = (
{
position = "{-250, 84}";
}
);
layerId = "4D0F633C-81E1-4D6C-A640-637CE706A5C5";
paths = (
{
closed = 1;
nodes = (
"38 278 CURVE SMOOTH",
"38 108 OFFCURVE",
"153 -9 OFFCURVE",
"295 -9 CURVE SMOOTH",
"388 -9 OFFCURVE",
"457 37 OFFCURVE",
"489 80 CURVE",
"489 -262 LINE",
"604 -262 LINE",
"604 551 LINE",
"489 551 LINE",
"489 471 LINE",
"457 516 OFFCURVE",
"390 560 OFFCURVE",
"299 560 CURVE SMOOTH",
"153 560 OFFCURVE",
"38 448 OFFCURVE"
);
},
{
closed = 1;
nodes = (
"489 276 CURVE SMOOTH",
"489 157 OFFCURVE",
"408 90 OFFCURVE",
"322 90 CURVE SMOOTH",
"237 90 OFFCURVE",
"155 159 OFFCURVE",
"155 278 CURVE SMOOTH",
"155 397 OFFCURVE",
"237 461 OFFCURVE",
"322 461 CURVE SMOOTH",
"408 461 OFFCURVE",
"489 394 OFFCURVE"
);
}
);
width = 679;
},
{
associatedMasterId = "4D0F633C-81E1-4D6C-A640-637CE706A5C5";
background = {
paths = (
{
closed = 1;
nodes = (
"37 278 CURVE SMOOTH",
"37 108 OFFCURVE",
"152 -9 OFFCURVE",
"297 -9 CURVE SMOOTH",
"387 -9 OFFCURVE",
"453 39 OFFCURVE",
"488 103 CURVE",
"488 -262 LINE",
"603 -262 LINE",
"603 551 LINE",
"488 551 LINE",
"488 453 LINE",
"454 514 OFFCURVE",
"387 560 OFFCURVE",
"297 560 CURVE SMOOTH",
"152 560 OFFCURVE",
"37 448 OFFCURVE"
);
},
{
closed = 1;
nodes = (
"488 276 CURVE SMOOTH",
"488 157 OFFCURVE",
"407 90 OFFCURVE",
"321 90 CURVE SMOOTH",
"236 90 OFFCURVE",
"154 159 OFFCURVE",
"154 278 CURVE SMOOTH",
"154 397 OFFCURVE",
"236 461 OFFCURVE",
"321 461 CURVE SMOOTH",
"407 461 OFFCURVE",
"488 394 OFFCURVE"
);
}
);
};
guideLines = (
{
position = "{-251, 467}";
}
);
layerId = "47D07E84-9F73-4B5F-B2DA-24027F258064";
name = "Sep 19 17, 17:01";
paths = (
{
closed = 1;
nodes = (
"37 278 CURVE SMOOTH",
"37 108 OFFCURVE",
"152 -9 OFFCURVE",
"297 -9 CURVE SMOOTH",
"387 -9 OFFCURVE",
"453 39 OFFCURVE",
"488 103 CURVE",
"488 -262 LINE",
"603 -262 LINE",
"603 551 LINE",
"488 551 LINE",
"488 453 LINE",
"454 514 OFFCURVE",
"387 560 OFFCURVE",
"297 560 CURVE SMOOTH",
"152 560 OFFCURVE",
"37 448 OFFCURVE"
);
},
{
closed = 1;
nodes = (
"488 276 CURVE SMOOTH",
"488 157 OFFCURVE",
"407 90 OFFCURVE",
"321 90 CURVE SMOOTH",
"236 90 OFFCURVE",
"154 159 OFFCURVE",
"154 278 CURVE SMOOTH",
"154 397 OFFCURVE",
"236 461 OFFCURVE",
"321 461 CURVE SMOOTH",
"407 461 OFFCURVE",
"488 394 OFFCURVE"
);
}
);
width = 678;
}
);
leftKerningGroup = o;
leftMetricsKey = o;
rightKerningGroup = q;
rightMetricsKey = l;
unicode = 0071;
userData = {
com.schriftgestaltung.Glyphs.ColorIndex = 4;
com.typesupply.AccentFactory.yCoordinates = {
top = {
name = xHeight;
type = fontInfo;
};
};
};
},
{
glyphname = r;
lastChange = "2022-04-10 16:24:52 +0000";
layers = (
{
anchors = (
{
name = bottom;
position = "{155, 0}";
},
{
name = top;
position = "{275, 564}";
}
);
layerId = "A69CC389-2ECF-459C-A4E4-3168912CA6B4";
paths = (
{
closed = 1;
nodes = (
"272 231 LINE",
"272 308 OFFCURVE",
"314 331 OFFCURVE",
"394 331 CURVE SMOOTH",
"457 331 LINE",
"457 568 LINE",
"327 568 OFFCURVE",
"217 428 OFFCURVE",
"217 291 CURVE"
);
},
{
closed = 1;
nodes = (
"50 0 LINE",
"272 0 LINE",
"272 564 LINE",
"50 564 LINE"
);
}
);
width = 467;
},
{
anchors = (
{
name = bottom;
position = "{132, 0}";
},
{
name = top;
position = "{241, 551}";
}
);
layerId = "4D0F633C-81E1-4D6C-A640-637CE706A5C5";
paths = (
{
closed = 1;
nodes = (
"189 290 LINE",
"189 407 OFFCURVE",
"241 442 OFFCURVE",
"325 442 CURVE SMOOTH",
"354 442 LINE",
"354 560 LINE",
"220 560 OFFCURVE",
"155 459 OFFCURVE",
"155 330 CURVE"
);
},
{
closed = 1;
nodes = (
"75 0 LINE",
"189 0 LINE",
"189 551 LINE",
"75 551 LINE"
);
}
);
width = 379;
}
);
leftKerningGroup = n;
leftMetricsKey = n;
rightKerningGroup = r;
unicode = 0072;
userData = {
com.schriftgestaltung.Glyphs.ColorIndex = 4;
com.typesupply.AccentFactory.yCoordinates = {
bottom = {
name = origin;
type = glyphMetric;
};
top = {
name = xHeight;
type = fontInfo;
};
};
};
},
{
glyphname = rcommaaccent;
lastChange = "2022-04-10 13:01:53 +0000";
layers = (
{
components = (
{
name = r;
}
);
layerId = "A69CC389-2ECF-459C-A4E4-3168912CA6B4";
paths = (
{
closed = 1;
nodes = (
"80 -35 LINE",
"80 -182 LINE",
"152 -182 LINE",
"152 -193 LINE SMOOTH",
"152 -245 OFFCURVE",
"131 -268 OFFCURVE",
"97 -268 CURVE",
"97 -346 LINE",
"210 -346 OFFCURVE",
"261 -266 OFFCURVE",
"261 -170 CURVE SMOOTH",
"261 -128 OFFCURVE",
"254 -82 OFFCURVE",
"236 -35 CURVE"
);
}
);
width = 467;
},
{
components = (
{
name = r;
}
);
layerId = "4D0F633C-81E1-4D6C-A640-637CE706A5C5";
paths = (
{
closed = 1;
nodes = (
"77 -46 LINE",
"77 -142 LINE",
"130 -142 LINE",
"130 -163 LINE SMOOTH",
"130 -201 OFFCURVE",
"115 -220 OFFCURVE",
"82 -220 CURVE",
"82 -270 LINE",
"156 -270 OFFCURVE",
"194 -228 OFFCURVE",
"194 -145 CURVE SMOOTH",
"194 -116 OFFCURVE",
"190 -83 OFFCURVE",
"180 -46 CURVE"
);
}
);
width = 384;
}
);
leftKerningGroup = n;
rightKerningGroup = r;
unicode = 0157;
userData = {
com.schriftgestaltung.Glyphs.ColorIndex = 8;
com.typesupply.AccentFactory.compileType = manual;
};
},
{
glyphname = s;
lastChange = "2022-04-11 08:39:09 +0000";
layers = (
{
anchors = (
{
name = bottom;
position = "{301, 0}";
},
{
name = top;
position = "{301, 564}";
}
);
background = {
paths = (
{
closed = 1;
nodes = (
"35 394 CURVE",
"35 176 OFFCURVE",
"346 246 OFFCURVE",
"346 170 CURVE",
"346 155 OFFCURVE",
"335 146 OFFCURVE",
"312 146 CURVE SMOOTH",
"279 146 OFFCURVE",
"248 156 OFFCURVE",
"243 195 CURVE",
"30 195 LINE",
"52 64 OFFCURVE",
"150 -7 OFFCURVE",
"313 -7 CURVE",
"463 -7 OFFCURVE",
"550 65 OFFCURVE",
"550 165 CURVE",
"550 382 OFFCURVE",
"235 323 OFFCURVE",
"235 393 CURVE",
"235 409 OFFCURVE",
"245 417 OFFCURVE",
"266 417 CURVE",
"296 417 OFFCURVE",
"324 405 OFFCURVE",
"334 369 CURVE",
"541 369 LINE",
"518 483 OFFCURVE",
"432 571 OFFCURVE",
"271 571 CURVE",
"114 571 OFFCURVE",
"35 493 OFFCURVE"
);
}
);
};
layerId = "A69CC389-2ECF-459C-A4E4-3168912CA6B4";
paths = (
{
closed = 1;
nodes = (
"450 -7 OFFCURVE",
"540 69 OFFCURVE",
"540 169 CURVE SMOOTH",
"540 386 OFFCURVE",
"245 321 OFFCURVE",
"245 391 CURVE SMOOTH",
"245 408 OFFCURVE",
"258 417 OFFCURVE",
"280 417 CURVE SMOOTH",
"316 417 OFFCURVE",
"338 399 OFFCURVE",
"344 369 CURVE",
"541 369 LINE",
"525 480 OFFCURVE",
"446 571 OFFCURVE",
"285 571 CURVE SMOOTH",
"126 571 OFFCURVE",
"45 487 OFFCURVE",
"45 385 CURVE SMOOTH",
"45 178 OFFCURVE",
"336 246 OFFCURVE",
"336 172 CURVE SMOOTH",
"336 158 OFFCURVE",
"322 146 OFFCURVE",
"299 146 CURVE SMOOTH",
"265 146 OFFCURVE",
"238 161 OFFCURVE",
"233 195 CURVE",
"20 195 LINE",
"30 80 OFFCURVE",
"137 -7 OFFCURVE",
"300 -7 CURVE SMOOTH"
);
}
);
width = 577;
},
{
anchors = (
{
name = bottom;
position = "{265, 0}";
},
{
name = top;
position = "{264, 560}";
}
);
background = {
paths = (
{
closed = 1;
nodes = (
"48 393 CURVE SMOOTH",
"48 194 OFFCURVE",
"370 283 OFFCURVE",
"370 155 CURVE SMOOTH",
"370 112 OFFCURVE",
"333 81 OFFCURVE",
"267 81 CURVE SMOOTH",
"207 81 OFFCURVE",
"169 114 OFFCURVE",
"165 168 CURVE",
"47 168 LINE",
"55 53 OFFCURVE",
"141 -9 OFFCURVE",
"267 -9 CURVE SMOOTH",
"392 -9 OFFCURVE",
"482 57 OFFCURVE",
"482 153 CURVE SMOOTH",
"482 362 OFFCURVE",
"160 269 OFFCURVE",
"160 397 CURVE SMOOTH",
"160 438 OFFCURVE",
"195 470 OFFCURVE",
"258 470 CURVE SMOOTH",
"320 470 OFFCURVE",
"354 437 OFFCURVE",
"358 383 CURVE",
"475 383 LINE",
"469 493 OFFCURVE",
"388 560 OFFCURVE",
"266 560 CURVE SMOOTH",
"128 560 OFFCURVE",
"48 483 OFFCURVE"
);
}
);
};
layerId = "4D0F633C-81E1-4D6C-A640-637CE706A5C5";
paths = (
{
closed = 1;
nodes = (
"403 -9 OFFCURVE",
"484 61 OFFCURVE",
"484 154 CURVE SMOOTH",
"478 353 OFFCURVE",
"167 291 OFFCURVE",
"167 402 CURVE SMOOTH",
"167 439 OFFCURVE",
"199 464 OFFCURVE",
"260 464 CURVE SMOOTH",
"322 464 OFFCURVE",
"359 431 OFFCURVE",
"363 383 CURVE",
"477 383 LINE",
"471 493 OFFCURVE",
"389 560 OFFCURVE",
"264 560 CURVE SMOOTH",
"134 560 OFFCURVE",
"52 489 OFFCURVE",
"52 401 CURVE SMOOTH",
"52 199 OFFCURVE",
"372 261 OFFCURVE",
"372 153 CURVE SMOOTH",
"372 115 OFFCURVE",
"337 87 OFFCURVE",
"271 87 CURVE SMOOTH",
"208 87 OFFCURVE",
"165 124 OFFCURVE",
"161 169 CURVE",
"43 169 LINE",
"48 69 OFFCURVE",
"141 -9 OFFCURVE",
"273 -9 CURVE SMOOTH"
);
}
);
width = 530;
}
);
leftKerningGroup = s;
rightKerningGroup = s;
unicode = 0073;
userData = {
com.schriftgestaltung.Glyphs.ColorIndex = 4;
com.typesupply.AccentFactory.yCoordinates = {
bottom = {
name = origin;
type = glyphMetric;
};
top = {
name = xHeight;
type = fontInfo;
};
};
};
},
{
glyphname = scommaaccent;
lastChange = "2022-02-17 13:53:55 +0000";
layers = (
{
components = (
{
name = s;
}
);
layerId = "A69CC389-2ECF-459C-A4E4-3168912CA6B4";
paths = (
{
closed = 1;
nodes = (
"208 -35 LINE",
"208 -182 LINE",
"280 -182 LINE",
"280 -193 LINE SMOOTH",
"280 -245 OFFCURVE",
"259 -268 OFFCURVE",
"225 -268 CURVE",
"225 -346 LINE",
"338 -346 OFFCURVE",
"389 -266 OFFCURVE",
"389 -170 CURVE SMOOTH",
"389 -128 OFFCURVE",
"382 -82 OFFCURVE",
"364 -35 CURVE"
);
}
);
width = 579;
},
{
components = (
{
name = s;
}
);
layerId = "4D0F633C-81E1-4D6C-A640-637CE706A5C5";
paths = (
{
closed = 1;
nodes = (
"213 -46 LINE",
"213 -142 LINE",
"266 -142 LINE",
"266 -163 LINE SMOOTH",
"266 -201 OFFCURVE",
"251 -220 OFFCURVE",
"217 -220 CURVE",
"217 -270 LINE",
"291 -270 OFFCURVE",
"330 -228 OFFCURVE",
"330 -145 CURVE SMOOTH",
"330 -116 OFFCURVE",
"325 -83 OFFCURVE",
"316 -46 CURVE"
);
}
);
width = 534;
}
);
leftKerningGroup = s;
rightKerningGroup = s;
unicode = 0219;
userData = {
com.schriftgestaltung.Glyphs.ColorIndex = 8;
com.typesupply.AccentFactory.compileType = manual;
};
},
{
glyphname = germandbls;
lastChange = "2022-02-17 13:53:55 +0000";
layers = (
{
guideLines = (
{
angle = -30.0184;
position = "{493, 363}";
}
);
layerId = "4D0F633C-81E1-4D6C-A640-637CE706A5C5";
paths = (
{
closed = 1;
nodes = (
"54 0 LINE",
"168 0 LINE",
"168 547 LINE SMOOTH",
"168 630 OFFCURVE",
"201 678 OFFCURVE",
"300 678 CURVE SMOOTH",
"372 678 OFFCURVE",
"418 647 OFFCURVE",
"418 592 CURVE SMOOTH",
"418 511 OFFCURVE",
"282 475 OFFCURVE",
"282 374 CURVE SMOOTH",
"282 307 OFFCURVE",
"332 270 OFFCURVE",
"437 235 CURVE SMOOTH",
"507 212 OFFCURVE",
"528 189 OFFCURVE",
"528 146 CURVE SMOOTH",
"528 102 OFFCURVE",
"498 81 OFFCURVE",
"443 81 CURVE SMOOTH",
"382 81 OFFCURVE",
"350 117 OFFCURVE",
"348 173 CURVE",
"232 173 LINE",
"241 56 OFFCURVE",
"323 -10 OFFCURVE",
"443 -10 CURVE SMOOTH",
"571 -10 OFFCURVE",
"645 58 OFFCURVE",
"645 155 CURVE SMOOTH",
"645 235 OFFCURVE",
"604 288 OFFCURVE",
"502 322 CURVE SMOOTH",
"416 351 OFFCURVE",
"397 367 OFFCURVE",
"397 390 CURVE SMOOTH",
"397 439 OFFCURVE",
"532 475 OFFCURVE",
"532 601 CURVE SMOOTH",
"532 687 OFFCURVE",
"455 773 OFFCURVE",
"302 773 CURVE SMOOTH",
"128 773 OFFCURVE",
"54 676 OFFCURVE",
"54 562 CURVE SMOOTH"
);
}
);
width = 699;
},
{
guideLines = (
{
angle = -37.9987;
position = "{462, 303}";
},
{
angle = 240.9454;
position = "{584, 481}";
}
);
layerId = "A69CC389-2ECF-459C-A4E4-3168912CA6B4";
paths = (
{
closed = 1;
nodes = (
"44 0 LINE",
"264 0 LINE",
"264 499 LINE SMOOTH",
"264 548 OFFCURVE",
"297 580 OFFCURVE",
"346 580 CURVE SMOOTH",
"387 580 OFFCURVE",
"415 560 OFFCURVE",
"415 531 CURVE SMOOTH",
"415 483 OFFCURVE",
"326 431 OFFCURVE",
"326 358 CURVE SMOOTH",
"326 301 OFFCURVE",
"370 268 OFFCURVE",
"488 223 CURVE SMOOTH",
"554 198 OFFCURVE",
"564 186 OFFCURVE",
"564 169 CURVE SMOOTH",
"564 153 OFFCURVE",
"552 143 OFFCURVE",
"534 143 CURVE SMOOTH",
"510 143 OFFCURVE",
"488 161 OFFCURVE",
"480 188 CURVE",
"286 188 LINE",
"310 60 OFFCURVE",
"396 -10 OFFCURVE",
"540 -10 CURVE SMOOTH",
"676 -10 OFFCURVE",
"771 65 OFFCURVE",
"771 179 CURVE SMOOTH",
"771 260 OFFCURVE",
"730 304 OFFCURVE",
"626 346 CURVE SMOOTH",
"553 376 OFFCURVE",
"546 384 OFFCURVE",
"546 398 CURVE SMOOTH",
"546 429 OFFCURVE",
"634 477 OFFCURVE",
"634 572 CURVE SMOOTH",
"634 681 OFFCURVE",
"516 763 OFFCURVE",
"360 763 CURVE SMOOTH",
"182 763 OFFCURVE",
"44 670 OFFCURVE",
"44 509 CURVE SMOOTH"
);
}
);
width = 815;
}
);
leftKerningGroup = h;
rightKerningGroup = germandbls;
unicode = 00DF;
userData = {
com.schriftgestaltung.Glyphs.ColorIndex = 4;
};
},
{
color = 6;
glyphname = t;
lastChange = "2022-02-17 13:57:51 +0000";
layers = (
{
anchors = (
{
name = bottom;
position = "{227, 0}";
},
{
name = topright;
position = "{283, 942}";
}
);
layerId = "A69CC389-2ECF-459C-A4E4-3168912CA6B4";
paths = (
{
closed = 1;
nodes = (
"85 231 LINE SMOOTH",
"85 56 OFFCURVE",
"185 0 OFFCURVE",
"317 0 CURVE SMOOTH",
"401 0 LINE",
"401 189 LINE",
"348 189 LINE SMOOTH",
"319 189 OFFCURVE",
"307 201 OFFCURVE",
"307 227 CURVE SMOOTH",
"307 775 LINE",
"85 636 LINE"
);
},
{
closed = 1;
nodes = (
"399 379 LINE",
"399 564 LINE",
"15 564 LINE",
"15 379 LINE"
);
}
);
width = 436;
},
{
anchors = (
{
name = bottom;
position = "{187, 0}";
},
{
name = topright;
position = "{203, 828}";
}
);
layerId = "4D0F633C-81E1-4D6C-A640-637CE706A5C5";
paths = (
{
closed = 1;
nodes = (
"93 153 LINE SMOOTH",
"93 41 OFFCURVE",
"154 0 OFFCURVE",
"252 0 CURVE SMOOTH",
"342 0 LINE",
"342 95 LINE",
"272 95 LINE SMOOTH",
"224 95 OFFCURVE",
"208 112 OFFCURVE",
"208 153 CURVE SMOOTH",
"208 724 LINE",
"93 627 LINE"
);
},
{
closed = 1;
nodes = (
"342 458 LINE",
"342 551 LINE",
"28 551 LINE",
"28 458 LINE"
);
}
);
width = 372;
}
);
leftKerningGroup = t;
rightKerningGroup = t;
unicode = 0074;
userData = {
com.schriftgestaltung.Glyphs.ColorIndex = 4;
com.typesupply.AccentFactory.yCoordinates = {
bottom = {
name = origin;
type = glyphMetric;
};
};
};
},
{
glyphname = u;
lastChange = "2022-04-10 16:30:57 +0000";
layers = (
{
anchors = (
{
name = ogonek;
position = "{648, -3}";
},
{
name = top;
position = "{350, 564}";
}
);
layerId = "A69CC389-2ECF-459C-A4E4-3168912CA6B4";
paths = (
{
closed = 1;
nodes = (
"648 564 LINE",
"426 564 LINE",
"426 0 LINE",
"648 0 LINE"
);
},
{
closed = 1;
nodes = (
"268 564 LINE",
"46 564 LINE",
"46 237 LINE SMOOTH",
"46 91 OFFCURVE",
"123 -4 OFFCURVE",
"253 -4 CURVE SMOOTH",
"353 -4 OFFCURVE",
"414 53 OFFCURVE",
"441 113 CURVE",
"426 265 LINE",
"426 211 OFFCURVE",
"396 178 OFFCURVE",
"347 178 CURVE SMOOTH",
"299 178 OFFCURVE",
"268 211 OFFCURVE",
"268 265 CURVE SMOOTH"
);
}
);
width = 698;
},
{
anchors = (
{
name = ogonek;
position = "{574, -1}";
},
{
name = top;
position = "{325, 551}";
}
);
background = {
paths = (
{
closed = 1;
nodes = (
"183 551 LINE",
"70 551 LINE",
"70 226 LINE SMOOTH",
"70 72 OFFCURVE",
"166 -8 OFFCURVE",
"284 -8 CURVE SMOOTH",
"383 -8 OFFCURVE",
"462 47 OFFCURVE",
"484 152 CURVE",
"460 243 LINE",
"460 142 OFFCURVE",
"405 90 OFFCURVE",
"321 90 CURVE SMOOTH",
"238 90 OFFCURVE",
"183 142 OFFCURVE",
"183 243 CURVE SMOOTH"
);
}
);
};
layerId = "4D0F633C-81E1-4D6C-A640-637CE706A5C5";
paths = (
{
closed = 1;
nodes = (
"574 551 LINE",
"460 551 LINE",
"460 0 LINE",
"574 0 LINE"
);
},
{
closed = 1;
nodes = (
"184 551 LINE",
"70 551 LINE",
"70 227 LINE SMOOTH",
"70 73 OFFCURVE",
"168 -8 OFFCURVE",
"297 -8 CURVE SMOOTH",
"385 -8 OFFCURVE",
"466 42 OFFCURVE",
"488 120 CURVE",
"460 244 LINE",
"460 143 OFFCURVE",
"405 91 OFFCURVE",
"321 91 CURVE SMOOTH",
"238 91 OFFCURVE",
"184 143 OFFCURVE",
"184 244 CURVE SMOOTH"
);
}
);
width = 649;
},
{
anchors = (
{
name = ogonek;
position = "{574, -1}";
},
{
name = top;
position = "{325, 551}";
}
);
associatedMasterId = "4D0F633C-81E1-4D6C-A640-637CE706A5C5";
layerId = "78EB8547-759C-4F2B-9CD8-E7E60E5CF299";
name = "Sep 19 17, 17:03";
paths = (
{
closed = 1;
nodes = (
"574 551 LINE",
"460 551 LINE",
"460 0 LINE",
"574 0 LINE"
);
},
{
closed = 1;
nodes = (
"183 551 LINE",
"70 551 LINE",
"70 226 LINE SMOOTH",
"70 72 OFFCURVE",
"166 -8 OFFCURVE",
"284 -8 CURVE SMOOTH",
"383 -8 OFFCURVE",
"462 47 OFFCURVE",
"484 152 CURVE",
"460 243 LINE",
"460 142 OFFCURVE",
"405 90 OFFCURVE",
"321 90 CURVE SMOOTH",
"238 90 OFFCURVE",
"183 142 OFFCURVE",
"183 243 CURVE SMOOTH"
);
}
);
width = 649;
}
);
leftKerningGroup = u;
leftMetricsKey = "=|n";
rightKerningGroup = u;
rightMetricsKey = "=|n";
unicode = 0075;
userData = {
com.schriftgestaltung.Glyphs.ColorIndex = 4;
com.typesupply.AccentFactory.yCoordinates = {
bottom = {
name = origin;
type = glyphMetric;
};
top = {
name = xHeight;
type = fontInfo;
};
};
};
},
{
color = 6;
glyphname = v;
lastChange = "2022-04-10 16:23:28 +0000";
layers = (
{
layerId = "A69CC389-2ECF-459C-A4E4-3168912CA6B4";
paths = (
{
closed = 1;
nodes = (
"5 564 LINE",
"163 0 LINE",
"500 0 LINE",
"658 564 LINE",
"422 564 LINE",
"318 40 LINE",
"345 40 LINE",
"241 564 LINE"
);
}
);
width = 663;
},
{
layerId = "4D0F633C-81E1-4D6C-A640-637CE706A5C5";
paths = (
{
closed = 1;
nodes = (
"7 551 LINE",
"206 0 LINE",
"362 0 LINE",
"561 551 LINE",
"440 551 LINE",
"265 16 LINE",
"303 16 LINE",
"128 551 LINE"
);
}
);
width = 568;
}
);
leftKerningGroup = v;
rightKerningGroup = v;
unicode = 0076;
userData = {
com.schriftgestaltung.Glyphs.ColorIndex = 4;
com.typesupply.AccentFactory.yCoordinates = {
bottom = {
name = origin;
type = glyphMetric;
};
top = {
name = xHeight;
type = fontInfo;
};
};
};
},
{
color = 6;
glyphname = w;
lastChange = "2022-04-10 16:24:13 +0000";
layers = (
{
layerId = "A69CC389-2ECF-459C-A4E4-3168912CA6B4";
paths = (
{
closed = 1;
nodes = (
"117 0 LINE",
"409 0 LINE",
"478 409 LINE",
"438 409 LINE",
"507 0 LINE",
"799 0 LINE",
"912 564 LINE",
"700 564 LINE",
"652 72 LINE",
"662 72 LINE",
"577 564 LINE",
"340 564 LINE",
"254 72 LINE",
"264 72 LINE",
"217 564 LINE",
"5 564 LINE"
);
}
);
width = 917;
},
{
layerId = "4D0F633C-81E1-4D6C-A640-637CE706A5C5";
paths = (
{
closed = 1;
nodes = (
"167 0 LINE",
"314 0 LINE",
"437 489 LINE",
"388 489 LINE",
"511 0 LINE",
"658 0 LINE",
"818 551 LINE",
"701 551 LINE",
"578 36 LINE",
"596 36 LINE",
"472 551 LINE",
"353 551 LINE",
"230 36 LINE",
"248 36 LINE",
"124 551 LINE",
"7 551 LINE"
);
}
);
width = 825;
}
);
leftKerningGroup = w;
leftMetricsKey = v;
rightKerningGroup = w;
rightMetricsKey = v;
unicode = 0077;
userData = {
com.schriftgestaltung.Glyphs.ColorIndex = 4;
com.typemytype.robofont.layerData = {
b = {
anchors = (
);
components = (
);
contours = (
{
points = (
{
segmentType = line;
smooth = 0;
x = 211;
y = 0;
},
{
segmentType = line;
smooth = 0;
x = 225;
y = 0;
},
{
segmentType = line;
smooth = 0;
x = 405;
y = 569;
},
{
segmentType = line;
smooth = 0;
x = 373;
y = 569;
},
{
segmentType = line;
smooth = 0;
x = 555;
y = 0;
},
{
segmentType = line;
smooth = 0;
x = 569;
y = 0;
},
{
segmentType = line;
smooth = 0;
x = 747;
y = 540;
},
{
segmentType = line;
smooth = 0;
x = 716;
y = 540;
},
{
segmentType = line;
smooth = 0;
x = 552;
y = 32;
},
{
segmentType = line;
smooth = 0;
x = 560;
y = 32;
},
{
segmentType = line;
smooth = 0;
x = 401;
y = 540;
},
{
segmentType = line;
smooth = 0;
x = 386;
y = 540;
},
{
segmentType = line;
smooth = 0;
x = 214;
y = 32;
},
{
segmentType = line;
smooth = 0;
x = 222;
y = 32;
},
{
segmentType = line;
smooth = 0;
x = 56;
y = 540;
},
{
segmentType = line;
smooth = 0;
x = 30;
y = 540;
}
);
}
);
lib = {
};
name = w;
unicodes = (
);
width = 803;
};
};
com.typesupply.AccentFactory.yCoordinates = {
bottom = {
name = origin;
type = glyphMetric;
};
top = {
name = xHeight;
type = fontInfo;
};
};
};
},
{
glyphname = x;
lastChange = "2022-04-10 16:55:47 +0000";
layers = (
{
layerId = "A69CC389-2ECF-459C-A4E4-3168912CA6B4";
paths = (
{
closed = 1;
nodes = (
"420 0 LINE",
"668 0 LINE",
"248 564 LINE",
"0 564 LINE"
);
},
{
closed = 1;
nodes = (
"249 375 LINE",
"10 0 LINE",
"254 0 LINE",
"373 213 LINE"
);
},
{
closed = 1;
nodes = (
"420 209 LINE",
"659 564 LINE",
"415 564 LINE",
"306 371 LINE"
);
}
);
width = 668;
},
{
layerId = "4D0F633C-81E1-4D6C-A640-637CE706A5C5";
paths = (
{
closed = 1;
nodes = (
"360 0 LINE",
"489 0 LINE",
"139 551 LINE",
"10 551 LINE"
);
},
{
closed = 1;
nodes = (
"215 313 LINE",
"10 0 LINE",
"129 0 LINE",
"264 225 LINE"
);
},
{
closed = 1;
nodes = (
"285 239 LINE",
"489 551 LINE",
"370 551 LINE",
"235 327 LINE"
);
}
);
width = 499;
}
);
leftKerningGroup = x;
rightKerningGroup = x;
unicode = 0078;
userData = {
com.schriftgestaltung.Glyphs.ColorIndex = 4;
com.typesupply.AccentFactory.yCoordinates = {
bottom = {
name = origin;
type = glyphMetric;
};
top = {
name = xHeight;
type = fontInfo;
};
};
};
},
{
glyphname = y;
lastChange = "2022-04-15 09:30:34 +0000";
layers = (
{
anchors = (
{
name = top;
position = "{349, 564}";
}
);
layerId = "A69CC389-2ECF-459C-A4E4-3168912CA6B4";
paths = (
{
closed = 1;
nodes = (
"353 278 LINE",
"247 564 LINE",
"0 564 LINE",
"235 28 LINE",
"93 -270 LINE",
"336 -270 LINE",
"697 564 LINE",
"452 564 LINE"
);
}
);
width = 697;
},
{
anchors = (
{
name = top;
position = "{283, 551}";
}
);
layerId = "4D0F633C-81E1-4D6C-A640-637CE706A5C5";
paths = (
{
closed = 1;
nodes = (
"284 131 LINE",
"129 551 LINE",
"2 551 LINE",
"219 9 LINE",
"107 -259 LINE",
"225 -259 LINE",
"563 551 LINE",
"445 551 LINE"
);
}
);
width = 565;
}
);
leftKerningGroup = y;
leftMetricsKey = "=v-5";
rightKerningGroup = y;
rightMetricsKey = "=v-5";
unicode = 0079;
userData = {
com.schriftgestaltung.Glyphs.ColorIndex = 4;
com.typesupply.AccentFactory.yCoordinates = {
top = {
name = xHeight;
type = fontInfo;
};
};
};
},
{
glyphname = z;
lastChange = "2022-04-10 16:57:06 +0000";
layers = (
{
anchors = (
{
name = top;
position = "{266, 564}";
}
);
layerId = "A69CC389-2ECF-459C-A4E4-3168912CA6B4";
paths = (
{
closed = 1;
nodes = (
"488 564 LINE",
"23 564 LINE",
"23 380 LINE",
"235 380 LINE",
"20 174 LINE",
"20 0 LINE",
"498 0 LINE",
"498 184 LINE",
"263 184 LINE",
"488 390 LINE"
);
}
);
width = 518;
},
{
anchors = (
{
name = top;
position = "{237, 551}";
}
);
layerId = "4D0F633C-81E1-4D6C-A640-637CE706A5C5";
paths = (
{
closed = 1;
nodes = (
"427 551 LINE",
"45 551 LINE",
"45 458 LINE",
"296 458 LINE",
"45 93 LINE",
"45 0 LINE",
"427 0 LINE",
"427 93 LINE",
"177 93 LINE",
"427 458 LINE"
);
}
);
width = 472;
}
);
leftKerningGroup = z;
rightKerningGroup = z;
unicode = 007A;
userData = {
com.schriftgestaltung.Glyphs.ColorIndex = 4;
com.typesupply.AccentFactory.yCoordinates = {
bottom = {
name = origin;
type = glyphMetric;
};
top = {
name = xHeight;
type = fontInfo;
};
};
};
},
{
glyphname = a.ss02;
lastChange = "2022-02-17 13:53:55 +0000";
layers = (
{
anchors = (
{
name = ogonek;
position = "{630, 0}";
},
{
name = top;
position = "{347, 564}";
}
);
background = {
anchors = (
{
name = ogonek;
position = "{630, 0}";
},
{
name = top;
position = "{347, 564}";
}
);
paths = (
{
closed = 1;
nodes = (
"20 282 CURVE",
"20 100 OFFCURVE",
"123 -7 OFFCURVE",
"253 -7 CURVE",
"328 -7 OFFCURVE",
"382 26 OFFCURVE",
"409 77 CURVE",
"409 0 LINE",
"630 0 LINE",
"630 564 LINE",
"409 564 LINE",
"409 487 LINE",
"382 538 OFFCURVE",
"328 571 OFFCURVE",
"253 571 CURVE",
"123 571 OFFCURVE",
"20 464 OFFCURVE"
);
},
{
closed = 1;
nodes = (
"409 282 CURVE",
"409 220 OFFCURVE",
"373 187 OFFCURVE",
"327 187 CURVE",
"281 187 OFFCURVE",
"245 220 OFFCURVE",
"245 282 CURVE",
"245 344 OFFCURVE",
"281 377 OFFCURVE",
"327 377 CURVE",
"373 377 OFFCURVE",
"409 344 OFFCURVE"
);
}
);
};
layerId = "A69CC389-2ECF-459C-A4E4-3168912CA6B4";
paths = (
{
closed = 1;
nodes = (
"20 282 CURVE",
"20 100 OFFCURVE",
"123 -7 OFFCURVE",
"253 -7 CURVE",
"328 -7 OFFCURVE",
"382 26 OFFCURVE",
"409 77 CURVE",
"409 0 LINE",
"630 0 LINE",
"630 564 LINE",
"409 564 LINE",
"409 487 LINE",
"382 538 OFFCURVE",
"328 571 OFFCURVE",
"253 571 CURVE",
"123 571 OFFCURVE",
"20 464 OFFCURVE"
);
},
{
closed = 1;
nodes = (
"409 282 CURVE",
"409 220 OFFCURVE",
"373 187 OFFCURVE",
"327 187 CURVE",
"281 187 OFFCURVE",
"245 220 OFFCURVE",
"245 282 CURVE",
"245 344 OFFCURVE",
"281 377 OFFCURVE",
"327 377 CURVE",
"373 377 OFFCURVE",
"409 344 OFFCURVE"
);
}
);
width = 680;
},
{
anchors = (
{
name = ogonek;
position = "{603, 0}";
},
{
name = top;
position = "{339, 551}";
}
);
background = {
paths = (
{
closed = 1;
nodes = (
"37 278 CURVE SMOOTH",
"37 108 OFFCURVE",
"152 -9 OFFCURVE",
"295 -9 CURVE SMOOTH",
"387 -9 OFFCURVE",
"453 37 OFFCURVE",
"488 86 CURVE",
"488 0 LINE",
"603 0 LINE",
"603 551 LINE",
"488 551 LINE",
"488 467 LINE",
"454 514 OFFCURVE",
"390 560 OFFCURVE",
"297 560 CURVE SMOOTH",
"152 560 OFFCURVE",
"37 448 OFFCURVE"
);
},
{
closed = 1;
nodes = (
"488 276 CURVE SMOOTH",
"488 157 OFFCURVE",
"407 90 OFFCURVE",
"321 90 CURVE SMOOTH",
"236 90 OFFCURVE",
"154 159 OFFCURVE",
"154 278 CURVE SMOOTH",
"154 397 OFFCURVE",
"236 461 OFFCURVE",
"321 461 CURVE SMOOTH",
"407 461 OFFCURVE",
"488 394 OFFCURVE"
);
}
);
};
guideLines = (
{
position = "{549, 86}";
},
{
position = "{407, 466}";
}
);
layerId = "4D0F633C-81E1-4D6C-A640-637CE706A5C5";
paths = (
{
closed = 1;
nodes = (
"37 278 CURVE SMOOTH",
"37 108 OFFCURVE",
"152 -9 OFFCURVE",
"295 -9 CURVE SMOOTH",
"387 -9 OFFCURVE",
"453 35 OFFCURVE",
"488 82 CURVE",
"488 0 LINE",
"603 0 LINE",
"603 551 LINE",
"488 551 LINE",
"488 471 LINE",
"454 516 OFFCURVE",
"390 560 OFFCURVE",
"297 560 CURVE SMOOTH",
"152 560 OFFCURVE",
"37 448 OFFCURVE"
);
},
{
closed = 1;
nodes = (
"488 276 CURVE SMOOTH",
"488 157 OFFCURVE",
"407 90 OFFCURVE",
"321 90 CURVE SMOOTH",
"236 90 OFFCURVE",
"154 159 OFFCURVE",
"154 278 CURVE SMOOTH",
"154 397 OFFCURVE",
"236 461 OFFCURVE",
"321 461 CURVE SMOOTH",
"407 461 OFFCURVE",
"488 394 OFFCURVE"
);
}
);
width = 678;
},
{
anchors = (
{
name = ogonek;
position = "{603, 0}";
},
{
name = top;
position = "{339, 551}";
}
);
associatedMasterId = "4D0F633C-81E1-4D6C-A640-637CE706A5C5";
background = {
paths = (
{
closed = 1;
nodes = (
"37 278 CURVE SMOOTH",
"37 108 OFFCURVE",
"152 -9 OFFCURVE",
"295 -9 CURVE SMOOTH",
"387 -9 OFFCURVE",
"453 37 OFFCURVE",
"488 86 CURVE",
"488 0 LINE",
"603 0 LINE",
"603 551 LINE",
"488 551 LINE",
"488 467 LINE",
"454 514 OFFCURVE",
"390 560 OFFCURVE",
"297 560 CURVE SMOOTH",
"152 560 OFFCURVE",
"37 448 OFFCURVE"
);
},
{
closed = 1;
nodes = (
"488 276 CURVE SMOOTH",
"488 157 OFFCURVE",
"407 90 OFFCURVE",
"321 90 CURVE SMOOTH",
"236 90 OFFCURVE",
"154 159 OFFCURVE",
"154 278 CURVE SMOOTH",
"154 397 OFFCURVE",
"236 461 OFFCURVE",
"321 461 CURVE SMOOTH",
"407 461 OFFCURVE",
"488 394 OFFCURVE"
);
}
);
};
guideLines = (
{
position = "{549, 86}";
},
{
position = "{407, 466}";
}
);
layerId = "89DB5EE2-4F3F-4894-A273-E2AC796B90BE";
name = "Sep 19 17, 18:23";
paths = (
{
closed = 1;
nodes = (
"37 278 CURVE SMOOTH",
"37 108 OFFCURVE",
"152 -9 OFFCURVE",
"295 -9 CURVE SMOOTH",
"387 -9 OFFCURVE",
"453 37 OFFCURVE",
"488 86 CURVE",
"488 0 LINE",
"603 0 LINE",
"603 551 LINE",
"488 551 LINE",
"488 467 LINE",
"454 514 OFFCURVE",
"390 560 OFFCURVE",
"297 560 CURVE SMOOTH",
"152 560 OFFCURVE",
"37 448 OFFCURVE"
);
},
{
closed = 1;
nodes = (
"488 276 CURVE SMOOTH",
"488 157 OFFCURVE",
"407 90 OFFCURVE",
"321 90 CURVE SMOOTH",
"236 90 OFFCURVE",
"154 159 OFFCURVE",
"154 278 CURVE SMOOTH",
"154 397 OFFCURVE",
"236 461 OFFCURVE",
"321 461 CURVE SMOOTH",
"407 461 OFFCURVE",
"488 394 OFFCURVE"
);
}
);
width = 678;
}
);
leftKerningGroup = a.ss02;
rightKerningGroup = a.ss02;
userData = {
com.schriftgestaltung.Glyphs.ColorIndex = 4;
com.typemytype.robofont.guides = (
{
angle = 90;
isGlobal = 0;
magnetic = 5;
x = 306;
y = 501;
},
{
angle = 0;
isGlobal = 0;
magnetic = 5;
x = 88;
y = 270;
}
);
com.typesupply.AccentFactory.yCoordinates = {
bottom = {
name = origin;
type = glyphMetric;
};
top = {
name = xHeight;
type = fontInfo;
};
};
};
},
{
glyphname = ae.ss02;
lastChange = "2022-02-17 13:53:55 +0000";
layers = (
{
layerId = "A69CC389-2ECF-459C-A4E4-3168912CA6B4";
paths = (
{
closed = 1;
nodes = (
"604 243 LINE",
"1029 243 LINE",
"1032 257 OFFCURVE",
"1034 273 OFFCURVE",
"1034 287 CURVE",
"1034 464 OFFCURVE",
"935 571 OFFCURVE",
"796 571 CURVE",
"715 571 OFFCURVE",
"657 540 OFFCURVE",
"630 487 CURVE",
"630 564 LINE",
"409 564 LINE",
"409 487 LINE",
"382 538 OFFCURVE",
"328 571 OFFCURVE",
"253 571 CURVE",
"123 571 OFFCURVE",
"20 464 OFFCURVE",
"20 282 CURVE",
"20 100 OFFCURVE",
"123 -7 OFFCURVE",
"253 -7 CURVE",
"328 -7 OFFCURVE",
"382 26 OFFCURVE",
"409 77 CURVE",
"409 0 LINE",
"630 0 LINE",
"630 77 LINE",
"658 25 OFFCURVE",
"715 -7 OFFCURVE",
"796 -7 CURVE",
"913 -7 OFFCURVE",
"998 83 OFFCURVE",
"1022 203 CURVE",
"787 203 LINE",
"777 181 OFFCURVE",
"756 167 OFFCURVE",
"717 167 CURVE",
"670 167 OFFCURVE",
"636 190 OFFCURVE",
"636 273 CURVE",
"636 304 LINE",
"636 378 OFFCURVE",
"678 397 OFFCURVE",
"724 397 CURVE",
"769 397 OFFCURVE",
"809 378 OFFCURVE",
"809 334 CURVE",
"608 334 LINE"
);
},
{
closed = 1;
nodes = (
"245 282 CURVE",
"245 344 OFFCURVE",
"281 377 OFFCURVE",
"327 377 CURVE",
"373 377 OFFCURVE",
"409 344 OFFCURVE",
"409 282 CURVE",
"409 220 OFFCURVE",
"373 187 OFFCURVE",
"327 187 CURVE",
"281 187 OFFCURVE",
"245 220 OFFCURVE"
);
}
);
width = 1054;
},
{
background = {
paths = (
{
closed = 1;
nodes = (
"596 237 LINE",
"1047 237 LINE",
"1050 256 OFFCURVE",
"1051 274 OFFCURVE",
"1051 291 CURVE SMOOTH",
"1051 447 OFFCURVE",
"945 560 OFFCURVE",
"792 560 CURVE SMOOTH",
"714 560 OFFCURVE",
"652 536 OFFCURVE",
"599 473 CURVE",
"599 551 LINE",
"489 551 LINE",
"489 473 LINE",
"444 532 OFFCURVE",
"381 560 OFFCURVE",
"303 560 CURVE SMOOTH",
"152 560 OFFCURVE",
"37 448 OFFCURVE",
"37 278 CURVE SMOOTH",
"37 108 OFFCURVE",
"152 -9 OFFCURVE",
"297 -9 CURVE SMOOTH",
"381 -9 OFFCURVE",
"448 32 OFFCURVE",
"489 83 CURVE",
"489 0 LINE",
"599 0 LINE",
"599 83 LINE",
"638 30 OFFCURVE",
"711 -9 OFFCURVE",
"792 -9 CURVE SMOOTH",
"920 -9 OFFCURVE",
"1005 68 OFFCURVE",
"1035 164 CURVE",
"911 164 LINE",
"894 120 OFFCURVE",
"848 87 OFFCURVE",
"777 87 CURVE SMOOTH",
"697 87 OFFCURVE",
"614 147 OFFCURVE",
"614 265 CURVE SMOOTH",
"614 290 LINE SMOOTH",
"614 394 OFFCURVE",
"691 464 OFFCURVE",
"779 464 CURVE SMOOTH",
"868 464 OFFCURVE",
"931 407 OFFCURVE",
"933 319 CURVE",
"596 319 LINE"
);
},
{
closed = 1;
nodes = (
"154 278 CURVE SMOOTH",
"154 397 OFFCURVE",
"236 461 OFFCURVE",
"321 461 CURVE SMOOTH",
"407 461 OFFCURVE",
"488 394 OFFCURVE",
"488 276 CURVE SMOOTH",
"488 157 OFFCURVE",
"407 90 OFFCURVE",
"321 90 CURVE SMOOTH",
"236 90 OFFCURVE",
"154 159 OFFCURVE"
);
}
);
};
guideLines = (
{
angle = 180;
position = "{765, 473}";
}
);
layerId = "4D0F633C-81E1-4D6C-A640-637CE706A5C5";
paths = (
{
closed = 1;
nodes = (
"593 237 LINE",
"1044 237 LINE",
"1047 256 OFFCURVE",
"1048 274 OFFCURVE",
"1048 291 CURVE SMOOTH",
"1048 447 OFFCURVE",
"942 560 OFFCURVE",
"789 560 CURVE SMOOTH",
"710 560 OFFCURVE",
"647 536 OFFCURVE",
"590 473 CURVE",
"590 551 LINE",
"495 551 LINE",
"495 473 LINE",
"446 532 OFFCURVE",
"382 560 OFFCURVE",
"303 560 CURVE SMOOTH",
"152 560 OFFCURVE",
"37 448 OFFCURVE",
"37 278 CURVE SMOOTH",
"37 108 OFFCURVE",
"152 -9 OFFCURVE",
"297 -9 CURVE SMOOTH",
"382 -9 OFFCURVE",
"450 32 OFFCURVE",
"492 83 CURVE",
"492 0 LINE",
"590 0 LINE",
"590 83 LINE",
"632 30 OFFCURVE",
"706 -9 OFFCURVE",
"789 -9 CURVE SMOOTH",
"917 -9 OFFCURVE",
"1002 68 OFFCURVE",
"1033 164 CURVE",
"909 164 LINE",
"891 120 OFFCURVE",
"845 87 OFFCURVE",
"769 87 CURVE SMOOTH",
"690 87 OFFCURVE",
"603 147 OFFCURVE",
"603 265 CURVE SMOOTH",
"603 290 LINE SMOOTH",
"603 394 OFFCURVE",
"679 464 OFFCURVE",
"770 464 CURVE SMOOTH",
"860 464 OFFCURVE",
"928 407 OFFCURVE",
"930 319 CURVE",
"593 319 LINE"
);
},
{
closed = 1;
nodes = (
"154 278 CURVE SMOOTH",
"154 397 OFFCURVE",
"236 461 OFFCURVE",
"321 461 CURVE SMOOTH",
"407 461 OFFCURVE",
"488 394 OFFCURVE",
"488 276 CURVE SMOOTH",
"488 157 OFFCURVE",
"407 90 OFFCURVE",
"321 90 CURVE SMOOTH",
"236 90 OFFCURVE",
"154 159 OFFCURVE"
);
}
);
width = 1085;
},
{
associatedMasterId = "4D0F633C-81E1-4D6C-A640-637CE706A5C5";
guideLines = (
{
angle = 180;
position = "{765, 473}";
}
);
layerId = "F28C00FA-FD86-4707-9CBE-AF1AB7E52689";
name = "Sep 20 17, 15:51";
paths = (
{
closed = 1;
nodes = (
"596 237 LINE",
"1047 237 LINE",
"1050 256 OFFCURVE",
"1051 274 OFFCURVE",
"1051 291 CURVE SMOOTH",
"1051 447 OFFCURVE",
"945 560 OFFCURVE",
"792 560 CURVE SMOOTH",
"714 560 OFFCURVE",
"652 536 OFFCURVE",
"599 473 CURVE",
"599 551 LINE",
"489 551 LINE",
"489 473 LINE",
"444 532 OFFCURVE",
"381 560 OFFCURVE",
"303 560 CURVE SMOOTH",
"152 560 OFFCURVE",
"37 448 OFFCURVE",
"37 278 CURVE SMOOTH",
"37 108 OFFCURVE",
"152 -9 OFFCURVE",
"297 -9 CURVE SMOOTH",
"381 -9 OFFCURVE",
"448 32 OFFCURVE",
"489 83 CURVE",
"489 0 LINE",
"599 0 LINE",
"599 83 LINE",
"638 30 OFFCURVE",
"711 -9 OFFCURVE",
"792 -9 CURVE SMOOTH",
"920 -9 OFFCURVE",
"1005 68 OFFCURVE",
"1035 164 CURVE",
"911 164 LINE",
"894 120 OFFCURVE",
"848 87 OFFCURVE",
"777 87 CURVE SMOOTH",
"697 87 OFFCURVE",
"614 147 OFFCURVE",
"614 265 CURVE SMOOTH",
"614 290 LINE SMOOTH",
"614 394 OFFCURVE",
"691 464 OFFCURVE",
"779 464 CURVE SMOOTH",
"868 464 OFFCURVE",
"931 407 OFFCURVE",
"933 319 CURVE",
"596 319 LINE"
);
},
{
closed = 1;
nodes = (
"154 278 CURVE SMOOTH",
"154 397 OFFCURVE",
"236 461 OFFCURVE",
"321 461 CURVE SMOOTH",
"407 461 OFFCURVE",
"488 394 OFFCURVE",
"488 276 CURVE SMOOTH",
"488 157 OFFCURVE",
"407 90 OFFCURVE",
"321 90 CURVE SMOOTH",
"236 90 OFFCURVE",
"154 159 OFFCURVE"
);
}
);
width = 1088;
},
{
associatedMasterId = "4D0F633C-81E1-4D6C-A640-637CE706A5C5";
background = {
paths = (
{
closed = 1;
nodes = (
"596 237 LINE",
"1047 237 LINE",
"1050 256 OFFCURVE",
"1051 274 OFFCURVE",
"1051 291 CURVE SMOOTH",
"1051 447 OFFCURVE",
"945 560 OFFCURVE",
"792 560 CURVE SMOOTH",
"714 560 OFFCURVE",
"652 536 OFFCURVE",
"599 473 CURVE",
"599 551 LINE",
"489 551 LINE",
"489 473 LINE",
"444 532 OFFCURVE",
"381 560 OFFCURVE",
"303 560 CURVE SMOOTH",
"152 560 OFFCURVE",
"37 448 OFFCURVE",
"37 278 CURVE SMOOTH",
"37 108 OFFCURVE",
"152 -9 OFFCURVE",
"297 -9 CURVE SMOOTH",
"381 -9 OFFCURVE",
"448 32 OFFCURVE",
"489 83 CURVE",
"489 0 LINE",
"599 0 LINE",
"599 83 LINE",
"638 30 OFFCURVE",
"711 -9 OFFCURVE",
"792 -9 CURVE SMOOTH",
"920 -9 OFFCURVE",
"1005 68 OFFCURVE",
"1035 164 CURVE",
"911 164 LINE",
"894 120 OFFCURVE",
"848 87 OFFCURVE",
"777 87 CURVE SMOOTH",
"697 87 OFFCURVE",
"614 147 OFFCURVE",
"614 265 CURVE SMOOTH",
"614 290 LINE SMOOTH",
"614 394 OFFCURVE",
"691 464 OFFCURVE",
"779 464 CURVE SMOOTH",
"868 464 OFFCURVE",
"931 407 OFFCURVE",
"933 319 CURVE",
"596 319 LINE"
);
},
{
closed = 1;
nodes = (
"154 278 CURVE SMOOTH",
"154 397 OFFCURVE",
"236 461 OFFCURVE",
"321 461 CURVE SMOOTH",
"407 461 OFFCURVE",
"488 394 OFFCURVE",
"488 276 CURVE SMOOTH",
"488 157 OFFCURVE",
"407 90 OFFCURVE",
"321 90 CURVE SMOOTH",
"236 90 OFFCURVE",
"154 159 OFFCURVE"
);
}
);
};
guideLines = (
{
angle = 180;
position = "{765, 473}";
}
);
layerId = "B571E213-2767-49E5-BB94-1DA67743BFD7";
name = "Sep 20 17, 15:52";
paths = (
{
closed = 1;
nodes = (
"596 237 LINE",
"1047 237 LINE",
"1050 256 OFFCURVE",
"1051 274 OFFCURVE",
"1051 291 CURVE SMOOTH",
"1051 447 OFFCURVE",
"945 560 OFFCURVE",
"792 560 CURVE SMOOTH",
"714 560 OFFCURVE",
"652 536 OFFCURVE",
"599 473 CURVE",
"599 551 LINE",
"489 551 LINE",
"489 473 LINE",
"444 532 OFFCURVE",
"381 560 OFFCURVE",
"303 560 CURVE SMOOTH",
"152 560 OFFCURVE",
"37 448 OFFCURVE",
"37 278 CURVE SMOOTH",
"37 108 OFFCURVE",
"152 -9 OFFCURVE",
"297 -9 CURVE SMOOTH",
"381 -9 OFFCURVE",
"448 32 OFFCURVE",
"489 83 CURVE",
"489 0 LINE",
"599 0 LINE",
"599 83 LINE",
"638 30 OFFCURVE",
"711 -9 OFFCURVE",
"792 -9 CURVE SMOOTH",
"920 -9 OFFCURVE",
"1005 68 OFFCURVE",
"1035 164 CURVE",
"911 164 LINE",
"894 120 OFFCURVE",
"848 87 OFFCURVE",
"777 87 CURVE SMOOTH",
"697 87 OFFCURVE",
"614 147 OFFCURVE",
"614 265 CURVE SMOOTH",
"614 290 LINE SMOOTH",
"614 394 OFFCURVE",
"691 464 OFFCURVE",
"779 464 CURVE SMOOTH",
"868 464 OFFCURVE",
"931 407 OFFCURVE",
"933 319 CURVE",
"596 319 LINE"
);
},
{
closed = 1;
nodes = (
"154 278 CURVE SMOOTH",
"154 397 OFFCURVE",
"236 461 OFFCURVE",
"321 461 CURVE SMOOTH",
"407 461 OFFCURVE",
"488 394 OFFCURVE",
"488 276 CURVE SMOOTH",
"488 157 OFFCURVE",
"407 90 OFFCURVE",
"321 90 CURVE SMOOTH",
"236 90 OFFCURVE",
"154 159 OFFCURVE"
);
}
);
width = 1088;
}
);
leftKerningGroup = ae.ss02;
rightKerningGroup = ae.ss02;
userData = {
com.schriftgestaltung.Glyphs.ColorIndex = 4;
com.typemytype.robofont.layerData = {
b = {
anchors = (
);
components = (
);
contours = (
{
points = (
{
segmentType = line;
smooth = 0;
x = 547;
y = 261;
},
{
segmentType = line;
smooth = 0;
x = 1043;
y = 261;
},
{
smooth = 0;
x = 1046;
y = 280;
},
{
smooth = 0;
x = 1047;
y = 298;
},
{
segmentType = curve;
smooth = 1;
x = 1047;
y = 315;
},
{
smooth = 0;
x = 1047;
y = 439;
},
{
smooth = 0;
x = 956;
y = 552;
},
{
segmentType = curve;
smooth = 1;
x = 799;
y = 552;
},
{
smooth = 0;
x = 703;
y = 552;
},
{
smooth = 0;
x = 638;
y = 528;
},
{
segmentType = curve;
smooth = 0;
x = 582;
y = 437;
},
{
segmentType = line;
smooth = 0;
x = 582;
y = 540;
},
{
segmentType = line;
smooth = 0;
x = 562;
y = 540;
},
{
segmentType = line;
smooth = 0;
x = 562;
y = 437;
},
{
smooth = 0;
x = 508;
y = 528;
},
{
smooth = 0;
x = 432;
y = 552;
},
{
segmentType = curve;
smooth = 1;
x = 344;
y = 552;
},
{
smooth = 0;
x = 174;
y = 552;
},
{
smooth = 0;
x = 60;
y = 448;
},
{
segmentType = curve;
smooth = 1;
x = 60;
y = 278;
},
{
smooth = 0;
x = 60;
y = 108;
},
{
smooth = 0;
x = 174;
y = -12;
},
{
segmentType = curve;
smooth = 1;
x = 329;
y = -12;
},
{
smooth = 0;
x = 432;
y = -12;
},
{
smooth = 0;
x = 521;
y = 41;
},
{
segmentType = curve;
smooth = 0;
x = 562;
y = 105;
},
{
segmentType = line;
smooth = 0;
x = 562;
y = 0;
},
{
segmentType = line;
smooth = 0;
x = 582;
y = 0;
},
{
segmentType = line;
smooth = 0;
x = 582;
y = 103;
},
{
smooth = 0;
x = 627;
y = 34;
},
{
smooth = 0;
x = 696;
y = -12;
},
{
segmentType = curve;
smooth = 1;
x = 780;
y = -12;
},
{
smooth = 0;
x = 924;
y = -12;
},
{
smooth = 0;
x = 995;
y = 66;
},
{
segmentType = curve;
smooth = 0;
x = 1027;
y = 137;
},
{
segmentType = line;
smooth = 0;
x = 1007;
y = 137;
},
{
smooth = 0;
x = 982;
y = 60;
},
{
smooth = 0;
x = 917;
y = -1;
},
{
segmentType = curve;
smooth = 1;
x = 807;
y = -1;
},
{
smooth = 0;
x = 667;
y = -1;
},
{
smooth = 0;
x = 561;
y = 118;
},
{
segmentType = curve;
smooth = 1;
x = 561;
y = 274;
},
{
segmentType = line;
smooth = 1;
x = 561;
y = 259;
},
{
smooth = 0;
x = 561;
y = 432;
},
{
smooth = 0;
x = 674;
y = 541;
},
{
segmentType = curve;
smooth = 1;
x = 804;
y = 541;
},
{
smooth = 0;
x = 933;
y = 541;
},
{
smooth = 0;
x = 1030;
y = 448;
},
{
segmentType = curve;
smooth = 0;
x = 1027;
y = 290;
},
{
segmentType = line;
smooth = 0;
x = 552;
y = 290;
}
);
},
{
points = (
{
segmentType = curve;
smooth = 1;
x = 81;
y = 278;
},
{
smooth = 0;
x = 81;
y = 438;
},
{
smooth = 0;
x = 192;
y = 536;
},
{
segmentType = curve;
smooth = 1;
x = 323;
y = 536;
},
{
smooth = 0;
x = 456;
y = 536;
},
{
smooth = 0;
x = 567;
y = 430;
},
{
segmentType = curve;
smooth = 1;
x = 567;
y = 270;
},
{
smooth = 0;
x = 567;
y = 110;
},
{
smooth = 0;
x = 456;
y = 5;
},
{
segmentType = curve;
smooth = 1;
x = 323;
y = 5;
},
{
smooth = 0;
x = 192;
y = 5;
},
{
smooth = 0;
x = 81;
y = 118;
}
);
}
);
lib = {
};
name = ae;
unicodes = (
);
width = 1135;
};
};
com.typesupply.AccentFactory.yCoordinates = {
bottom = {
name = origin;
type = glyphMetric;
};
top = {
name = xHeight;
type = fontInfo;
};
};
};
},
{
color = 8;
glyphname = e.ss07;
lastChange = "2022-04-10 13:51:38 +0000";
layers = (
{
anchors = (
{
name = bottom;
position = "{308, -7}";
},
{
name = ogonek;
position = "{403, 8}";
},
{
name = top;
position = "{308, 571}";
}
);
guideLines = (
{
position = "{789, -221}";
}
);
layerId = "A69CC389-2ECF-459C-A4E4-3168912CA6B4";
paths = (
{
closed = 1;
nodes = (
"236 243 LINE",
"593 243 LINE",
"595 257 OFFCURVE",
"596 273 OFFCURVE",
"596 287 CURVE",
"596 464 OFFCURVE",
"477 571 OFFCURVE",
"308 571 CURVE",
"139 571 OFFCURVE",
"20 462 OFFCURVE",
"20 282 CURVE",
"20 102 OFFCURVE",
"139 -7 OFFCURVE",
"308 -7 CURVE SMOOTH",
"450 -7 OFFCURVE",
"560 83 OFFCURVE",
"584 203 CURVE",
"349 203 LINE",
"341 186 OFFCURVE",
"326 170 OFFCURVE",
"297 170 CURVE SMOOTH",
"264 170 OFFCURVE",
"236 189 OFFCURVE",
"236 258 CURVE SMOOTH",
"236 311 LINE SMOOTH",
"236 370 OFFCURVE",
"263 397 OFFCURVE",
"308 397 CURVE",
"341 397 OFFCURVE",
"371 379 OFFCURVE",
"371 340 CURVE",
"304 340 LINE"
);
}
);
width = 616;
},
{
anchors = (
{
name = bottom;
position = "{309, 0}";
},
{
name = ogonek;
position = "{418, 14}";
},
{
name = top;
position = "{309, 551}";
}
);
layerId = "4D0F633C-81E1-4D6C-A640-637CE706A5C5";
paths = (
{
closed = 1;
nodes = (
"154 233 LINE",
"576 233 LINE",
"579 252 OFFCURVE",
"580 270 OFFCURVE",
"580 289 CURVE SMOOTH",
"580 451 OFFCURVE",
"469 560 OFFCURVE",
"312 560 CURVE SMOOTH",
"149 560 OFFCURVE",
"37 449 OFFCURVE",
"37 276 CURVE SMOOTH",
"37 103 OFFCURVE",
"154 -9 OFFCURVE",
"312 -9 CURVE SMOOTH",
"447 -9 OFFCURVE",
"534 68 OFFCURVE",
"565 164 CURVE",
"442 164 LINE",
"421 121 OFFCURVE",
"382 87 OFFCURVE",
"312 87 CURVE SMOOTH",
"223 87 OFFCURVE",
"154 150 OFFCURVE",
"154 251 CURVE SMOOTH",
"154 295 LINE SMOOTH",
"154 400 OFFCURVE",
"221 464 OFFCURVE",
"307 464 CURVE SMOOTH",
"392 464 OFFCURVE",
"459 410 OFFCURVE",
"461 325 CURVE",
"208 325 LINE"
);
}
);
width = 617;
}
);
leftKerningGroup = o;
rightKerningGroup = e;
userData = {
com.schriftgestaltung.Glyphs.ColorIndex = 4;
com.typemytype.robofont.layerData = {
b = {
anchors = (
{
name = top;
x = 314;
y = 540;
},
{
name = ogonek;
x = 442;
y = 45;
},
{
name = bottom;
x = 314;
y = 0;
}
);
components = (
);
contours = (
{
points = (
{
segmentType = line;
smooth = 0;
x = 54;
y = 261;
},
{
segmentType = line;
smooth = 0;
x = 564;
y = 261;
},
{
smooth = 0;
x = 567;
y = 280;
},
{
smooth = 0;
x = 568;
y = 298;
},
{
segmentType = curve;
smooth = 1;
x = 568;
y = 315;
},
{
smooth = 0;
x = 568;
y = 434;
},
{
smooth = 0;
x = 482;
y = 552;
},
{
segmentType = curve;
smooth = 1;
x = 330;
y = 552;
},
{
smooth = 0;
x = 164;
y = 552;
},
{
smooth = 0;
x = 60;
y = 438;
},
{
segmentType = curve;
smooth = 1;
x = 60;
y = 270;
},
{
smooth = 0;
x = 60;
y = 103;
},
{
smooth = 0;
x = 164;
y = -12;
},
{
segmentType = curve;
smooth = 1;
x = 316;
y = -12;
},
{
smooth = 0;
x = 451;
y = -12;
},
{
smooth = 0;
x = 516;
y = 66;
},
{
segmentType = curve;
smooth = 0;
x = 548;
y = 137;
},
{
segmentType = line;
smooth = 0;
x = 528;
y = 137;
},
{
smooth = 0;
x = 505;
y = 60;
},
{
smooth = 0;
x = 424;
y = -1;
},
{
segmentType = curve;
smooth = 1;
x = 316;
y = -1;
},
{
smooth = 0;
x = 186;
y = -1;
},
{
smooth = 0;
x = 81;
y = 93;
},
{
segmentType = curve;
smooth = 1;
x = 81;
y = 269;
},
{
segmentType = line;
smooth = 1;
x = 81;
y = 274;
},
{
smooth = 0;
x = 81;
y = 447;
},
{
smooth = 0;
x = 183;
y = 541;
},
{
segmentType = curve;
smooth = 1;
x = 316;
y = 541;
},
{
smooth = 0;
x = 448;
y = 541;
},
{
smooth = 0;
x = 551;
y = 448;
},
{
segmentType = curve;
smooth = 0;
x = 549;
y = 290;
},
{
segmentType = line;
smooth = 0;
x = 53;
y = 290;
}
);
}
);
lib = {
};
name = e;
unicodes = (
);
width = 628;
};
};
com.typesupply.AccentFactory.yCoordinates = {
bottom = {
name = origin;
type = glyphMetric;
};
top = {
name = xHeight;
type = fontInfo;
};
};
};
},
{
color = 8;
glyphname = eogonek.ss07;
lastChange = "2022-04-10 13:51:38 +0000";
layers = (
{
background = {
paths = (
{
closed = 1;
nodes = (
"20 282 CURVE",
"20 135 OFFCURVE",
"99 36 OFFCURVE",
"220 4 CURVE",
"220 -6 OFFCURVE",
"220 -17 OFFCURVE",
"220 -27 CURVE",
"220 -122 OFFCURVE",
"303 -149 OFFCURVE",
"370 -149 CURVE",
"528 -149 LINE",
"528 -36 LINE",
"403 -36 LINE",
"377 -36 OFFCURVE",
"367 -29 OFFCURVE",
"367 -17 CURVE",
"367 -5 OFFCURVE",
"376 0 OFFCURVE",
"388 3 CURVE SMOOTH",
"491 29 OFFCURVE",
"564 107 OFFCURVE",
"584 203 CURVE",
"349 203 LINE",
"341 186 OFFCURVE",
"327 170 OFFCURVE",
"298 170 CURVE SMOOTH",
"268 170 OFFCURVE",
"236 188 OFFCURVE",
"236 258 CURVE SMOOTH",
"236 311 LINE SMOOTH",
"236 370 OFFCURVE",
"263 397 OFFCURVE",
"308 397 CURVE",
"341 397 OFFCURVE",
"371 379 OFFCURVE",
"371 334 CURVE",
"216 334 LINE",
"216 243 LINE",
"591 243 LINE",
"594 257 OFFCURVE",
"596 273 OFFCURVE",
"596 287 CURVE",
"596 464 OFFCURVE",
"477 571 OFFCURVE",
"308 571 CURVE",
"139 571 OFFCURVE",
"20 462 OFFCURVE"
);
}
);
};
components = (
{
name = e.ss07;
},
{
name = ogonek;
transform = "{1, 0, 0, 1, 111, 8}";
}
);
layerId = "A69CC389-2ECF-459C-A4E4-3168912CA6B4";
width = 616;
},
{
background = {
paths = (
{
closed = 1;
nodes = (
"37 276 CURVE SMOOTH",
"37 113 OFFCURVE",
"137 4 OFFCURVE",
"281 -8 CURVE",
"279 -14 OFFCURVE",
"278 -22 OFFCURVE",
"278 -30 CURVE SMOOTH",
"278 -99 OFFCURVE",
"335 -139 OFFCURVE",
"406 -139 CURVE SMOOTH",
"512 -139 LINE",
"512 -67 LINE",
"428 -67 LINE SMOOTH",
"393 -67 OFFCURVE",
"372 -60 OFFCURVE",
"372 -30 CURVE SMOOTH",
"372 -9 OFFCURVE",
"387 0 OFFCURVE",
"414 10 CURVE SMOOTH",
"481 35 OFFCURVE",
"537 90 OFFCURVE",
"561 164 CURVE",
"438 164 LINE",
"417 121 OFFCURVE",
"377 87 OFFCURVE",
"307 87 CURVE SMOOTH",
"218 87 OFFCURVE",
"154 150 OFFCURVE",
"154 251 CURVE SMOOTH",
"154 295 LINE SMOOTH",
"154 400 OFFCURVE",
"221 464 OFFCURVE",
"307 464 CURVE SMOOTH",
"392 464 OFFCURVE",
"459 407 OFFCURVE",
"461 315 CURVE",
"143 315 LINE",
"142 237 LINE",
"576 237 LINE",
"579 256 OFFCURVE",
"580 274 OFFCURVE",
"580 291 CURVE SMOOTH",
"580 451 OFFCURVE",
"469 560 OFFCURVE",
"312 560 CURVE SMOOTH",
"149 560 OFFCURVE",
"37 449 OFFCURVE"
);
}
);
};
components = (
{
name = e.ss07;
},
{
name = ogonek;
transform = "{1, 0, 0, 1, 209, 14}";
}
);
layerId = "4D0F633C-81E1-4D6C-A640-637CE706A5C5";
width = 617;
}
);
leftKerningGroup = o;
rightKerningGroup = e;
userData = {
com.schriftgestaltung.Glyphs.ColorIndex = 8;
};
},
{
color = 8;
glyphname = f.ss07;
lastChange = "2022-04-10 13:51:38 +0000";
layers = (
{
layerId = "A69CC389-2ECF-459C-A4E4-3168912CA6B4";
paths = (
{
closed = 1;
nodes = (
"70 0 LINE",
"292 0 LINE",
"292 534 LINE SMOOTH",
"292 588 OFFCURVE",
"314 608 OFFCURVE",
"365 608 CURVE SMOOTH",
"454 608 LINE",
"454 797 LINE",
"395 797 LINE SMOOTH",
"181 797 OFFCURVE",
"70 742 OFFCURVE",
"70 559 CURVE SMOOTH"
);
},
{
closed = 1;
nodes = (
"156 564 LINE",
"10 564 LINE",
"10 379 LINE",
"156 379 LINE"
);
},
{
closed = 1;
nodes = (
"292 379 LINE",
"454 379 LINE",
"454 564 LINE",
"421 564 LINE"
);
}
);
width = 449;
},
{
layerId = "4D0F633C-81E1-4D6C-A640-637CE706A5C5";
paths = (
{
closed = 1;
nodes = (
"89 0 LINE",
"204 0 LINE",
"204 590 LINE SMOOTH",
"204 653 OFFCURVE",
"228 679 OFFCURVE",
"298 679 CURVE SMOOTH",
"345 679 LINE",
"345 772 LINE",
"298 772 LINE SMOOTH",
"154 772 OFFCURVE",
"89 697 OFFCURVE",
"89 570 CURVE SMOOTH"
);
},
{
closed = 1;
nodes = (
"142 551 LINE",
"24 551 LINE",
"24 458 LINE",
"142 458 LINE"
);
},
{
closed = 1;
nodes = (
"204 458 LINE",
"345 458 LINE",
"345 551 LINE",
"258 551 LINE"
);
}
);
width = 340;
}
);
leftKerningGroup = f;
rightKerningGroup = f;
userData = {
com.schriftgestaltung.Glyphs.ColorIndex = 4;
com.typemytype.robofont.layerData = {
b = {
anchors = (
);
components = (
);
contours = (
{
points = (
{
segmentType = line;
smooth = 0;
x = 108;
y = 0;
},
{
segmentType = line;
smooth = 0;
x = 128;
y = 0;
},
{
segmentType = line;
smooth = 1;
x = 128;
y = 609;
},
{
smooth = 0;
x = 128;
y = 701;
},
{
smooth = 0;
x = 162;
y = 742;
},
{
segmentType = curve;
smooth = 0;
x = 275;
y = 742;
},
{
segmentType = line;
smooth = 0;
x = 275;
y = 753;
},
{
smooth = 0;
x = 158;
y = 753;
},
{
smooth = 0;
x = 108;
y = 711;
},
{
segmentType = curve;
smooth = 1;
x = 108;
y = 609;
}
);
}
);
lib = {
};
name = f;
unicodes = (
);
width = 318;
};
};
com.typesupply.AccentFactory.yCoordinates = {
bottom = {
name = origin;
type = glyphMetric;
};
top = {
name = ascender;
type = fontInfo;
};
};
};
},
{
color = 8;
glyphname = r.ss07;
lastChange = "2022-04-10 13:51:38 +0000";
layers = (
{
anchors = (
{
name = bottom;
position = "{155, 0}";
},
{
name = top;
position = "{275, 564}";
}
);
layerId = "A69CC389-2ECF-459C-A4E4-3168912CA6B4";
paths = (
{
closed = 1;
nodes = (
"50 0 LINE",
"272 0 LINE",
"272 564 LINE",
"50 564 LINE"
);
},
{
closed = 1;
nodes = (
"272 328 LINE",
"499 328 LINE",
"499 564 LINE",
"436 564 LINE"
);
}
);
width = 519;
},
{
anchors = (
{
name = bottom;
position = "{132, 0}";
},
{
name = top;
position = "{241, 551}";
}
);
layerId = "4D0F633C-81E1-4D6C-A640-637CE706A5C5";
paths = (
{
closed = 1;
nodes = (
"75 0 LINE",
"189 0 LINE",
"189 551 LINE",
"75 551 LINE"
);
},
{
closed = 1;
nodes = (
"189 432 LINE",
"396 432 LINE",
"396 551 LINE",
"259 551 LINE"
);
}
);
width = 401;
}
);
leftKerningGroup = n;
rightKerningGroup = r;
userData = {
com.schriftgestaltung.Glyphs.ColorIndex = 4;
com.typesupply.AccentFactory.yCoordinates = {
bottom = {
name = origin;
type = glyphMetric;
};
top = {
name = xHeight;
type = fontInfo;
};
};
};
},
{
color = 8;
glyphname = rcommaaccent.ss07;
lastChange = "2022-04-10 13:51:38 +0000";
layers = (
{
components = (
{
name = r.ss07;
}
);
layerId = "A69CC389-2ECF-459C-A4E4-3168912CA6B4";
paths = (
{
closed = 1;
nodes = (
"80 -35 LINE",
"80 -182 LINE",
"152 -182 LINE",
"152 -193 LINE SMOOTH",
"152 -245 OFFCURVE",
"131 -268 OFFCURVE",
"97 -268 CURVE",
"97 -346 LINE",
"210 -346 OFFCURVE",
"261 -266 OFFCURVE",
"261 -170 CURVE SMOOTH",
"261 -128 OFFCURVE",
"254 -82 OFFCURVE",
"236 -35 CURVE"
);
}
);
width = 467;
},
{
components = (
{
name = r.ss07;
}
);
layerId = "4D0F633C-81E1-4D6C-A640-637CE706A5C5";
paths = (
{
closed = 1;
nodes = (
"77 -46 LINE",
"77 -142 LINE",
"130 -142 LINE",
"130 -163 LINE SMOOTH",
"130 -201 OFFCURVE",
"115 -220 OFFCURVE",
"82 -220 CURVE",
"82 -270 LINE",
"156 -270 OFFCURVE",
"194 -228 OFFCURVE",
"194 -145 CURVE SMOOTH",
"194 -116 OFFCURVE",
"190 -83 OFFCURVE",
"180 -46 CURVE"
);
}
);
width = 384;
}
);
leftKerningGroup = n;
rightKerningGroup = r;
userData = {
com.schriftgestaltung.Glyphs.ColorIndex = 8;
com.typesupply.AccentFactory.compileType = manual;
};
},
{
color = 8;
glyphname = y.ss07;
lastChange = "2022-04-10 13:51:38 +0000";
layers = (
{
anchors = (
{
name = top;
position = "{341, 564}";
}
);
layerId = "A69CC389-2ECF-459C-A4E4-3168912CA6B4";
paths = (
{
closed = 1;
nodes = (
"337 0 LINE",
"239 564 LINE",
"10 564 LINE",
"109 0 LINE"
);
},
{
closed = 1;
nodes = (
"285 -270 LINE",
"514 -270 LINE",
"673 564 LINE",
"444 564 LINE"
);
}
);
width = 683;
},
{
anchors = (
{
name = top;
position = "{291, 551}";
}
);
layerId = "4D0F633C-81E1-4D6C-A640-637CE706A5C5";
paths = (
{
closed = 1;
nodes = (
"284 0 LINE",
"137 551 LINE",
"10 551 LINE",
"165 0 LINE"
);
},
{
closed = 1;
nodes = (
"205 -259 LINE",
"323 -259 LINE",
"571 551 LINE",
"453 551 LINE"
);
}
);
width = 581;
}
);
leftKerningGroup = y;
rightKerningGroup = y;
userData = {
com.schriftgestaltung.Glyphs.ColorIndex = 4;
com.typesupply.AccentFactory.yCoordinates = {
top = {
name = xHeight;
type = fontInfo;
};
};
};
},
{
color = 0;
export = 0;
glyphname = kcommaaccent;
lastChange = "2022-02-17 13:53:55 +0000";
layers = (
{
layerId = "A69CC389-2ECF-459C-A4E4-3168912CA6B4";
paths = (
{
closed = 1;
nodes = (
"262 -35 LINE",
"262 -182 LINE",
"334 -182 LINE",
"334 -193 LINE SMOOTH",
"334 -245 OFFCURVE",
"313 -268 OFFCURVE",
"279 -268 CURVE",
"279 -346 LINE",
"392 -346 OFFCURVE",
"443 -266 OFFCURVE",
"443 -170 CURVE SMOOTH",
"443 -128 OFFCURVE",
"436 -82 OFFCURVE",
"418 -35 CURVE"
);
}
);
width = 676;
},
{
layerId = "4D0F633C-81E1-4D6C-A640-637CE706A5C5";
paths = (
{
closed = 1;
nodes = (
"223 -46 LINE",
"223 -142 LINE",
"276 -142 LINE",
"276 -163 LINE SMOOTH",
"276 -201 OFFCURVE",
"260 -220 OFFCURVE",
"227 -220 CURVE",
"227 -270 LINE",
"301 -270 OFFCURVE",
"339 -228 OFFCURVE",
"339 -145 CURVE SMOOTH",
"339 -116 OFFCURVE",
"335 -83 OFFCURVE",
"326 -46 CURVE"
);
}
);
width = 554;
}
);
leftKerningGroup = h;
rightKerningGroup = k;
unicode = 0137;
userData = {
com.schriftgestaltung.Glyphs.ColorIndex = 8;
com.typesupply.AccentFactory.compileType = manual;
};
},
{
color = 0;
export = 0;
glyphname = lcommaaccent;
lastChange = "2022-02-17 13:53:55 +0000";
layers = (
{
layerId = "A69CC389-2ECF-459C-A4E4-3168912CA6B4";
paths = (
{
closed = 1;
nodes = (
"87 -35 LINE",
"87 -182 LINE",
"159 -182 LINE",
"159 -193 LINE SMOOTH",
"159 -245 OFFCURVE",
"138 -268 OFFCURVE",
"104 -268 CURVE",
"104 -346 LINE",
"217 -346 OFFCURVE",
"268 -266 OFFCURVE",
"268 -170 CURVE SMOOTH",
"268 -128 OFFCURVE",
"261 -82 OFFCURVE",
"243 -35 CURVE"
);
}
);
width = 322;
},
{
layerId = "4D0F633C-81E1-4D6C-A640-637CE706A5C5";
paths = (
{
closed = 1;
nodes = (
"78 -46 LINE",
"78 -142 LINE",
"131 -142 LINE",
"131 -163 LINE SMOOTH",
"131 -201 OFFCURVE",
"116 -220 OFFCURVE",
"82 -220 CURVE",
"82 -270 LINE",
"156 -270 OFFCURVE",
"195 -228 OFFCURVE",
"195 -145 CURVE SMOOTH",
"195 -116 OFFCURVE",
"190 -83 OFFCURVE",
"181 -46 CURVE"
);
}
);
width = 264;
}
);
leftKerningGroup = h;
rightKerningGroup = l;
unicode = 013C;
userData = {
com.schriftgestaltung.Glyphs.ColorIndex = 8;
com.typesupply.AccentFactory.compileType = manual;
};
},
{
color = 0;
export = 0;
glyphname = tcommaaccent;
lastChange = "2022-02-17 13:53:55 +0000";
layers = (
{
layerId = "A69CC389-2ECF-459C-A4E4-3168912CA6B4";
paths = (
{
closed = 1;
nodes = (
"147 -35 LINE",
"147 -182 LINE",
"219 -182 LINE",
"219 -193 LINE SMOOTH",
"219 -245 OFFCURVE",
"199 -268 OFFCURVE",
"164 -268 CURVE",
"164 -346 LINE",
"278 -346 OFFCURVE",
"329 -266 OFFCURVE",
"329 -170 CURVE SMOOTH",
"329 -128 OFFCURVE",
"321 -82 OFFCURVE",
"303 -35 CURVE"
);
}
);
width = 436;
},
{
layerId = "4D0F633C-81E1-4D6C-A640-637CE706A5C5";
paths = (
{
closed = 1;
nodes = (
"132 -46 LINE",
"132 -142 LINE",
"185 -142 LINE",
"185 -163 LINE SMOOTH",
"185 -201 OFFCURVE",
"170 -220 OFFCURVE",
"136 -220 CURVE",
"136 -270 LINE",
"211 -270 OFFCURVE",
"249 -228 OFFCURVE",
"249 -145 CURVE SMOOTH",
"249 -116 OFFCURVE",
"245 -83 OFFCURVE",
"235 -46 CURVE"
);
}
);
width = 372;
}
);
leftKerningGroup = t;
rightKerningGroup = t;
unicode = 021B;
userData = {
com.schriftgestaltung.Glyphs.ColorIndex = 8;
com.typesupply.AccentFactory.compileType = manual;
};
},
{
glyphname = f_f;
lastChange = "2022-04-10 17:18:39 +0000";
layers = (
{
components = (
{
name = f;
transform = "{1, 0, 0, 1, 336, 0}";
}
);
layerId = "4D0F633C-81E1-4D6C-A640-637CE706A5C5";
paths = (
{
closed = 1;
nodes = (
"93 0 LINE",
"208 0 LINE",
"208 590 LINE SMOOTH",
"208 653 OFFCURVE",
"232 677 OFFCURVE",
"302 677 CURVE",
"302 772 LINE",
"158 772 OFFCURVE",
"93 717 OFFCURVE",
"93 590 CURVE SMOOTH"
);
},
{
closed = 1;
nodes = (
"28 458 LINE",
"370 458 LINE",
"370 551 LINE",
"28 551 LINE"
);
}
);
width = 666;
},
{
components = (
{
name = f;
transform = "{1, 0, 0, 1, 385, 0}";
}
);
layerId = "A69CC389-2ECF-459C-A4E4-3168912CA6B4";
paths = (
{
closed = 1;
nodes = (
"70 0 LINE",
"292 0 LINE",
"292 539 LINE SMOOTH",
"292 595 OFFCURVE",
"314 611 OFFCURVE",
"375 604 CURVE",
"375 793 LINE",
"182 810 OFFCURVE",
"70 722 OFFCURVE",
"70 559 CURVE SMOOTH"
);
},
{
closed = 1;
nodes = (
"10 379 LINE",
"405 379 LINE",
"405 564 LINE",
"10 564 LINE"
);
}
);
width = 770;
}
);
leftKerningGroup = f;
leftMetricsKey = f;
rightKerningGroup = f;
rightMetricsKey = f;
},
{
color = 8;
glyphname = f_f.ss07;
lastChange = "2022-04-10 17:18:39 +0000";
layers = (
{
components = (
{
name = f.ss07;
transform = "{1, 0, 0, 1, 344, 0}";
}
);
layerId = "4D0F633C-81E1-4D6C-A640-637CE706A5C5";
paths = (
{
closed = 1;
nodes = (
"93 0 LINE",
"208 0 LINE",
"208 590 LINE SMOOTH",
"208 653 OFFCURVE",
"232 679 OFFCURVE",
"302 679 CURVE SMOOTH",
"349 679 LINE",
"349 772 LINE",
"302 772 LINE SMOOTH",
"158 772 OFFCURVE",
"93 697 OFFCURVE",
"93 570 CURVE SMOOTH"
);
},
{
closed = 1;
nodes = (
"126 551 LINE",
"28 551 LINE",
"28 458 LINE",
"126 458 LINE"
);
},
{
closed = 1;
nodes = (
"208 458 LINE",
"379 458 LINE",
"379 551 LINE",
"262 551 LINE"
);
}
);
width = 709;
},
{
components = (
{
name = f.ss07;
transform = "{1, 0, 0, 1, 449, 0}";
}
);
layerId = "A69CC389-2ECF-459C-A4E4-3168912CA6B4";
paths = (
{
closed = 1;
nodes = (
"70 0 LINE",
"292 0 LINE",
"292 534 LINE SMOOTH",
"292 588 OFFCURVE",
"314 608 OFFCURVE",
"365 608 CURVE SMOOTH",
"454 608 LINE",
"454 797 LINE",
"395 797 LINE SMOOTH",
"181 797 OFFCURVE",
"70 742 OFFCURVE",
"70 559 CURVE SMOOTH"
);
},
{
closed = 1;
nodes = (
"156 564 LINE",
"10 564 LINE",
"10 379 LINE",
"156 379 LINE"
);
},
{
closed = 1;
nodes = (
"292 379 LINE",
"464 379 LINE",
"464 564 LINE",
"421 564 LINE"
);
}
);
width = 913;
}
);
leftKerningGroup = f;
leftMetricsKey = f;
rightKerningGroup = f;
rightMetricsKey = f;
},
